  0
SECTION
  2
ENTITIES
  0
3DFACE
  8
0
  6
CONTINUOUS
 62
     4
 10
9.56926
 20
-8.08008
 30
7.03654
 11
9.56926
 21
-8.08008
 31
-4.81942
 12
9.56926
 22
-6.57375
 32
-5.02609
 13
9.56926
 23
-6.57375
 33
-5.02609
  0
3DFACE
  8
0
  6
CONTINUOUS
 62
     4
 10
9.56926
 20
-8.08008
 30
7.03654
 11
9.56926
 21
-6.57375
 31
-5.02609
 12
9.56926
 22
-8.08008
 32
-4.81942
 13
9.56926
 23
-8.08008
 33
-4.81942
  0
3DFACE
  8
0
  6
CONTINUOUS
 62
     4
 10
9.56926
 20
-8.08008
 30
7.03654
 11
9.56926
 21
-8.08008
 31
-4.81942
 12
9.91811
 22
-8.08008
 32
-4.81942
 13
9.91811
 23
-8.08008
 33
-4.81942
  0
3DFACE
  8
0
  6
CONTINUOUS
 62
     4
 10
9.56926
 20
-8.08008
 30
7.03654
 11
9.91811
 21
-8.08008
 31
-4.81942
 12
9.56926
 22
-8.08008
 32
-4.81942
 13
9.56926
 23
-8.08008
 33
-4.81942
  0
3DFACE
  8
0
  6
CONTINUOUS
 62
     4
 10
9.56926
 20
-8.08008
 30
-4.81942
 11
9.91811
 21
-8.08008
 31
-4.81942
 12
9.91811
 22
-6.57375
 32
-5.02609
 13
9.91811
 23
-6.57375
 33
-5.02609
  0
3DFACE
  8
0
  6
CONTINUOUS
 62
     4
 10
9.56926
 20
-8.08008
 30
-4.81942
 11
9.91811
 21
-6.57375
 31
-5.02609
 12
9.91811
 22
-8.08008
 32
-4.81942
 13
9.91811
 23
-8.08008
 33
-4.81942
  0
3DFACE
  8
0
  6
CONTINUOUS
 62
     4
 10
9.91811
 20
-8.08008
 30
-4.81942
 11
9.91811
 21
-8.08008
 31
7.03654
 12
9.91811
 22
-6.57375
 32
7.03654
 13
9.91811
 23
-6.57375
 33
7.03654
  0
3DFACE
  8
0
  6
CONTINUOUS
 62
     4
 10
9.91811
 20
-8.08008
 30
-4.81942
 11
9.91811
 21
-6.57375
 31
7.03654
 12
9.91811
 22
-8.08008
 32
7.03654
 13
9.91811
 23
-8.08008
 33
7.03654
  0
3DFACE
  8
0
  6
CONTINUOUS
 62
     4
 10
9.91811
 20
-8.08008
 30
-4.81942
 11
9.91811
 21
-8.08008
 31
7.03654
 12
9.56926
 22
-8.08008
 32
7.03654
 13
9.56926
 23
-8.08008
 33
7.03654
  0
3DFACE
  8
0
  6
CONTINUOUS
 62
     4
 10
9.56926
 20
-8.08008
 30
7.03654
 11
9.91811
 21
-8.08008
 31
-4.81942
 12
9.91811
 22
-8.08008
 32
7.03654
 13
9.91811
 23
-8.08008
 33
7.03654
  0
3DFACE
  8
0
  6
CONTINUOUS
 62
     4
 10
9.56926
 20
-8.08008
 30
7.03654
 11
9.91811
 21
-8.08008
 31
7.03654
 12
9.56926
 22
-6.57375
 32
7.03654
 13
9.56926
 23
-6.57375
 33
7.03654
  0
3DFACE
  8
0
  6
CONTINUOUS
 62
     4
 10
9.91811
 20
-8.08008
 30
7.03654
 11
9.56926
 21
-6.57375
 31
7.03654
 12
9.56926
 22
-8.08008
 32
7.03654
 13
9.56926
 23
-8.08008
 33
7.03654
  0
3DFACE
  8
0
  6
CONTINUOUS
 62
     4
 10
9.56926
 20
-8.08008
 30
7.03654
 11
9.56926
 21
-6.57375
 31
7.03654
 12
9.56926
 22
-6.57375
 32
-5.02609
 13
9.56926
 23
-6.57375
 33
-5.02609
  0
3DFACE
  8
0
  6
CONTINUOUS
 62
     4
 10
9.56926
 20
-8.08008
 30
7.03654
 11
9.56926
 21
-6.57375
 31
-5.02609
 12
9.56926
 22
-6.57375
 32
7.03654
 13
9.56926
 23
-6.57375
 33
7.03654
  0
3DFACE
  8
0
  6
CONTINUOUS
 62
     4
 10
9.56926
 20
-8.08008
 30
-4.81942
 11
9.56926
 21
-6.57375
 31
-5.02609
 12
9.91811
 22
-6.57375
 32
-5.02609
 13
9.91811
 23
-6.57375
 33
-5.02609
  0
3DFACE
  8
0
  6
CONTINUOUS
 62
     4
 10
9.56926
 20
-8.08008
 30
-4.81942
 11
9.91811
 21
-6.57375
 31
-5.02609
 12
9.56926
 22
-6.57375
 32
-5.02609
 13
9.56926
 23
-6.57375
 33
-5.02609
  0
3DFACE
  8
0
  6
CONTINUOUS
 62
     4
 10
9.91811
 20
-8.08008
 30
-4.81942
 11
9.91811
 21
-6.57375
 31
-5.02609
 12
9.91811
 22
-6.57375
 32
7.03654
 13
9.91811
 23
-6.57375
 33
7.03654
  0
3DFACE
  8
0
  6
CONTINUOUS
 62
     4
 10
9.91811
 20
-8.08008
 30
-4.81942
 11
9.91811
 21
-6.57375
 31
7.03654
 12
9.91811
 22
-6.57375
 32
-5.02609
 13
9.91811
 23
-6.57375
 33
-5.02609
  0
3DFACE
  8
0
  6
CONTINUOUS
 62
     4
 10
9.91811
 20
-8.08008
 30
7.03654
 11
9.91811
 21
-6.57375
 31
7.03654
 12
9.56926
 22
-6.57375
 32
7.03654
 13
9.56926
 23
-6.57375
 33
7.03654
  0
3DFACE
  8
0
  6
CONTINUOUS
 62
     4
 10
9.91811
 20
-8.08008
 30
7.03654
 11
9.56926
 21
-6.57375
 31
7.03654
 12
9.91811
 22
-6.57375
 32
7.03654
 13
9.91811
 23
-6.57375
 33
7.03654
  0
3DFACE
  8
0
  6
CONTINUOUS
 62
     4
 10
9.56926
 20
-6.57375
 30
7.03654
 11
9.56926
 21
-6.57375
 31
-5.02609
 12
9.91811
 22
-6.57375
 32
-5.02609
 13
9.91811
 23
-6.57375
 33
-5.02609
  0
3DFACE
  8
0
  6
CONTINUOUS
 62
     4
 10
9.56926
 20
-6.57375
 30
7.03654
 11
9.91811
 21
-6.57375
 31
-5.02609
 12
9.56926
 22
-6.57375
 32
-5.02609
 13
9.56926
 23
-6.57375
 33
-5.02609
  0
3DFACE
  8
0
  6
CONTINUOUS
 62
     4
 10
9.91811
 20
-6.57375
 30
-5.02609
 11
9.91811
 21
-6.57375
 31
7.03654
 12
9.56926
 22
-6.57375
 32
7.03654
 13
9.56926
 23
-6.57375
 33
7.03654
  0
3DFACE
  8
0
  6
CONTINUOUS
 62
     4
 10
9.56926
 20
-6.57375
 30
7.03654
 11
9.91811
 21
-6.57375
 31
-5.02609
 12
9.91811
 22
-6.57375
 32
7.03654
 13
9.91811
 23
-6.57375
 33
7.03654
  0
3DFACE
  8
0
  6
CONTINUOUS
 62
     4
 10
-7.04057
 20
-6.57375
 30
-5.02609
 11
-7.38943
 21
-6.57375
 31
7.03654
 12
-7.38943
 22
-6.57375
 32
-5.02609
 13
-7.38943
 23
-6.57375
 33
-5.02609
  0
3DFACE
  8
0
  6
CONTINUOUS
 62
     4
 10
-7.38943
 20
-6.57375
 30
-5.02609
 11
-7.38943
 21
-6.57375
 31
7.03654
 12
-7.04057
 22
-6.57375
 32
-5.02609
 13
-7.04057
 23
-6.57375
 33
-5.02609
  0
3DFACE
  8
0
  6
CONTINUOUS
 62
     4
 10
-7.04057
 20
-6.57375
 30
-5.02609
 11
-7.38943
 21
-6.57375
 31
7.03654
 12
-7.04057
 22
-6.57375
 32
7.03654
 13
-7.04057
 23
-6.57375
 33
7.03654
  0
3DFACE
  8
0
  6
CONTINUOUS
 62
     4
 10
-7.04057
 20
-6.57375
 30
7.03654
 11
-7.38943
 21
-6.57375
 31
7.03654
 12
-7.04057
 22
-6.57375
 32
-5.02609
 13
-7.04057
 23
-6.57375
 33
-5.02609
  0
3DFACE
  8
0
  6
CONTINUOUS
 62
     4
 10
-7.38943
 20
-6.57375
 30
7.03654
 11
-7.04057
 21
-8.08008
 31
7.03654
 12
-7.38943
 22
-8.08008
 32
7.03654
 13
-7.38943
 23
-8.08008
 33
7.03654
  0
3DFACE
  8
0
  6
CONTINUOUS
 62
     4
 10
-7.04057
 20
-8.08008
 30
7.03654
 11
-7.38943
 21
-8.08008
 31
7.03654
 12
-7.38943
 22
-6.57375
 32
7.03654
 13
-7.38943
 23
-6.57375
 33
7.03654
  0
3DFACE
  8
0
  6
CONTINUOUS
 62
     4
 10
-7.38943
 20
-6.57375
 30
7.03654
 11
-7.04057
 21
-8.08008
 31
7.03654
 12
-7.04057
 22
-6.57375
 32
7.03654
 13
-7.04057
 23
-6.57375
 33
7.03654
  0
3DFACE
  8
0
  6
CONTINUOUS
 62
     4
 10
-7.04057
 20
-6.57375
 30
7.03654
 11
-7.04057
 21
-8.08008
 31
7.03654
 12
-7.38943
 22
-6.57375
 32
7.03654
 13
-7.38943
 23
-6.57375
 33
7.03654
  0
3DFACE
  8
0
  6
CONTINUOUS
 62
     4
 10
-7.04057
 20
-6.57375
 30
7.03654
 11
-7.04057
 21
-8.08008
 31
-4.81942
 12
-7.04057
 22
-8.08008
 32
7.03654
 13
-7.04057
 23
-8.08008
 33
7.03654
  0
3DFACE
  8
0
  6
CONTINUOUS
 62
     4
 10
-7.04057
 20
-8.08008
 30
7.03654
 11
-7.04057
 21
-8.08008
 31
-4.81942
 12
-7.04057
 22
-6.57375
 32
7.03654
 13
-7.04057
 23
-6.57375
 33
7.03654
  0
3DFACE
  8
0
  6
CONTINUOUS
 62
     4
 10
-7.04057
 20
-6.57375
 30
7.03654
 11
-7.04057
 21
-8.08008
 31
-4.81942
 12
-7.04057
 22
-6.57375
 32
-5.02609
 13
-7.04057
 23
-6.57375
 33
-5.02609
  0
3DFACE
  8
0
  6
CONTINUOUS
 62
     4
 10
-7.04057
 20
-6.57375
 30
-5.02609
 11
-7.04057
 21
-8.08008
 31
-4.81942
 12
-7.04057
 22
-6.57375
 32
7.03654
 13
-7.04057
 23
-6.57375
 33
7.03654
  0
3DFACE
  8
0
  6
CONTINUOUS
 62
     4
 10
-7.04057
 20
-6.57375
 30
-5.02609
 11
-7.38943
 21
-8.08008
 31
-4.81942
 12
-7.04057
 22
-8.08008
 32
-4.81942
 13
-7.04057
 23
-8.08008
 33
-4.81942
  0
3DFACE
  8
0
  6
CONTINUOUS
 62
     4
 10
-7.04057
 20
-8.08008
 30
-4.81942
 11
-7.38943
 21
-8.08008
 31
-4.81942
 12
-7.04057
 22
-6.57375
 32
-5.02609
 13
-7.04057
 23
-6.57375
 33
-5.02609
  0
3DFACE
  8
0
  6
CONTINUOUS
 62
     4
 10
-7.04057
 20
-6.57375
 30
-5.02609
 11
-7.38943
 21
-8.08008
 31
-4.81942
 12
-7.38943
 22
-6.57375
 32
-5.02609
 13
-7.38943
 23
-6.57375
 33
-5.02609
  0
3DFACE
  8
0
  6
CONTINUOUS
 62
     4
 10
-7.38943
 20
-6.57375
 30
-5.02609
 11
-7.38943
 21
-8.08008
 31
-4.81942
 12
-7.04057
 22
-6.57375
 32
-5.02609
 13
-7.04057
 23
-6.57375
 33
-5.02609
  0
3DFACE
  8
0
  6
CONTINUOUS
 62
     4
 10
-7.38943
 20
-6.57375
 30
-5.02609
 11
-7.38943
 21
-8.08008
 31
7.03654
 12
-7.38943
 22
-8.08008
 32
-4.81942
 13
-7.38943
 23
-8.08008
 33
-4.81942
  0
3DFACE
  8
0
  6
CONTINUOUS
 62
     4
 10
-7.38943
 20
-8.08008
 30
-4.81942
 11
-7.38943
 21
-8.08008
 31
7.03654
 12
-7.38943
 22
-6.57375
 32
-5.02609
 13
-7.38943
 23
-6.57375
 33
-5.02609
  0
3DFACE
  8
0
  6
CONTINUOUS
 62
     4
 10
-7.38943
 20
-6.57375
 30
-5.02609
 11
-7.38943
 21
-8.08008
 31
7.03654
 12
-7.38943
 22
-6.57375
 32
7.03654
 13
-7.38943
 23
-6.57375
 33
7.03654
  0
3DFACE
  8
0
  6
CONTINUOUS
 62
     4
 10
-7.38943
 20
-6.57375
 30
7.03654
 11
-7.38943
 21
-8.08008
 31
7.03654
 12
-7.38943
 22
-6.57375
 32
-5.02609
 13
-7.38943
 23
-6.57375
 33
-5.02609
  0
3DFACE
  8
0
  6
CONTINUOUS
 62
     4
 10
-7.04057
 20
-8.08008
 30
-4.81942
 11
-7.38943
 21
-8.08008
 31
7.03654
 12
-7.38943
 22
-8.08008
 32
-4.81942
 13
-7.38943
 23
-8.08008
 33
-4.81942
  0
3DFACE
  8
0
  6
CONTINUOUS
 62
     4
 10
-7.38943
 20
-8.08008
 30
-4.81942
 11
-7.38943
 21
-8.08008
 31
7.03654
 12
-7.04057
 22
-8.08008
 32
-4.81942
 13
-7.04057
 23
-8.08008
 33
-4.81942
  0
3DFACE
  8
0
  6
CONTINUOUS
 62
     4
 10
-7.04057
 20
-8.08008
 30
-4.81942
 11
-7.38943
 21
-8.08008
 31
7.03654
 12
-7.04057
 22
-8.08008
 32
7.03654
 13
-7.04057
 23
-8.08008
 33
7.03654
  0
3DFACE
  8
0
  6
CONTINUOUS
 62
     4
 10
-7.04057
 20
-8.08008
 30
7.03654
 11
-7.38943
 21
-8.08008
 31
7.03654
 12
-7.04057
 22
-8.08008
 32
-4.81942
 13
-7.04057
 23
-8.08008
 33
-4.81942
  0
3DFACE
  8
0
  6
CONTINUOUS
 62
     4
 10
-7.56889
 20
-6.66551
 30
-5.73892
 11
10.025
 21
-6.66551
 31
7.12931
 12
10.0754
 22
-6.66551
 32
-5.73892
 13
10.0754
 23
-6.66551
 33
-5.73892
  0
3DFACE
  8
0
  6
CONTINUOUS
 62
     4
 10
-7.56889
 20
-6.66551
 30
-5.73892
 11
10.0754
 21
-6.66551
 31
-5.73892
 12
10.025
 22
-6.66551
 32
7.12931
 13
10.025
 23
-6.66551
 33
7.12931
  0
3DFACE
  8
0
  6
CONTINUOUS
 62
     4
 10
-7.56889
 20
-6.66551
 30
-5.73892
 11
10.025
 21
-6.66551
 31
7.12931
 12
-7.61931
 22
-3.64278
 32
7.12931
 13
-7.61931
 23
-3.64278
 33
7.12931
  0
3DFACE
  8
0
  6
CONTINUOUS
 62
     4
 10
-7.56889
 20
-6.66551
 30
-5.73892
 11
-7.61931
 21
-3.64278
 31
7.12931
 12
10.025
 22
-6.66551
 32
7.12931
 13
10.025
 23
-6.66551
 33
7.12931
  0
3DFACE
  8
0
  6
CONTINUOUS
 62
     4
 10
-7.56889
 20
-6.66551
 30
-5.73892
 11
10.025
 21
-6.66551
 31
7.12931
 12
-7.61931
 22
-6.66551
 32
7.12931
 13
-7.61931
 23
-6.66551
 33
7.12931
  0
3DFACE
  8
0
  6
CONTINUOUS
 62
     4
 10
-7.56889
 20
-6.66551
 30
-5.73892
 11
-7.61931
 21
-6.66551
 31
7.12931
 12
10.025
 22
-6.66551
 32
7.12931
 13
10.025
 23
-6.66551
 33
7.12931
  0
3DFACE
  8
0
  6
CONTINUOUS
 62
     4
 10
-7.56889
 20
-3.64278
 30
-5.73892
 11
10.025
 21
-3.64278
 31
7.12931
 12
10.0754
 22
-3.64278
 32
-5.73892
 13
10.0754
 23
-3.64278
 33
-5.73892
  0
3DFACE
  8
0
  6
CONTINUOUS
 62
     4
 10
-7.56889
 20
-3.64278
 30
-5.73892
 11
10.0754
 21
-3.64278
 31
-5.73892
 12
10.025
 22
-3.64278
 32
7.12931
 13
10.025
 23
-3.64278
 33
7.12931
  0
3DFACE
  8
0
  6
CONTINUOUS
 62
     4
 10
-7.56889
 20
-3.64278
 30
-5.73892
 11
10.025
 21
-3.64278
 31
7.12931
 12
-7.61931
 22
-3.64278
 32
7.12931
 13
-7.61931
 23
-3.64278
 33
7.12931
  0
3DFACE
  8
0
  6
CONTINUOUS
 62
     4
 10
-7.56889
 20
-3.64278
 30
-5.73892
 11
-7.61931
 21
-3.64278
 31
7.12931
 12
10.025
 22
-3.64278
 32
7.12931
 13
10.025
 23
-3.64278
 33
7.12931
  0
3DFACE
  8
0
  6
CONTINUOUS
 62
     4
 10
-7.56889
 20
-3.64278
 30
-5.73892
 11
-7.61931
 21
-3.64278
 31
7.12931
 12
-7.56889
 22
-6.66551
 32
-5.73892
 13
-7.56889
 23
-6.66551
 33
-5.73892
  0
3DFACE
  8
0
  6
CONTINUOUS
 62
     4
 10
-7.56889
 20
-6.66551
 30
-5.73892
 11
-7.56889
 21
-3.64278
 31
-5.73892
 12
-7.61931
 22
-3.64278
 32
7.12931
 13
-7.61931
 23
-3.64278
 33
7.12931
  0
3DFACE
  8
0
  6
CONTINUOUS
 62
     4
 10
-7.56889
 20
-6.66551
 30
-5.73892
 11
-7.61931
 21
-6.66551
 31
7.12931
 12
-7.61931
 22
-3.64278
 32
7.12931
 13
-7.61931
 23
-3.64278
 33
7.12931
  0
3DFACE
  8
0
  6
CONTINUOUS
 62
     4
 10
-7.56889
 20
-6.66551
 30
-5.73892
 11
-7.61931
 21
-3.64278
 31
7.12931
 12
-7.61931
 22
-6.66551
 32
7.12931
 13
-7.61931
 23
-6.66551
 33
7.12931
  0
3DFACE
  8
0
  6
CONTINUOUS
 62
     4
 10
10.0754
 20
-3.64278
 30
-5.73892
 11
10.025
 21
-3.64278
 31
7.12931
 12
10.0754
 22
-6.66551
 32
-5.73892
 13
10.0754
 23
-6.66551
 33
-5.73892
  0
3DFACE
  8
0
  6
CONTINUOUS
 62
     4
 10
10.0754
 20
-6.66551
 30
-5.73892
 11
10.0754
 21
-3.64278
 31
-5.73892
 12
10.025
 22
-3.64278
 32
7.12931
 13
10.025
 23
-3.64278
 33
7.12931
  0
3DFACE
  8
0
  6
CONTINUOUS
 62
     4
 10
10.0754
 20
-6.66551
 30
-5.73892
 11
10.025
 21
-6.66551
 31
7.12931
 12
10.025
 22
-3.64278
 32
7.12931
 13
10.025
 23
-3.64278
 33
7.12931
  0
3DFACE
  8
0
  6
CONTINUOUS
 62
     4
 10
10.0754
 20
-6.66551
 30
-5.73892
 11
10.025
 21
-3.64278
 31
7.12931
 12
10.025
 22
-6.66551
 32
7.12931
 13
10.025
 23
-6.66551
 33
7.12931
  0
3DFACE
  8
0
  6
CONTINUOUS
 62
     4
 10
-7.61931
 20
-3.64278
 30
7.12931
 11
10.025
 21
-6.66551
 31
7.12931
 12
-7.61931
 22
-6.66551
 32
7.12931
 13
-7.61931
 23
-6.66551
 33
7.12931
  0
3DFACE
  8
0
  6
CONTINUOUS
 62
     4
 10
10.025
 20
-6.66551
 30
7.12931
 11
-7.61931
 21
-6.66551
 31
7.12931
 12
-7.61931
 22
-3.64278
 32
7.12931
 13
-7.61931
 23
-3.64278
 33
7.12931
  0
3DFACE
  8
0
  6
CONTINUOUS
 62
     4
 10
-7.61931
 20
-3.64278
 30
7.12931
 11
10.025
 21
-6.66551
 31
7.12931
 12
10.025
 22
-3.64278
 32
7.12931
 13
10.025
 23
-3.64278
 33
7.12931
  0
3DFACE
  8
0
  6
CONTINUOUS
 62
     4
 10
10.025
 20
-3.64278
 30
7.12931
 11
10.025
 21
-6.66551
 31
7.12931
 12
-7.61931
 22
-3.64278
 32
7.12931
 13
-7.61931
 23
-3.64278
 33
7.12931
  0
3DFACE
  8
0
  6
CONTINUOUS
 62
     4
 10
9.0984
 20
-4.66212
 30
-5.76011
 11
9.08126
 21
-4.4262
 31
-5.5272
 12
9.0984
 22
-4.66212
 32
-5.5272
 13
9.0984
 23
-4.66212
 33
-5.5272
  0
3DFACE
  8
0
  6
CONTINUOUS
 62
     4
 10
9.0984
 20
-4.66212
 30
-5.76011
 11
9.0984
 21
-4.66212
 31
-5.5272
 12
9.08126
 22
-4.4262
 32
-5.5272
 13
9.08126
 23
-4.4262
 33
-5.5272
  0
3DFACE
  8
0
  6
CONTINUOUS
 62
     4
 10
9.0984
 20
-4.66212
 30
-5.76011
 11
9.08126
 21
-4.4262
 31
-5.5272
 12
9.08126
 22
-4.4262
 32
-5.76011
 13
9.08126
 23
-4.4262
 33
-5.76011
  0
3DFACE
  8
0
  6
CONTINUOUS
 62
     4
 10
9.08126
 20
-4.4262
 30
-5.76011
 11
9.0984
 21
-4.66212
 31
-5.76011
 12
9.08126
 22
-4.4262
 32
-5.5272
 13
9.08126
 23
-4.4262
 33
-5.5272
  0
3DFACE
  8
0
  6
CONTINUOUS
 62
     4
 10
9.08126
 20
-4.4262
 30
-5.76011
 11
8.10428
 21
-4.4262
 31
-5.5272
 12
9.08126
 22
-4.4262
 32
-5.5272
 13
9.08126
 23
-4.4262
 33
-5.5272
  0
3DFACE
  8
0
  6
CONTINUOUS
 62
     4
 10
9.08126
 20
-4.4262
 30
-5.76011
 11
9.08126
 21
-4.4262
 31
-5.5272
 12
8.10428
 22
-4.4262
 32
-5.5272
 13
8.10428
 23
-4.4262
 33
-5.5272
  0
3DFACE
  8
0
  6
CONTINUOUS
 62
     4
 10
9.08126
 20
-4.4262
 30
-5.76011
 11
8.10428
 21
-4.4262
 31
-5.5272
 12
8.10428
 22
-4.4262
 32
-5.76011
 13
8.10428
 23
-4.4262
 33
-5.76011
  0
3DFACE
  8
0
  6
CONTINUOUS
 62
     4
 10
8.10428
 20
-4.4262
 30
-5.76011
 11
9.08126
 21
-4.4262
 31
-5.76011
 12
8.10428
 22
-4.4262
 32
-5.5272
 13
8.10428
 23
-4.4262
 33
-5.5272
  0
3DFACE
  8
0
  6
CONTINUOUS
 62
     4
 10
8.10428
 20
-4.4262
 30
-5.76011
 11
8.08714
 21
-3.95434
 31
-5.5272
 12
8.10428
 22
-4.4262
 32
-5.5272
 13
8.10428
 23
-4.4262
 33
-5.5272
  0
3DFACE
  8
0
  6
CONTINUOUS
 62
     4
 10
8.10428
 20
-4.4262
 30
-5.76011
 11
8.10428
 21
-4.4262
 31
-5.5272
 12
8.08714
 22
-3.95434
 32
-5.5272
 13
8.08714
 23
-3.95434
 33
-5.5272
  0
3DFACE
  8
0
  6
CONTINUOUS
 62
     4
 10
8.10428
 20
-4.4262
 30
-5.76011
 11
8.08714
 21
-3.95434
 31
-5.5272
 12
8.08714
 22
-3.95434
 32
-5.76011
 13
8.08714
 23
-3.95434
 33
-5.76011
  0
3DFACE
  8
0
  6
CONTINUOUS
 62
     4
 10
8.08714
 20
-3.95434
 30
-5.76011
 11
8.10428
 21
-4.4262
 31
-5.76011
 12
8.08714
 22
-3.95434
 32
-5.5272
 13
8.08714
 23
-3.95434
 33
-5.5272
  0
3DFACE
  8
0
  6
CONTINUOUS
 62
     4
 10
8.08714
 20
-3.95434
 30
-5.76011
 11
6.27028
 21
-3.95434
 31
-5.5272
 12
8.08714
 22
-3.95434
 32
-5.5272
 13
8.08714
 23
-3.95434
 33
-5.5272
  0
3DFACE
  8
0
  6
CONTINUOUS
 62
     4
 10
8.08714
 20
-3.95434
 30
-5.76011
 11
8.08714
 21
-3.95434
 31
-5.5272
 12
6.27028
 22
-3.95434
 32
-5.5272
 13
6.27028
 23
-3.95434
 33
-5.5272
  0
3DFACE
  8
0
  6
CONTINUOUS
 62
     4
 10
8.08714
 20
-3.95434
 30
-5.76011
 11
6.27028
 21
-3.95434
 31
-5.5272
 12
6.27028
 22
-3.95434
 32
-5.76011
 13
6.27028
 23
-3.95434
 33
-5.76011
  0
3DFACE
  8
0
  6
CONTINUOUS
 62
     4
 10
6.27028
 20
-3.95434
 30
-5.76011
 11
8.08714
 21
-3.95434
 31
-5.76011
 12
6.27028
 22
-3.95434
 32
-5.5272
 13
6.27028
 23
-3.95434
 33
-5.5272
  0
3DFACE
  8
0
  6
CONTINUOUS
 62
     4
 10
6.27028
 20
-3.95434
 30
-5.76011
 11
6.27028
 21
-4.4262
 31
-5.5272
 12
6.27028
 22
-3.95434
 32
-5.5272
 13
6.27028
 23
-3.95434
 33
-5.5272
  0
3DFACE
  8
0
  6
CONTINUOUS
 62
     4
 10
6.27028
 20
-3.95434
 30
-5.76011
 11
6.27028
 21
-3.95434
 31
-5.5272
 12
6.27028
 22
-4.4262
 32
-5.5272
 13
6.27028
 23
-4.4262
 33
-5.5272
  0
3DFACE
  8
0
  6
CONTINUOUS
 62
     4
 10
6.27028
 20
-3.95434
 30
-5.76011
 11
6.27028
 21
-4.4262
 31
-5.5272
 12
6.27028
 22
-4.4262
 32
-5.76011
 13
6.27028
 23
-4.4262
 33
-5.76011
  0
3DFACE
  8
0
  6
CONTINUOUS
 62
     4
 10
6.27028
 20
-4.4262
 30
-5.76011
 11
6.27028
 21
-3.95434
 31
-5.76011
 12
6.27028
 22
-4.4262
 32
-5.5272
 13
6.27028
 23
-4.4262
 33
-5.5272
  0
3DFACE
  8
0
  6
CONTINUOUS
 62
     4
 10
6.27028
 20
-4.4262
 30
-5.76011
 11
5.22472
 21
-4.4262
 31
-5.5272
 12
6.27028
 22
-4.4262
 32
-5.5272
 13
6.27028
 23
-4.4262
 33
-5.5272
  0
3DFACE
  8
0
  6
CONTINUOUS
 62
     4
 10
6.27028
 20
-4.4262
 30
-5.76011
 11
6.27028
 21
-4.4262
 31
-5.5272
 12
5.22472
 22
-4.4262
 32
-5.5272
 13
5.22472
 23
-4.4262
 33
-5.5272
  0
3DFACE
  8
0
  6
CONTINUOUS
 62
     4
 10
6.27028
 20
-4.4262
 30
-5.76011
 11
5.22472
 21
-4.4262
 31
-5.5272
 12
5.22472
 22
-4.4262
 32
-5.76011
 13
5.22472
 23
-4.4262
 33
-5.76011
  0
3DFACE
  8
0
  6
CONTINUOUS
 62
     4
 10
5.22472
 20
-4.4262
 30
-5.76011
 11
6.27028
 21
-4.4262
 31
-5.76011
 12
5.22472
 22
-4.4262
 32
-5.5272
 13
5.22472
 23
-4.4262
 33
-5.5272
  0
3DFACE
  8
0
  6
CONTINUOUS
 62
     4
 10
5.22472
 20
-4.4262
 30
-5.76011
 11
5.24186
 21
-4.66212
 31
-5.5272
 12
5.22472
 22
-4.4262
 32
-5.5272
 13
5.22472
 23
-4.4262
 33
-5.5272
  0
3DFACE
  8
0
  6
CONTINUOUS
 62
     4
 10
5.22472
 20
-4.4262
 30
-5.76011
 11
5.22472
 21
-4.4262
 31
-5.5272
 12
5.24186
 22
-4.66212
 32
-5.5272
 13
5.24186
 23
-4.66212
 33
-5.5272
  0
3DFACE
  8
0
  6
CONTINUOUS
 62
     4
 10
5.22472
 20
-4.4262
 30
-5.76011
 11
5.24186
 21
-4.66212
 31
-5.5272
 12
5.24186
 22
-4.66212
 32
-5.76011
 13
5.24186
 23
-4.66212
 33
-5.76011
  0
3DFACE
  8
0
  6
CONTINUOUS
 62
     4
 10
5.24186
 20
-4.66212
 30
-5.76011
 11
5.22472
 21
-4.4262
 31
-5.76011
 12
5.24186
 22
-4.66212
 32
-5.5272
 13
5.24186
 23
-4.66212
 33
-5.5272
  0
3DFACE
  8
0
  6
CONTINUOUS
 62
     4
 10
5.24186
 20
-4.66212
 30
-5.76011
 11
6.25314
 21
-4.66212
 31
-5.5272
 12
5.24186
 22
-4.66212
 32
-5.5272
 13
5.24186
 23
-4.66212
 33
-5.5272
  0
3DFACE
  8
0
  6
CONTINUOUS
 62
     4
 10
5.24186
 20
-4.66212
 30
-5.76011
 11
5.24186
 21
-4.66212
 31
-5.5272
 12
6.25314
 22
-4.66212
 32
-5.5272
 13
6.25314
 23
-4.66212
 33
-5.5272
  0
3DFACE
  8
0
  6
CONTINUOUS
 62
     4
 10
5.24186
 20
-4.66212
 30
-5.76011
 11
6.25314
 21
-4.66212
 31
-5.5272
 12
6.25314
 22
-4.66212
 32
-5.76011
 13
6.25314
 23
-4.66212
 33
-5.76011
  0
3DFACE
  8
0
  6
CONTINUOUS
 62
     4
 10
6.25314
 20
-4.66212
 30
-5.76011
 11
5.24186
 21
-4.66212
 31
-5.76011
 12
6.25314
 22
-4.66212
 32
-5.5272
 13
6.25314
 23
-4.66212
 33
-5.5272
  0
3DFACE
  8
0
  6
CONTINUOUS
 62
     4
 10
6.25314
 20
-4.66212
 30
-5.76011
 11
6.25314
 21
-5.60585
 31
-5.5272
 12
6.25314
 22
-4.66212
 32
-5.5272
 13
6.25314
 23
-4.66212
 33
-5.5272
  0
3DFACE
  8
0
  6
CONTINUOUS
 62
     4
 10
6.25314
 20
-4.66212
 30
-5.76011
 11
6.25314
 21
-4.66212
 31
-5.5272
 12
6.25314
 22
-5.60585
 32
-5.5272
 13
6.25314
 23
-5.60585
 33
-5.5272
  0
3DFACE
  8
0
  6
CONTINUOUS
 62
     4
 10
6.25314
 20
-4.66212
 30
-5.76011
 11
6.25314
 21
-5.60585
 31
-5.5272
 12
6.25314
 22
-5.60585
 32
-5.76011
 13
6.25314
 23
-5.60585
 33
-5.76011
  0
3DFACE
  8
0
  6
CONTINUOUS
 62
     4
 10
6.25314
 20
-5.60585
 30
-5.76011
 11
6.25314
 21
-4.66212
 31
-5.76011
 12
6.25314
 22
-5.60585
 32
-5.5272
 13
6.25314
 23
-5.60585
 33
-5.5272
  0
3DFACE
  8
0
  6
CONTINUOUS
 62
     4
 10
6.25314
 20
-5.60585
 30
-5.76011
 11
8.08714
 21
-5.60585
 31
-5.5272
 12
6.25314
 22
-5.60585
 32
-5.5272
 13
6.25314
 23
-5.60585
 33
-5.5272
  0
3DFACE
  8
0
  6
CONTINUOUS
 62
     4
 10
6.25314
 20
-5.60585
 30
-5.76011
 11
6.25314
 21
-5.60585
 31
-5.5272
 12
8.08714
 22
-5.60585
 32
-5.5272
 13
8.08714
 23
-5.60585
 33
-5.5272
  0
3DFACE
  8
0
  6
CONTINUOUS
 62
     4
 10
6.25314
 20
-5.60585
 30
-5.76011
 11
8.08714
 21
-5.60585
 31
-5.5272
 12
8.08714
 22
-5.60585
 32
-5.76011
 13
8.08714
 23
-5.60585
 33
-5.76011
  0
3DFACE
  8
0
  6
CONTINUOUS
 62
     4
 10
8.08714
 20
-5.60585
 30
-5.76011
 11
6.25314
 21
-5.60585
 31
-5.76011
 12
8.08714
 22
-5.60585
 32
-5.5272
 13
8.08714
 23
-5.60585
 33
-5.5272
  0
3DFACE
  8
0
  6
CONTINUOUS
 62
     4
 10
8.08714
 20
-5.60585
 30
-5.76011
 11
8.08714
 21
-4.66212
 31
-5.5272
 12
8.08714
 22
-5.60585
 32
-5.5272
 13
8.08714
 23
-5.60585
 33
-5.5272
  0
3DFACE
  8
0
  6
CONTINUOUS
 62
     4
 10
8.08714
 20
-5.60585
 30
-5.76011
 11
8.08714
 21
-5.60585
 31
-5.5272
 12
8.08714
 22
-4.66212
 32
-5.5272
 13
8.08714
 23
-4.66212
 33
-5.5272
  0
3DFACE
  8
0
  6
CONTINUOUS
 62
     4
 10
8.08714
 20
-5.60585
 30
-5.76011
 11
8.08714
 21
-4.66212
 31
-5.5272
 12
8.08714
 22
-4.66212
 32
-5.76011
 13
8.08714
 23
-4.66212
 33
-5.76011
  0
3DFACE
  8
0
  6
CONTINUOUS
 62
     4
 10
8.08714
 20
-4.66212
 30
-5.76011
 11
8.08714
 21
-5.60585
 31
-5.76011
 12
8.08714
 22
-4.66212
 32
-5.5272
 13
8.08714
 23
-4.66212
 33
-5.5272
  0
3DFACE
  8
0
  6
CONTINUOUS
 62
     4
 10
8.08714
 20
-4.66212
 30
-5.76011
 11
9.0984
 21
-4.66212
 31
-5.5272
 12
8.08714
 22
-4.66212
 32
-5.5272
 13
8.08714
 23
-4.66212
 33
-5.5272
  0
3DFACE
  8
0
  6
CONTINUOUS
 62
     4
 10
8.08714
 20
-4.66212
 30
-5.76011
 11
8.08714
 21
-4.66212
 31
-5.5272
 12
9.0984
 22
-4.66212
 32
-5.5272
 13
9.0984
 23
-4.66212
 33
-5.5272
  0
3DFACE
  8
0
  6
CONTINUOUS
 62
     4
 10
8.08714
 20
-4.66212
 30
-5.76011
 11
9.0984
 21
-4.66212
 31
-5.5272
 12
9.0984
 22
-4.66212
 32
-5.76011
 13
9.0984
 23
-4.66212
 33
-5.76011
  0
3DFACE
  8
0
  6
CONTINUOUS
 62
     4
 10
8.08714
 20
-4.66212
 30
-5.76011
 11
9.0984
 21
-4.66212
 31
-5.76011
 12
9.0984
 22
-4.66212
 32
-5.5272
 13
9.0984
 23
-4.66212
 33
-5.5272
  0
3DFACE
  8
0
  6
CONTINUOUS
 62
     4
 10
10.0754
 20
-3.64278
 30
-5.73892
 11
9.08126
 21
-4.4262
 31
-5.76011
 12
9.0984
 22
-4.66212
 32
-5.76011
 13
9.0984
 23
-4.66212
 33
-5.76011
  0
3DFACE
  8
0
  6
CONTINUOUS
 62
     4
 10
9.08126
 20
-4.4262
 30
-5.76011
 11
9.0984
 21
-4.66212
 31
-5.76011
 12
10.0754
 22
-3.64278
 32
-5.73892
 13
10.0754
 23
-3.64278
 33
-5.73892
  0
3DFACE
  8
0
  6
CONTINUOUS
 62
     4
 10
10.0754
 20
-6.66551
 30
-5.73892
 11
9.0984
 21
-4.66212
 31
-5.76011
 12
10.0754
 22
-3.64278
 32
-5.73892
 13
10.0754
 23
-3.64278
 33
-5.73892
  0
3DFACE
  8
0
  6
CONTINUOUS
 62
     4
 10
10.0754
 20
-3.64278
 30
-5.73892
 11
9.0984
 21
-4.66212
 31
-5.76011
 12
10.0754
 22
-6.66551
 32
-5.73892
 13
10.0754
 23
-6.66551
 33
-5.73892
  0
3DFACE
  8
0
  6
CONTINUOUS
 62
     4
 10
10.0754
 20
-6.66551
 30
-5.73892
 11
8.08714
 21
-4.66212
 31
-5.76011
 12
9.0984
 22
-4.66212
 32
-5.76011
 13
9.0984
 23
-4.66212
 33
-5.76011
  0
3DFACE
  8
0
  6
CONTINUOUS
 62
     4
 10
8.08714
 20
-4.66212
 30
-5.76011
 11
9.0984
 21
-4.66212
 31
-5.76011
 12
10.0754
 22
-6.66551
 32
-5.73892
 13
10.0754
 23
-6.66551
 33
-5.73892
  0
3DFACE
  8
0
  6
CONTINUOUS
 62
     4
 10
10.0754
 20
-6.66551
 30
-5.73892
 11
8.08714
 21
-5.60585
 31
-5.76011
 12
8.08714
 22
-4.66212
 32
-5.76011
 13
8.08714
 23
-4.66212
 33
-5.76011
  0
3DFACE
  8
0
  6
CONTINUOUS
 62
     4
 10
8.08714
 20
-4.66212
 30
-5.76011
 11
8.08714
 21
-5.60585
 31
-5.76011
 12
10.0754
 22
-6.66551
 32
-5.73892
 13
10.0754
 23
-6.66551
 33
-5.73892
  0
3DFACE
  8
0
  6
CONTINUOUS
 62
     4
 10
10.0754
 20
-3.64278
 30
-5.73892
 11
8.10428
 21
-4.4262
 31
-5.76011
 12
9.08126
 22
-4.4262
 32
-5.76011
 13
9.08126
 23
-4.4262
 33
-5.76011
  0
3DFACE
  8
0
  6
CONTINUOUS
 62
     4
 10
8.10428
 20
-4.4262
 30
-5.76011
 11
9.08126
 21
-4.4262
 31
-5.76011
 12
10.0754
 22
-3.64278
 32
-5.73892
 13
10.0754
 23
-3.64278
 33
-5.73892
  0
3DFACE
  8
0
  6
CONTINUOUS
 62
     4
 10
10.0754
 20
-3.64278
 30
-5.73892
 11
8.08714
 21
-3.95434
 31
-5.76011
 12
8.10428
 22
-4.4262
 32
-5.76011
 13
8.10428
 23
-4.4262
 33
-5.76011
  0
3DFACE
  8
0
  6
CONTINUOUS
 62
     4
 10
8.08714
 20
-3.95434
 30
-5.76011
 11
8.10428
 21
-4.4262
 31
-5.76011
 12
10.0754
 22
-3.64278
 32
-5.73892
 13
10.0754
 23
-3.64278
 33
-5.73892
  0
3DFACE
  8
0
  6
CONTINUOUS
 62
     4
 10
-7.56889
 20
-3.64278
 30
-5.73892
 11
8.08714
 21
-3.95434
 31
-5.76011
 12
10.0754
 22
-3.64278
 32
-5.73892
 13
10.0754
 23
-3.64278
 33
-5.73892
  0
3DFACE
  8
0
  6
CONTINUOUS
 62
     4
 10
10.0754
 20
-3.64278
 30
-5.73892
 11
8.08714
 21
-3.95434
 31
-5.76011
 12
-7.56889
 22
-3.64278
 32
-5.73892
 13
-7.56889
 23
-3.64278
 33
-5.73892
  0
3DFACE
  8
0
  6
CONTINUOUS
 62
     4
 10
-7.56889
 20
-3.64278
 30
-5.73892
 11
6.27028
 21
-3.95434
 31
-5.76011
 12
8.08714
 22
-3.95434
 32
-5.76011
 13
8.08714
 23
-3.95434
 33
-5.76011
  0
3DFACE
  8
0
  6
CONTINUOUS
 62
     4
 10
6.27028
 20
-3.95434
 30
-5.76011
 11
8.08714
 21
-3.95434
 31
-5.76011
 12
-7.56889
 22
-3.64278
 32
-5.73892
 13
-7.56889
 23
-3.64278
 33
-5.73892
  0
3DFACE
  8
0
  6
CONTINUOUS
 62
     4
 10
-7.56889
 20
-3.64278
 30
-5.73892
 11
6.27028
 21
-4.4262
 31
-5.76011
 12
6.27028
 22
-3.95434
 32
-5.76011
 13
6.27028
 23
-3.95434
 33
-5.76011
  0
3DFACE
  8
0
  6
CONTINUOUS
 62
     4
 10
6.27028
 20
-4.4262
 30
-5.76011
 11
6.27028
 21
-3.95434
 31
-5.76011
 12
-7.56889
 22
-3.64278
 32
-5.73892
 13
-7.56889
 23
-3.64278
 33
-5.73892
  0
3DFACE
  8
0
  6
CONTINUOUS
 62
     4
 10
-7.56889
 20
-3.64278
 30
-5.73892
 11
5.22472
 21
-4.4262
 31
-5.76011
 12
6.27028
 22
-4.4262
 32
-5.76011
 13
6.27028
 23
-4.4262
 33
-5.76011
  0
3DFACE
  8
0
  6
CONTINUOUS
 62
     4
 10
5.22472
 20
-4.4262
 30
-5.76011
 11
6.27028
 21
-4.4262
 31
-5.76011
 12
-7.56889
 22
-3.64278
 32
-5.73892
 13
-7.56889
 23
-3.64278
 33
-5.73892
  0
3DFACE
  8
0
  6
CONTINUOUS
 62
     4
 10
-7.56889
 20
-3.64278
 30
-5.73892
 11
5.24186
 21
-4.66212
 31
-5.76011
 12
5.22472
 22
-4.4262
 32
-5.76011
 13
5.22472
 23
-4.4262
 33
-5.76011
  0
3DFACE
  8
0
  6
CONTINUOUS
 62
     4
 10
5.24186
 20
-4.66212
 30
-5.76011
 11
5.22472
 21
-4.4262
 31
-5.76011
 12
-7.56889
 22
-3.64278
 32
-5.73892
 13
-7.56889
 23
-3.64278
 33
-5.73892
  0
3DFACE
  8
0
  6
CONTINUOUS
 62
     4
 10
-7.56889
 20
-6.66551
 30
-5.73892
 11
5.24186
 21
-4.66212
 31
-5.76011
 12
-7.56889
 22
-3.64278
 32
-5.73892
 13
-7.56889
 23
-3.64278
 33
-5.73892
  0
3DFACE
  8
0
  6
CONTINUOUS
 62
     4
 10
-7.56889
 20
-3.64278
 30
-5.73892
 11
5.24186
 21
-4.66212
 31
-5.76011
 12
-7.56889
 22
-6.66551
 32
-5.73892
 13
-7.56889
 23
-6.66551
 33
-5.73892
  0
3DFACE
  8
0
  6
CONTINUOUS
 62
     4
 10
-7.56889
 20
-6.66551
 30
-5.73892
 11
6.25314
 21
-4.66212
 31
-5.76011
 12
5.24186
 22
-4.66212
 32
-5.76011
 13
5.24186
 23
-4.66212
 33
-5.76011
  0
3DFACE
  8
0
  6
CONTINUOUS
 62
     4
 10
6.25314
 20
-4.66212
 30
-5.76011
 11
5.24186
 21
-4.66212
 31
-5.76011
 12
-7.56889
 22
-6.66551
 32
-5.73892
 13
-7.56889
 23
-6.66551
 33
-5.73892
  0
3DFACE
  8
0
  6
CONTINUOUS
 62
     4
 10
-7.56889
 20
-6.66551
 30
-5.73892
 11
6.25314
 21
-5.60585
 31
-5.76011
 12
6.25314
 22
-4.66212
 32
-5.76011
 13
6.25314
 23
-4.66212
 33
-5.76011
  0
3DFACE
  8
0
  6
CONTINUOUS
 62
     4
 10
6.25314
 20
-5.60585
 30
-5.76011
 11
6.25314
 21
-4.66212
 31
-5.76011
 12
-7.56889
 22
-6.66551
 32
-5.73892
 13
-7.56889
 23
-6.66551
 33
-5.73892
  0
3DFACE
  8
0
  6
CONTINUOUS
 62
     4
 10
-7.56889
 20
-6.66551
 30
-5.73892
 11
8.08714
 21
-5.60585
 31
-5.76011
 12
10.0754
 22
-6.66551
 32
-5.73892
 13
10.0754
 23
-6.66551
 33
-5.73892
  0
3DFACE
  8
0
  6
CONTINUOUS
 62
     4
 10
10.0754
 20
-6.66551
 30
-5.73892
 11
8.08714
 21
-5.60585
 31
-5.76011
 12
-7.56889
 22
-6.66551
 32
-5.73892
 13
-7.56889
 23
-6.66551
 33
-5.73892
  0
3DFACE
  8
0
  6
CONTINUOUS
 62
     4
 10
-7.56889
 20
-6.66551
 30
-5.73892
 11
8.08714
 21
-5.60585
 31
-5.76011
 12
6.25314
 22
-5.60585
 32
-5.76011
 13
6.25314
 23
-5.60585
 33
-5.76011
  0
3DFACE
  8
0
  6
CONTINUOUS
 62
     4
 10
8.08714
 20
-5.60585
 30
-5.76011
 11
6.25314
 21
-5.60585
 31
-5.76011
 12
-7.56889
 22
-6.66551
 32
-5.73892
 13
-7.56889
 23
-6.66551
 33
-5.73892
  0
3DFACE
  8
0
  6
CONTINUOUS
 62
     4
 10
8.08714
 20
-3.95434
 30
-5.5272
 11
6.27028
 21
-4.4262
 31
-5.5272
 12
6.27028
 22
-3.95434
 32
-5.5272
 13
6.27028
 23
-3.95434
 33
-5.5272
  0
3DFACE
  8
0
  6
CONTINUOUS
 62
     4
 10
6.27028
 20
-3.95434
 30
-5.5272
 11
6.27028
 21
-4.4262
 31
-5.5272
 12
8.08714
 22
-3.95434
 32
-5.5272
 13
8.08714
 23
-3.95434
 33
-5.5272
  0
3DFACE
  8
0
  6
CONTINUOUS
 62
     4
 10
8.10428
 20
-4.4262
 30
-5.5272
 11
6.27028
 21
-4.4262
 31
-5.5272
 12
8.08714
 22
-3.95434
 32
-5.5272
 13
8.08714
 23
-3.95434
 33
-5.5272
  0
3DFACE
  8
0
  6
CONTINUOUS
 62
     4
 10
8.08714
 20
-3.95434
 30
-5.5272
 11
6.27028
 21
-4.4262
 31
-5.5272
 12
8.10428
 22
-4.4262
 32
-5.5272
 13
8.10428
 23
-4.4262
 33
-5.5272
  0
3DFACE
  8
0
  6
CONTINUOUS
 62
     4
 10
6.25314
 20
-4.66212
 30
-5.5272
 11
8.08714
 21
-5.60585
 31
-5.5272
 12
6.25314
 22
-5.60585
 32
-5.5272
 13
6.25314
 23
-5.60585
 33
-5.5272
  0
3DFACE
  8
0
  6
CONTINUOUS
 62
     4
 10
6.25314
 20
-5.60585
 30
-5.5272
 11
8.08714
 21
-5.60585
 31
-5.5272
 12
6.25314
 22
-4.66212
 32
-5.5272
 13
6.25314
 23
-4.66212
 33
-5.5272
  0
3DFACE
  8
0
  6
CONTINUOUS
 62
     4
 10
6.25314
 20
-4.66212
 30
-5.5272
 11
8.08714
 21
-4.66212
 31
-5.5272
 12
8.08714
 22
-5.60585
 32
-5.5272
 13
8.08714
 23
-5.60585
 33
-5.5272
  0
3DFACE
  8
0
  6
CONTINUOUS
 62
     4
 10
8.08714
 20
-5.60585
 30
-5.5272
 11
8.08714
 21
-4.66212
 31
-5.5272
 12
6.25314
 22
-4.66212
 32
-5.5272
 13
6.25314
 23
-4.66212
 33
-5.5272
  0
ENDSEC
  0
EOF
