  0
SECTION
  2
ENTITIES
  0
3DFACE
  8
0
  6
CONTINUOUS
 62
     4
 10
99.2718
 20
604.429
 30
-19.9944
 11
72.9075
 21
597.87
 31
-1.54138
 12
104.852
 22
605.353
 32
-29.249
 13
104.852
 23
605.353
 33
-29.249
  0
3DFACE
  8
0
  6
CONTINUOUS
 62
     4
 10
99.2718
 20
604.429
 30
-19.9944
 11
72.9075
 21
597.87
 31
-1.54138
 12
87.8237
 22
608.122
 32
63.425
 13
87.8237
 23
608.122
 33
63.425
  0
3DFACE
  8
0
  6
CONTINUOUS
 62
     4
 10
87.8237
 20
608.122
 30
63.425
 11
72.9075
 21
597.87
 31
-1.54138
 12
69.5948
 22
600.058
 32
35.5347
 13
69.5948
 23
600.058
 33
35.5347
  0
3DFACE
  8
0
  6
CONTINUOUS
 62
     4
 10
37.6934
 20
585.35
 30
-20.22
 11
24.7686
 21
581.347
 31
-20.2674
 12
12.8668
 22
576.851
 32
-29.5865
 13
12.8668
 23
576.851
 33
-29.5865
  0
3DFACE
  8
0
  6
CONTINUOUS
 62
     4
 10
37.6934
 20
585.35
 30
-20.22
 11
24.7686
 21
581.347
 31
-20.2674
 12
47.7674
 22
590.243
 32
0.221938
 13
47.7674
 23
590.243
 33
0.221938
  0
3DFACE
  8
0
  6
CONTINUOUS
 62
     4
 10
47.7674
 20
590.243
 30
0.221938
 11
24.7686
 21
581.347
 31
-20.2674
 12
52.1208
 22
592.239
 32
7.65658
 13
52.1208
 23
592.239
 33
7.65658
  0
3DFACE
  8
0
  6
CONTINUOUS
 62
     4
 10
37.6934
 20
585.35
 30
-20.22
 11
12.8668
 21
576.851
 31
-29.5865
 12
46.9197
 22
587.886
 32
-23.8966
 13
46.9197
 23
587.886
 33
-23.8966
  0
3DFACE
  8
0
  6
CONTINUOUS
 62
     4
 10
46.9197
 20
587.886
 30
-23.8966
 11
12.8668
 21
576.851
 31
-29.5865
 12
47.0755
 22
587.452
 32
-29.4605
 13
47.0755
 23
587.452
 33
-29.4605
  0
3DFACE
  8
0
  6
CONTINUOUS
 62
     4
 10
24.7686
 20
581.347
 30
-20.2674
 11
12.8668
 21
576.851
 31
-29.5865
 12
12.7086
 22
577.288
 32
-24.0216
 13
12.7086
 23
577.288
 33
-24.0216
  0
3DFACE
  8
0
  6
CONTINUOUS
 62
     4
 10
52.1208
 20
592.239
 30
7.65658
 11
24.7686
 21
581.347
 31
-20.2674
 12
79.5628
 22
605.241
 32
59.6859
 13
79.5628
 23
605.241
 33
59.6859
  0
3DFACE
  8
0
  6
CONTINUOUS
 62
     4
 10
69.5948
 20
600.058
 30
35.5347
 11
87.8237
 21
608.122
 31
63.425
 12
79.5628
 22
605.241
 32
59.6859
 13
79.5628
 23
605.241
 33
59.6859
  0
3DFACE
  8
0
  6
CONTINUOUS
 62
     4
 10
99.2718
 20
604.429
 30
-19.9944
 11
87.8237
 21
608.122
 31
63.425
 12
93.2474
 22
609.482
 32
59.7357
 13
93.2474
 23
609.482
 33
59.7357
  0
3DFACE
  8
0
  6
CONTINUOUS
 62
     4
 10
104.852
 20
605.353
 30
-29.249
 11
99.2718
 21
604.429
 31
-19.9944
 12
105.457
 22
606.024
 32
-23.6817
 13
105.457
 23
606.024
 33
-23.6817
  0
3DFACE
  8
0
  6
CONTINUOUS
 62
     4
 10
73.4237
 20
596.421
 30
-20.0882
 11
63.0396
 21
592.397
 31
-29.4014
 12
104.852
 22
605.353
 32
-29.249
 13
104.852
 23
605.353
 33
-29.249
  0
3DFACE
  8
0
  6
CONTINUOUS
 62
     4
 10
73.4237
 20
596.421
 30
-20.0882
 11
63.0396
 21
592.397
 31
-29.4014
 12
62.9346
 22
592.69
 32
-25.6936
 13
62.9346
 23
592.69
 33
-25.6936
  0
3DFACE
  8
0
  6
CONTINUOUS
 62
     4
 10
73.4237
 20
596.421
 30
-20.0882
 11
104.852
 21
605.353
 31
-29.249
 12
72.9075
 22
597.87
 32
-1.54138
 13
72.9075
 23
597.87
 33
-1.54138
  0
3DFACE
  8
0
  6
CONTINUOUS
 62
     4
 10
69.5948
 20
600.058
 30
35.5347
 11
72.9075
 21
597.87
 31
-1.54138
 12
71.1286
 22
598.127
 32
7.72446
 13
71.1286
 23
598.127
 33
7.72446
  0
3DFACE
  8
0
  6
CONTINUOUS
 62
     4
 10
69.5948
 20
600.058
 30
35.5347
 11
79.5628
 21
605.241
 31
59.6859
 12
52.1208
 22
592.239
 32
7.65658
 13
52.1208
 23
592.239
 33
7.65658
  0
3DFACE
  8
0
  6
CONTINUOUS
 62
     4
 10
52.1208
 20
592.239
 30
7.65658
 11
72.0329
 21
597.599
 31
-1.54578
 12
70.2535
 22
597.856
 32
7.72202
 13
70.2535
 23
597.856
 33
7.72202
  0
3DFACE
  8
0
  6
CONTINUOUS
 62
     4
 10
52.1208
 20
592.239
 30
7.65658
 11
72.0329
 21
597.599
 31
-1.54578
 12
47.7674
 22
590.243
 32
0.221938
 13
47.7674
 23
590.243
 33
0.221938
  0
3DFACE
  8
0
  6
CONTINUOUS
 62
     4
 10
-11.5271
 20
576.191
 30
49.8058
 11
-37.9325
 21
567.845
 31
47.855
 12
3.23228
 22
581.889
 32
62.8439
 13
3.23228
 23
581.889
 33
62.8439
  0
3DFACE
  8
0
  6
CONTINUOUS
 62
     4
 10
-11.5271
 20
576.191
 30
49.8058
 11
-37.9325
 21
567.845
 31
47.855
 12
-63.3621
 22
556.755
 32
10.6729
 13
-63.3621
 23
556.755
 33
10.6729
  0
3DFACE
  8
0
  6
CONTINUOUS
 62
     4
 10
-7.3056
 20
573.633
 30
5.26871
 11
20.006
 21
581.941
 31
3.55763
 12
0.421046
 22
573.298
 32
-26.1912
 13
0.421046
 23
573.298
 33
-26.1912
  0
3DFACE
  8
0
  6
CONTINUOUS
 62
     4
 10
-7.3056
 20
573.633
 30
5.26871
 11
20.006
 21
581.941
 31
3.55763
 12
30.3325
 22
585.943
 32
12.8704
 13
30.3325
 23
585.943
 33
12.8704
  0
3DFACE
  8
0
  6
CONTINUOUS
 62
     4
 10
-7.3056
 20
573.633
 30
5.26871
 11
30.3325
 21
585.943
 31
12.8704
 12
-17.2444
 22
571.041
 32
10.8424
 13
-17.2444
 23
571.041
 33
10.8424
  0
3DFACE
  8
0
  6
CONTINUOUS
 62
     4
 10
20.006
 20
581.941
 30
3.55763
 11
30.3325
 21
585.943
 31
12.8704
 12
30.435
 22
585.654
 32
9.16158
 13
30.435
 23
585.654
 33
9.16158
  0
3DFACE
  8
0
  6
CONTINUOUS
 62
     4
 10
0.421046
 20
573.298
 30
-26.1912
 11
20.006
 21
581.941
 31
3.55763
 12
11.5547
 22
577.39
 32
-18.7336
 13
11.5547
 23
577.39
 33
-18.7336
  0
3DFACE
  8
0
  6
CONTINUOUS
 62
     4
 10
-22.3614
 20
566.558
 30
-22.5654
 11
-27.397
 21
564.197
 31
-31.8591
 12
0.421046
 22
573.298
 32
-26.1912
 13
0.421046
 23
573.298
 33
-26.1912
  0
3DFACE
  8
0
  6
CONTINUOUS
 62
     4
 10
-22.3614
 20
566.558
 30
-22.5654
 11
-27.397
 21
564.197
 31
-31.8591
 12
-62.0368
 22
555.395
 32
-9.72755
 13
-62.0368
 23
555.395
 33
-9.72755
  0
3DFACE
  8
0
  6
CONTINUOUS
 62
     4
 10
-62.0368
 20
555.395
 30
-9.72755
 11
-27.397
 21
564.197
 31
-31.8591
 12
-51.1429
 22
557.804
 32
-20.8172
 13
-51.1429
 23
557.804
 33
-20.8172
  0
3DFACE
  8
0
  6
CONTINUOUS
 62
     4
 10
-37.9325
 20
567.845
 30
47.855
 11
-63.3621
 21
556.755
 31
10.6729
 12
-54.0997
 22
561.388
 32
31.0993
 13
-54.0997
 23
561.388
 33
31.0993
  0
3DFACE
  8
0
  6
CONTINUOUS
 62
     4
 10
3.23228
 20
581.889
 30
62.8439
 11
-37.9325
 21
567.845
 31
47.855
 12
-16.32
 22
575.509
 32
59.0619
 13
-16.32
 23
575.509
 33
59.0619
  0
3DFACE
  8
0
  6
CONTINUOUS
 62
     4
 10
18.5079
 20
586.136
 30
57.3347
 11
26.4831
 21
587.318
 31
42.5259
 12
30.501
 22
590.176
 32
61.0898
 13
30.501
 23
590.176
 33
61.0898
  0
3DFACE
  8
0
  6
CONTINUOUS
 62
     4
 10
18.5079
 20
586.136
 30
57.3347
 11
26.4831
 21
587.318
 31
42.5259
 12
19.7302
 22
585.067
 32
40.6474
 13
19.7302
 23
585.067
 33
40.6474
  0
3DFACE
  8
0
  6
CONTINUOUS
 62
     4
 10
18.5079
 20
586.136
 30
57.3347
 11
30.501
 21
590.176
 31
61.0898
 12
2.40754
 22
581.123
 32
57.0046
 13
2.40754
 23
581.123
 33
57.0046
  0
3DFACE
  8
0
  6
CONTINUOUS
 62
     4
 10
-11.5271
 20
576.191
 30
49.8058
 11
3.23228
 21
581.889
 31
62.8439
 12
2.40754
 22
581.123
 32
57.0046
 13
2.40754
 23
581.123
 33
57.0046
  0
3DFACE
  8
0
  6
CONTINUOUS
 62
     4
 10
2.40754
 20
581.123
 30
57.0046
 11
3.23228
 21
581.889
 31
62.8439
 12
19.0577
 22
586.956
 32
64.7566
 13
19.0577
 23
586.956
 33
64.7566
  0
3DFACE
  8
0
  6
CONTINUOUS
 62
     4
 10
2.40754
 20
581.123
 30
57.0046
 11
19.0577
 21
586.956
 31
64.7566
 12
30.501
 22
590.176
 32
61.0898
 13
30.501
 23
590.176
 33
61.0898
  0
3DFACE
  8
0
  6
CONTINUOUS
 62
     4
 10
-11.5271
 20
576.191
 30
49.8058
 11
-63.3621
 21
556.755
 31
10.6729
 12
-27.7925
 22
570.016
 32
36.7628
 13
-27.7925
 23
570.016
 33
36.7628
  0
3DFACE
  8
0
  6
CONTINUOUS
 62
     4
 10
-27.7925
 20
570.016
 30
36.7628
 11
-63.3621
 21
556.755
 31
10.6729
 12
-34.2891
 22
567.045
 32
25.6067
 13
-34.2891
 23
567.045
 33
25.6067
  0
3DFACE
  8
0
  6
CONTINUOUS
 62
     4
 10
-34.2891
 20
567.045
 30
25.6067
 11
-63.3621
 21
556.755
 31
10.6729
 12
-37.554
 22
564.431
 32
7.05692
 13
-37.554
 23
564.431
 33
7.05692
  0
3DFACE
  8
0
  6
CONTINUOUS
 62
     4
 10
-37.554
 20
564.431
 30
7.05692
 11
-63.3621
 21
556.755
 31
10.6729
 12
-38.6522
 22
562.801
 32
-7.78697
 13
-38.6522
 23
562.801
 33
-7.78697
  0
3DFACE
  8
0
  6
CONTINUOUS
 62
     4
 10
-38.6522
 20
562.801
 30
-7.78697
 11
-63.3621
 21
556.755
 31
10.6729
 12
-30.782
 22
564.273
 32
-18.8889
 13
-30.782
 23
564.273
 33
-18.8889
  0
3DFACE
  8
0
  6
CONTINUOUS
 62
     4
 10
-22.3614
 20
566.558
 30
-22.5654
 11
-62.0368
 21
555.395
 31
-9.72755
 12
-30.782
 22
564.273
 32
-18.8889
 13
-30.782
 23
564.273
 33
-18.8889
  0
3DFACE
  8
0
  6
CONTINUOUS
 62
     4
 10
-30.782
 20
564.273
 30
-18.8889
 11
-62.0368
 21
555.395
 31
-9.72755
 12
-63.3621
 22
556.755
 32
10.6729
 13
-63.3621
 23
556.755
 33
10.6729
  0
3DFACE
  8
0
  6
CONTINUOUS
 62
     4
 10
-22.3614
 20
566.558
 30
-22.5654
 11
0.421046
 21
573.298
 31
-26.1912
 12
-12.5868
 22
569.749
 32
-20.6761
 13
-12.5868
 23
569.749
 33
-20.6761
  0
3DFACE
  8
0
  6
CONTINUOUS
 62
     4
 10
-12.5868
 20
569.749
 30
-20.6761
 11
0.421046
 21
573.298
 31
-26.1912
 12
-10.4738
 22
570.888
 32
-15.1034
 13
-10.4738
 23
570.888
 33
-15.1034
  0
3DFACE
  8
0
  6
CONTINUOUS
 62
     4
 10
-7.3056
 20
573.633
 30
5.26871
 11
0.421046
 21
573.298
 31
-26.1912
 12
-10.4738
 22
570.888
 32
-15.1034
 13
-10.4738
 23
570.888
 33
-15.1034
  0
3DFACE
  8
0
  6
CONTINUOUS
 62
     4
 10
-7.3056
 20
573.633
 30
5.26871
 11
-17.2444
 21
571.041
 31
10.8424
 12
-17.28
 22
570.628
 32
6.18674
 13
-17.28
 23
570.628
 33
6.18674
  0
3DFACE
  8
0
  6
CONTINUOUS
 62
     4
 10
-119.388
 20
536.981
 30
-17.3565
 11
-131.93
 21
532.129
 31
-28.5356
 12
-132.034
 22
532.421
 32
-24.8244
 13
-132.034
 23
532.421
 33
-24.8244
  0
3DFACE
  8
0
  6
CONTINUOUS
 62
     4
 10
-119.388
 20
536.981
 30
-17.3565
 11
-131.93
 21
532.129
 31
-28.5356
 12
-97.4121
 22
543.629
 32
-19.1326
 13
-97.4121
 23
543.629
 33
-19.1326
  0
3DFACE
  8
0
  6
CONTINUOUS
 62
     4
 10
-97.4121
 20
543.629
 30
-19.1326
 11
-119.388
 21
536.981
 31
-17.3565
 12
-101.694
 22
548.571
 32
53.1835
 13
-101.694
 23
548.571
 33
53.1835
  0
3DFACE
  8
0
  6
CONTINUOUS
 62
     4
 10
-97.4121
 20
543.629
 30
-19.1326
 11
-101.694
 21
548.571
 31
53.1835
 12
-75.9446
 22
556.392
 32
51.425
 13
-75.9446
 23
556.392
 33
51.425
  0
3DFACE
  8
0
  6
CONTINUOUS
 62
     4
 10
-75.9446
 20
556.392
 30
51.425
 11
-101.694
 21
548.571
 31
53.1835
 12
-109.357
 22
546.518
 32
56.8669
 13
-109.357
 23
546.518
 33
56.8669
  0
3DFACE
  8
0
  6
CONTINUOUS
 62
     4
 10
-75.9446
 20
556.392
 30
51.425
 11
-109.357
 21
546.518
 31
56.8669
 12
-106.49
 22
547.894
 32
62.4425
 13
-106.49
 23
547.894
 33
62.4425
  0
3DFACE
  8
0
  6
CONTINUOUS
 62
     4
 10
-75.9446
 20
556.392
 30
51.425
 11
-106.49
 21
547.894
 31
62.4425
 12
-64.1058
 22
560.865
 32
60.7431
 13
-64.1058
 23
560.865
 33
60.7431
  0
3DFACE
  8
0
  6
CONTINUOUS
 62
     4
 10
-75.9446
 20
556.392
 30
51.425
 11
-64.1058
 21
560.865
 31
60.7431
 12
-64.7582
 22
560.338
 32
57.03
 13
-64.7582
 23
560.338
 33
57.03
  0
3DFACE
  8
0
  6
CONTINUOUS
 62
     4
 10
-97.4121
 20
543.629
 30
-19.1326
 11
-131.93
 21
532.129
 31
-28.5356
 12
-86.7272
 22
546.616
 32
-22.8018
 13
-86.7272
 23
546.616
 33
-22.8018
  0
3DFACE
  8
0
  6
CONTINUOUS
 62
     4
 10
-86.7272
 20
546.616
 30
-22.8018
 11
-131.93
 21
532.129
 31
-28.5356
 12
-88.0832
 22
545.713
 32
-28.374
 13
-88.0832
 23
545.713
 33
-28.374
  0
3DFACE
  8
0
  6
CONTINUOUS
 62
     4
 10
-230.121
 20
502.509
 30
-19.6199
 11
-248.007
 21
496.163
 31
-28.9609
 12
-220.791
 22
504.596
 32
-28.8608
 13
-220.791
 23
504.596
 33
-28.8608
  0
3DFACE
  8
0
  6
CONTINUOUS
 62
     4
 10
-230.121
 20
502.509
 30
-19.6199
 11
-248.007
 21
496.163
 31
-28.9609
 12
-238.438
 22
499.934
 32
-19.6507
 13
-238.438
 23
499.934
 33
-19.6507
  0
3DFACE
  8
0
  6
CONTINUOUS
 62
     4
 10
-238.438
 20
499.934
 30
-19.6507
 11
-248.007
 21
496.163
 31
-28.9609
 12
-247.356
 22
496.69
 32
-25.2448
 13
-247.356
 23
496.69
 33
-25.2448
  0
3DFACE
  8
0
  6
CONTINUOUS
 62
     4
 10
-230.121
 20
502.509
 30
-19.6199
 11
-238.438
 21
499.934
 31
-19.6507
 12
-219.336
 22
512.285
 32
54.6094
 13
-219.336
 23
512.285
 33
54.6094
  0
3DFACE
  8
0
  6
CONTINUOUS
 62
     4
 10
-194.543
 20
520.449
 30
60.267
 11
-219.336
 21
512.285
 31
54.6094
 12
-215.792
 22
511.767
 32
36.0752
 13
-215.792
 23
511.767
 33
36.0752
  0
3DFACE
  8
0
  6
CONTINUOUS
 62
     4
 10
-194.543
 20
520.449
 30
60.267
 11
-219.336
 21
512.285
 31
54.6094
 12
-227.703
 22
509.848
 32
56.4337
 13
-227.703
 23
509.848
 33
56.4337
  0
3DFACE
  8
0
  6
CONTINUOUS
 62
     4
 10
-194.543
 20
520.449
 30
60.267
 11
-227.703
 21
509.848
 31
56.4337
 12
-227.103
 22
510.522
 32
62.0006
 13
-227.103
 23
510.522
 33
62.0006
  0
3DFACE
  8
0
  6
CONTINUOUS
 62
     4
 10
-202.594
 20
510.073
 30
-30.6471
 11
-189.918
 21
516.898
 31
2.78951
 12
-215.792
 22
511.767
 32
36.0752
 13
-215.792
 23
511.767
 33
36.0752
  0
3DFACE
  8
0
  6
CONTINUOUS
 62
     4
 10
-202.594
 20
510.073
 30
-30.6471
 11
-189.918
 21
516.898
 31
2.78951
 12
-152.208
 22
533.566
 32
60.4213
 13
-152.208
 23
533.566
 33
60.4213
  0
3DFACE
  8
0
  6
CONTINUOUS
 62
     4
 10
-130.884
 20
539.692
 30
54.9331
 11
-123.479
 21
542.469
 31
60.5263
 12
-123.373
 22
542.175
 32
56.8146
 13
-123.373
 23
542.175
 33
56.8146
  0
3DFACE
  8
0
  6
CONTINUOUS
 62
     4
 10
-130.884
 20
539.692
 30
54.9331
 11
-123.479
 21
542.469
 31
60.5263
 12
-156.123
 22
530.425
 32
38.1472
 13
-156.123
 23
530.425
 33
38.1472
  0
3DFACE
  8
0
  6
CONTINUOUS
 62
     4
 10
-171.908
 20
520.546
 30
-19.4065
 11
-137.785
 21
530.796
 31
-22.9883
 12
-143.936
 22
529.213
 32
-19.3035
 13
-143.936
 23
529.213
 33
-19.3035
  0
3DFACE
  8
0
  6
CONTINUOUS
 62
     4
 10
-171.908
 20
520.546
 30
-19.4065
 11
-137.785
 21
530.796
 31
-22.9883
 12
-182.234
 22
516.541
 32
-28.7197
 13
-182.234
 23
516.541
 33
-28.7197
  0
3DFACE
  8
0
  6
CONTINUOUS
 62
     4
 10
-182.234
 20
516.541
 30
-28.7197
 11
-137.785
 21
530.796
 31
-22.9883
 12
-139.141
 22
529.894
 32
-28.5615
 13
-139.141
 23
529.894
 33
-28.5615
  0
3DFACE
  8
0
  6
CONTINUOUS
 62
     4
 10
-171.908
 20
520.546
 30
-19.4065
 11
-182.234
 21
516.541
 31
-28.7197
 12
-183.145
 22
516.741
 32
-23.1543
 13
-183.145
 23
516.741
 33
-23.1543
  0
3DFACE
  8
0
  6
CONTINUOUS
 62
     4
 10
-171.908
 20
520.546
 30
-19.4065
 11
-143.936
 21
529.213
 31
-19.3035
 12
-156.123
 22
530.425
 32
38.1472
 13
-156.123
 23
530.425
 33
38.1472
  0
3DFACE
  8
0
  6
CONTINUOUS
 62
     4
 10
-202.594
 20
510.073
 30
-30.6471
 11
-152.208
 21
533.566
 31
60.4213
 12
-156.123
 22
530.425
 32
38.1472
 13
-156.123
 23
530.425
 33
38.1472
  0
3DFACE
  8
0
  6
CONTINUOUS
 62
     4
 10
-156.123
 20
530.425
 30
38.1472
 11
-152.208
 21
533.566
 31
60.4213
 12
-123.479
 22
542.469
 32
60.5263
 13
-123.479
 23
542.469
 33
60.5263
  0
3DFACE
  8
0
  6
CONTINUOUS
 62
     4
 10
-156.123
 20
530.425
 30
38.1472
 11
-130.884
 21
539.692
 31
54.9331
 12
-143.936
 22
529.213
 32
-19.3035
 13
-143.936
 23
529.213
 33
-19.3035
  0
3DFACE
  8
0
  6
CONTINUOUS
 62
     4
 10
-230.121
 20
502.509
 30
-19.6199
 11
-219.336
 21
512.285
 31
54.6094
 12
-215.792
 22
511.767
 32
36.0752
 13
-215.792
 23
511.767
 33
36.0752
  0
3DFACE
  8
0
  6
CONTINUOUS
 62
     4
 10
-215.792
 20
511.767
 30
36.0752
 11
-194.543
 21
520.449
 31
60.267
 12
-189.918
 22
516.898
 32
2.78951
 13
-189.918
 23
516.898
 33
2.78951
  0
3DFACE
  8
0
  6
CONTINUOUS
 62
     4
 10
-215.792
 20
511.767
 30
36.0752
 11
-202.594
 21
510.073
 31
-30.6471
 12
-208.695
 22
508.343
 32
-28.8164
 13
-208.695
 23
508.343
 33
-28.8164
  0
3DFACE
  8
0
  6
CONTINUOUS
 62
     4
 10
-230.121
 20
502.509
 30
-19.6199
 11
-220.791
 21
504.596
 31
-28.8608
 12
-220.139
 22
505.123
 32
-25.1467
 13
-220.139
 23
505.123
 33
-25.1467
  0
3DFACE
  8
0
  6
CONTINUOUS
 62
     4
 10
-260.59
 20
493.115
 30
-19.1882
 11
-286.439
 21
485.107
 31
-19.2815
 12
-296.824
 22
481.082
 32
-28.5957
 13
-296.824
 23
481.082
 33
-28.5957
  0
3DFACE
  8
0
  6
CONTINUOUS
 62
     4
 10
-260.59
 20
493.115
 30
-19.1882
 11
-286.439
 21
485.107
 31
-19.2815
 12
-272.041
 22
496.805
 32
64.2341
 13
-272.041
 23
496.805
 33
64.2341
  0
3DFACE
  8
0
  6
CONTINUOUS
 62
     4
 10
-280.3
 20
493.925
 30
60.4961
 11
-290.27
 21
488.743
 31
36.3414
 12
-286.955
 22
486.558
 32
-0.735169
 13
-286.955
 23
486.558
 33
-0.735169
  0
3DFACE
  8
0
  6
CONTINUOUS
 62
     4
 10
-280.3
 20
493.925
 30
60.4961
 11
-290.27
 21
488.743
 31
36.3414
 12
-307.738
 22
480.92
 32
8.46182
 13
-307.738
 23
480.92
 33
8.46182
  0
3DFACE
  8
0
  6
CONTINUOUS
 62
     4
 10
-280.3
 20
493.925
 30
60.4961
 11
-307.738
 21
480.92
 31
8.46182
 12
-312.097
 22
478.931
 32
1.02912
 13
-312.097
 23
478.931
 33
1.02912
  0
3DFACE
  8
0
  6
CONTINUOUS
 62
     4
 10
-312.097
 20
478.931
 30
1.02912
 11
-307.738
 21
480.92
 31
8.46182
 12
-289.608
 22
486.538
 32
8.52872
 13
-289.608
 23
486.538
 33
8.52872
  0
3DFACE
  8
0
  6
CONTINUOUS
 62
     4
 10
-312.097
 20
478.931
 30
1.02912
 11
-289.608
 21
486.538
 31
8.52872
 12
-287.831
 22
486.289
 32
-0.737615
 13
-287.831
 23
486.289
 33
-0.737615
  0
3DFACE
  8
0
  6
CONTINUOUS
 62
     4
 10
-312.097
 20
478.931
 30
1.02912
 11
-289.608
 21
486.538
 31
8.52872
 12
-299.09
 22
522.772
 32
-3.731
 13
-299.09
 23
522.772
 33
-3.731
  0
3DFACE
  8
0
  6
CONTINUOUS
 62
     4
 10
-335.091
 20
470.032
 30
-19.4612
 11
-322.169
 21
474.036
 31
-19.4124
 12
-346.996
 22
465.537
 32
-28.7803
 13
-346.996
 23
465.537
 33
-28.7803
  0
3DFACE
  8
0
  6
CONTINUOUS
 62
     4
 10
-335.091
 20
470.032
 30
-19.4612
 11
-322.169
 21
474.036
 31
-19.4124
 12
-312.097
 22
478.931
 32
1.02912
 13
-312.097
 23
478.931
 33
1.02912
  0
3DFACE
  8
0
  6
CONTINUOUS
 62
     4
 10
-346.996
 20
465.537
 30
-28.7803
 11
-322.169
 21
474.036
 31
-19.4124
 12
-312.943
 22
476.572
 32
-23.0874
 13
-312.943
 23
476.572
 33
-23.0874
  0
3DFACE
  8
0
  6
CONTINUOUS
 62
     4
 10
-346.996
 20
465.537
 30
-28.7803
 11
-312.943
 21
476.572
 31
-23.0874
 12
-312.787
 22
476.136
 32
-28.6543
 13
-312.787
 23
476.136
 33
-28.6543
  0
3DFACE
  8
0
  6
CONTINUOUS
 62
     4
 10
-280.3
 20
493.925
 30
60.4961
 11
-312.097
 21
478.931
 31
1.02912
 12
-335.091
 22
470.032
 32
-19.4612
 13
-335.091
 23
470.032
 33
-19.4612
  0
3DFACE
  8
0
  6
CONTINUOUS
 62
     4
 10
-346.996
 20
465.537
 30
-28.7803
 11
-335.091
 21
470.032
 31
-19.4612
 12
-347.152
 22
465.974
 32
-23.2129
 13
-347.152
 23
465.974
 33
-23.2129
  0
3DFACE
  8
0
  6
CONTINUOUS
 62
     4
 10
-272.041
 20
496.805
 30
64.2341
 11
-286.439
 21
485.107
 31
-19.2815
 12
-280.3
 22
493.925
 32
60.4961
 13
-280.3
 23
493.925
 33
60.4961
  0
3DFACE
  8
0
  6
CONTINUOUS
 62
     4
 10
-272.041
 20
496.805
 30
64.2341
 11
-260.59
 21
493.115
 31
-19.1882
 12
-266.615
 22
498.166
 32
60.5454
 13
-266.615
 23
498.166
 33
60.5454
  0
3DFACE
  8
0
  6
CONTINUOUS
 62
     4
 10
-260.59
 20
493.115
 30
-19.1882
 11
-296.824
 21
481.082
 31
-28.5957
 12
-254.407
 22
494.708
 32
-22.874
 13
-254.407
 23
494.708
 33
-22.874
  0
3DFACE
  8
0
  6
CONTINUOUS
 62
     4
 10
-254.407
 20
494.708
 30
-22.874
 11
-296.824
 21
481.082
 31
-28.5957
 12
-255.012
 22
494.039
 32
-28.4428
 13
-255.012
 23
494.039
 33
-28.4428
  0
3DFACE
  8
0
  6
CONTINUOUS
 62
     4
 10
-296.824
 20
481.082
 30
-28.5957
 11
-286.439
 21
485.107
 31
-19.2815
 12
-296.927
 22
481.375
 32
-24.8854
 13
-296.927
 23
481.375
 33
-24.8854
  0
3DFACE
  8
0
  6
CONTINUOUS
 62
     4
 10
-280.3
 20
493.925
 30
60.4961
 11
-286.439
 21
485.107
 31
-19.2815
 12
-286.955
 22
486.558
 32
-0.735169
 13
-286.955
 23
486.558
 33
-0.735169
  0
3DFACE
  8
0
  6
CONTINUOUS
 62
     4
 10
-286.955
 20
486.558
 30
-0.735169
 11
-290.27
 21
488.743
 31
36.3414
 12
-288.735
 22
486.81
 32
8.53068
 13
-288.735
 23
486.81
 33
8.53068
  0
3DFACE
  8
0
  6
CONTINUOUS
 62
     4
 10
-17.28
 20
570.628
 30
6.18674
 11
-18.5682
 21
610.119
 31
2.27678
 12
-28.5402
 22
607.114
 32
3.1958
 13
-28.5402
 23
607.114
 33
3.1958
  0
3DFACE
  8
0
  6
CONTINUOUS
 62
     4
 10
-17.28
 20
570.628
 30
6.18674
 11
-18.5682
 21
610.119
 31
2.27678
 12
-7.3056
 22
573.633
 32
5.26871
 13
-7.3056
 23
573.633
 33
5.26871
  0
3DFACE
  8
0
  6
CONTINUOUS
 62
     4
 10
-7.3056
 20
573.633
 30
5.26871
 11
-21.7369
 21
607.377
 31
-18.0958
 12
-18.5682
 22
610.119
 32
2.27678
 13
-18.5682
 23
610.119
 33
2.27678
  0
3DFACE
  8
0
  6
CONTINUOUS
 62
     4
 10
-7.3056
 20
573.633
 30
5.26871
 11
-21.7369
 21
607.377
 31
-18.0958
 12
-10.4738
 22
570.888
 32
-15.1034
 13
-10.4738
 23
570.888
 33
-15.1034
  0
3DFACE
  8
0
  6
CONTINUOUS
 62
     4
 10
-10.4738
 20
570.888
 30
-15.1034
 11
-23.8484
 21
606.243
 31
-23.6676
 12
-21.7369
 22
607.377
 32
-18.0958
 13
-21.7369
 23
607.377
 33
-18.0958
  0
3DFACE
  8
0
  6
CONTINUOUS
 62
     4
 10
-10.4738
 20
570.888
 30
-15.1034
 11
-23.8484
 21
606.243
 31
-23.6676
 12
-12.5868
 22
569.749
 32
-20.6761
 13
-12.5868
 23
569.749
 33
-20.6761
  0
3DFACE
  8
0
  6
CONTINUOUS
 62
     4
 10
-12.5868
 20
569.749
 30
-20.6761
 11
-33.6255
 21
603.053
 31
-25.5569
 12
-23.8484
 22
606.243
 32
-23.6676
 13
-23.8484
 23
606.243
 33
-23.6676
  0
3DFACE
  8
0
  6
CONTINUOUS
 62
     4
 10
-12.5868
 20
569.749
 30
-20.6761
 11
-33.6255
 21
603.053
 31
-25.5569
 12
-22.3614
 22
566.558
 32
-22.5654
 13
-22.3614
 23
566.558
 33
-22.5654
  0
3DFACE
  8
0
  6
CONTINUOUS
 62
     4
 10
-22.3614
 20
566.558
 30
-22.5654
 11
-42.0451
 21
600.763
 31
-21.8808
 12
-33.6255
 22
603.053
 32
-25.5569
 13
-33.6255
 23
603.053
 33
-25.5569
  0
3DFACE
  8
0
  6
CONTINUOUS
 62
     4
 10
-22.3614
 20
566.558
 30
-22.5654
 11
-42.0451
 21
600.763
 31
-21.8808
 12
-30.782
 22
564.273
 32
-18.8889
 13
-30.782
 23
564.273
 33
-18.8889
  0
3DFACE
  8
0
  6
CONTINUOUS
 62
     4
 10
-30.782
 20
564.273
 30
-18.8889
 11
-49.9143
 21
599.288
 31
-10.7789
 12
-42.0451
 22
600.763
 32
-21.8808
 13
-42.0451
 23
600.763
 33
-21.8808
  0
3DFACE
  8
0
  6
CONTINUOUS
 62
     4
 10
-30.782
 20
564.273
 30
-18.8889
 11
-49.9143
 21
599.288
 31
-10.7789
 12
-38.6522
 22
562.801
 32
-7.78697
 13
-38.6522
 23
562.801
 33
-7.78697
  0
3DFACE
  8
0
  6
CONTINUOUS
 62
     4
 10
-38.6522
 20
562.801
 30
-7.78697
 11
-48.8142
 21
600.914
 31
4.06549
 12
-49.9143
 22
599.288
 32
-10.7789
 13
-49.9143
 23
599.288
 33
-10.7789
  0
3DFACE
  8
0
  6
CONTINUOUS
 62
     4
 10
-38.6522
 20
562.801
 30
-7.78697
 11
-48.8142
 21
600.914
 31
4.06549
 12
-37.554
 22
564.431
 32
7.05692
 13
-37.554
 23
564.431
 33
7.05692
  0
3DFACE
  8
0
  6
CONTINUOUS
 62
     4
 10
-37.554
 20
564.431
 30
7.05692
 11
-45.5517
 21
603.535
 31
22.6235
 12
-48.8142
 22
600.914
 32
4.06549
 13
-48.8142
 23
600.914
 33
4.06549
  0
3DFACE
  8
0
  6
CONTINUOUS
 62
     4
 10
-37.554
 20
564.431
 30
7.05692
 11
-45.5517
 21
603.535
 31
22.6235
 12
-34.2891
 22
567.045
 32
25.6067
 13
-34.2891
 23
567.045
 33
25.6067
  0
3DFACE
  8
0
  6
CONTINUOUS
 62
     4
 10
-34.2891
 20
567.045
 30
25.6067
 11
-39.0575
 21
606.515
 31
33.7719
 12
-45.5517
 22
603.535
 32
22.6235
 13
-45.5517
 23
603.535
 33
22.6235
  0
3DFACE
  8
0
  6
CONTINUOUS
 62
     4
 10
-34.2891
 20
567.045
 30
25.6067
 11
-39.0575
 21
606.515
 31
33.7719
 12
-27.7925
 22
570.016
 32
36.7628
 13
-27.7925
 23
570.016
 33
36.7628
  0
3DFACE
  8
0
  6
CONTINUOUS
 62
     4
 10
-27.7925
 20
570.016
 30
36.7628
 11
-22.7878
 21
612.683
 31
46.8144
 12
-39.0575
 22
606.515
 32
33.7719
 13
-39.0575
 23
606.515
 33
33.7719
  0
3DFACE
  8
0
  6
CONTINUOUS
 62
     4
 10
-27.7925
 20
570.016
 30
36.7628
 11
-22.7878
 21
612.683
 31
46.8144
 12
-11.5271
 22
576.191
 32
49.8058
 13
-11.5271
 23
576.191
 33
49.8058
  0
3DFACE
  8
0
  6
CONTINUOUS
 62
     4
 10
-11.5271
 20
576.191
 30
49.8058
 11
-8.85895
 21
617.624
 31
54.0136
 12
-22.7878
 22
612.683
 32
46.8144
 13
-22.7878
 23
612.683
 33
46.8144
  0
3DFACE
  8
0
  6
CONTINUOUS
 62
     4
 10
-11.5271
 20
576.191
 30
49.8058
 11
-8.85895
 21
617.624
 31
54.0136
 12
2.40754
 22
581.123
 32
57.0046
 13
2.40754
 23
581.123
 33
57.0046
  0
3DFACE
  8
0
  6
CONTINUOUS
 62
     4
 10
2.40754
 20
581.123
 30
57.0046
 11
7.24431
 21
622.636
 31
54.3442
 12
-8.85895
 22
617.624
 32
54.0136
 13
-8.85895
 23
617.624
 33
54.0136
  0
3DFACE
  8
0
  6
CONTINUOUS
 62
     4
 10
2.40754
 20
581.123
 30
57.0046
 11
7.24431
 21
622.636
 31
54.3442
 12
18.5079
 22
586.136
 32
57.3347
 13
18.5079
 23
586.136
 33
57.3347
  0
3DFACE
  8
0
  6
CONTINUOUS
 62
     4
 10
18.5079
 20
586.136
 30
57.3347
 11
8.46658
 21
621.563
 31
37.6559
 12
7.24431
 22
622.636
 32
54.3442
 13
7.24431
 23
622.636
 33
54.3442
  0
3DFACE
  8
0
  6
CONTINUOUS
 62
     4
 10
18.5079
 20
586.136
 30
57.3347
 11
8.46658
 21
621.563
 31
37.6559
 12
19.7302
 22
585.067
 32
40.6474
 13
19.7302
 23
585.067
 33
40.6474
  0
3DFACE
  8
0
  6
CONTINUOUS
 62
     4
 10
19.7302
 20
585.067
 30
40.6474
 11
15.2176
 21
623.819
 31
39.5345
 12
8.46658
 22
621.563
 32
37.6559
 13
8.46658
 23
621.563
 33
37.6559
  0
3DFACE
  8
0
  6
CONTINUOUS
 62
     4
 10
19.7302
 20
585.067
 30
40.6474
 11
15.2176
 21
623.819
 31
39.5345
 12
26.4831
 22
587.318
 32
42.5259
 13
26.4831
 23
587.318
 33
42.5259
  0
3DFACE
  8
0
  6
CONTINUOUS
 62
     4
 10
26.4831
 20
587.318
 30
42.5259
 11
19.2364
 21
626.674
 31
58.1008
 12
15.2176
 22
623.819
 32
39.5345
 13
15.2176
 23
623.819
 33
39.5345
  0
3DFACE
  8
0
  6
CONTINUOUS
 62
     4
 10
26.4831
 20
587.318
 30
42.5259
 11
19.2364
 21
626.674
 31
58.1008
 12
30.501
 22
590.176
 32
61.0898
 13
30.501
 23
590.176
 33
61.0898
  0
3DFACE
  8
0
  6
CONTINUOUS
 62
     4
 10
30.501
 20
590.176
 30
61.0898
 11
7.79172
 21
623.452
 31
61.7657
 12
19.2364
 22
626.674
 32
58.1008
 13
19.2364
 23
626.674
 33
58.1008
  0
3DFACE
  8
0
  6
CONTINUOUS
 62
     4
 10
30.501
 20
590.176
 30
61.0898
 11
7.79172
 21
623.452
 31
61.7657
 12
19.0577
 22
586.956
 32
64.7566
 13
19.0577
 23
586.956
 33
64.7566
  0
3DFACE
  8
0
  6
CONTINUOUS
 62
     4
 10
19.0577
 20
586.956
 30
64.7566
 11
-8.03225
 21
618.386
 31
59.8529
 12
7.79172
 22
623.452
 32
61.7657
 13
7.79172
 23
623.452
 33
61.7657
  0
3DFACE
  8
0
  6
CONTINUOUS
 62
     4
 10
19.0577
 20
586.956
 30
64.7566
 11
-8.03225
 21
618.386
 31
59.8529
 12
3.23228
 22
581.889
 32
62.8439
 13
3.23228
 23
581.889
 33
62.8439
  0
3DFACE
  8
0
  6
CONTINUOUS
 62
     4
 10
3.23228
 20
581.889
 30
62.8439
 11
-27.5826
 21
612.002
 31
56.0724
 12
-8.03225
 22
618.386
 32
59.8529
 13
-8.03225
 23
618.386
 33
59.8529
  0
3DFACE
  8
0
  6
CONTINUOUS
 62
     4
 10
3.23228
 20
581.889
 30
62.8439
 11
-27.5826
 21
612.002
 31
56.0724
 12
-16.32
 22
575.509
 32
59.0619
 13
-16.32
 23
575.509
 33
59.0619
  0
3DFACE
  8
0
  6
CONTINUOUS
 62
     4
 10
-16.32
 20
575.509
 30
59.0619
 11
-49.1999
 21
604.344
 31
44.863
 12
-27.5826
 22
612.002
 32
56.0724
 13
-27.5826
 23
612.002
 33
56.0724
  0
3DFACE
  8
0
  6
CONTINUOUS
 62
     4
 10
-16.32
 20
575.509
 30
59.0619
 11
-49.1999
 21
604.344
 31
44.863
 12
-37.9325
 22
567.845
 32
47.855
 13
-37.9325
 23
567.845
 33
47.855
  0
3DFACE
  8
0
  6
CONTINUOUS
 62
     4
 10
-37.9325
 20
567.845
 30
47.855
 11
-65.3638
 21
597.881
 31
28.1118
 12
-49.1999
 22
604.344
 32
44.863
 13
-49.1999
 23
604.344
 33
44.863
  0
3DFACE
  8
0
  6
CONTINUOUS
 62
     4
 10
-37.9325
 20
567.845
 30
47.855
 11
-65.3638
 21
597.881
 31
28.1118
 12
-54.0997
 22
561.388
 32
31.0993
 13
-54.0997
 23
561.388
 33
31.0993
  0
3DFACE
  8
0
  6
CONTINUOUS
 62
     4
 10
-54.0997
 20
561.388
 30
31.0993
 11
-74.6222
 21
593.238
 31
7.67905
 12
-65.3638
 22
597.881
 32
28.1118
 13
-65.3638
 23
597.881
 33
28.1118
  0
3DFACE
  8
0
  6
CONTINUOUS
 62
     4
 10
-54.0997
 20
561.388
 30
31.0993
 11
-74.6222
 21
593.238
 31
7.67905
 12
-63.3621
 22
556.755
 32
10.6729
 13
-63.3621
 23
556.755
 33
10.6729
  0
3DFACE
  8
0
  6
CONTINUOUS
 62
     4
 10
-63.3621
 20
556.755
 30
10.6729
 11
-73.2984
 21
591.88
 31
-12.7185
 12
-74.6222
 22
593.238
 32
7.67905
 13
-74.6222
 23
593.238
 33
7.67905
  0
3DFACE
  8
0
  6
CONTINUOUS
 62
     4
 10
-63.3621
 20
556.755
 30
10.6729
 11
-73.2984
 21
591.88
 31
-12.7185
 12
-62.0368
 22
555.395
 32
-9.72755
 13
-62.0368
 23
555.395
 33
-9.72755
  0
3DFACE
  8
0
  6
CONTINUOUS
 62
     4
 10
-62.0368
 20
555.395
 30
-9.72755
 11
-62.405
 21
594.296
 31
-23.8097
 12
-73.2984
 22
591.88
 32
-12.7185
 13
-73.2984
 23
591.88
 33
-12.7185
  0
3DFACE
  8
0
  6
CONTINUOUS
 62
     4
 10
-62.0368
 20
555.395
 30
-9.72755
 11
-62.405
 21
594.296
 31
-23.8097
 12
-51.1429
 22
557.804
 32
-20.8172
 13
-51.1429
 23
557.804
 33
-20.8172
  0
3DFACE
  8
0
  6
CONTINUOUS
 62
     4
 10
-51.1429
 20
557.804
 30
-20.8172
 11
-38.6586
 21
600.691
 31
-34.853
 12
-62.405
 22
594.296
 32
-23.8097
 13
-62.405
 23
594.296
 33
-23.8097
  0
3DFACE
  8
0
  6
CONTINUOUS
 62
     4
 10
-51.1429
 20
557.804
 30
-20.8172
 11
-38.6586
 21
600.691
 31
-34.853
 12
-27.397
 22
564.197
 32
-31.8591
 13
-27.397
 23
564.197
 33
-31.8591
  0
3DFACE
  8
0
  6
CONTINUOUS
 62
     4
 10
-27.397
 20
564.197
 30
-31.8591
 11
-10.8415
 21
609.79
 31
-29.1856
 12
-38.6586
 22
600.691
 32
-34.853
 13
-38.6586
 23
600.691
 33
-34.853
  0
3DFACE
  8
0
  6
CONTINUOUS
 62
     4
 10
-27.397
 20
564.197
 30
-31.8591
 11
-10.8415
 21
609.79
 31
-29.1856
 12
0.421046
 22
573.298
 32
-26.1912
 13
0.421046
 23
573.298
 33
-26.1912
  0
3DFACE
  8
0
  6
CONTINUOUS
 62
     4
 10
0.421046
 20
573.298
 30
-26.1912
 11
0.294092
 21
613.881
 31
-21.725
 12
-10.8415
 22
609.79
 32
-29.1856
 13
-10.8415
 23
609.79
 33
-29.1856
  0
3DFACE
  8
0
  6
CONTINUOUS
 62
     4
 10
0.421046
 20
573.298
 30
-26.1912
 11
0.294092
 21
613.881
 31
-21.725
 12
11.5547
 22
577.39
 32
-18.7336
 13
11.5547
 23
577.39
 33
-18.7336
  0
3DFACE
  8
0
  6
CONTINUOUS
 62
     4
 10
11.5547
 20
577.39
 30
-18.7336
 11
8.74542
 21
618.428
 31
0.564246
 12
0.294092
 22
613.881
 32
-21.725
 13
0.294092
 23
613.881
 33
-21.725
  0
3DFACE
  8
0
  6
CONTINUOUS
 62
     4
 10
11.5547
 20
577.39
 30
-18.7336
 11
8.74542
 21
618.428
 31
0.564246
 12
20.006
 22
581.941
 32
3.55763
 13
20.006
 23
581.941
 33
3.55763
  0
3DFACE
  8
0
  6
CONTINUOUS
 62
     4
 10
20.006
 20
581.941
 30
3.55763
 11
19.1744
 21
622.143
 31
6.17014
 12
8.74542
 22
618.428
 32
0.564246
 13
8.74542
 23
618.428
 33
0.564246
  0
3DFACE
  8
0
  6
CONTINUOUS
 62
     4
 10
20.006
 20
581.941
 30
3.55763
 11
19.1744
 21
622.143
 31
6.17014
 12
30.435
 22
585.654
 32
9.16158
 13
30.435
 23
585.654
 33
9.16158
  0
3DFACE
  8
0
  6
CONTINUOUS
 62
     4
 10
30.435
 20
585.654
 30
9.16158
 11
19.0719
 21
622.431
 31
9.87892
 12
19.1744
 22
622.143
 32
6.17014
 13
19.1744
 23
622.143
 33
6.17014
  0
3DFACE
  8
0
  6
CONTINUOUS
 62
     4
 10
30.435
 20
585.654
 30
9.16158
 11
19.0719
 21
622.431
 31
9.87892
 12
30.3325
 22
585.943
 32
12.8704
 13
30.3325
 23
585.943
 33
12.8704
  0
3DFACE
  8
0
  6
CONTINUOUS
 62
     4
 10
30.3325
 20
585.943
 30
12.8704
 11
-28.506
 21
607.528
 31
7.84849
 12
19.0719
 22
622.431
 32
9.87892
 13
19.0719
 23
622.431
 33
9.87892
  0
3DFACE
  8
0
  6
CONTINUOUS
 62
     4
 10
30.3325
 20
585.943
 30
12.8704
 11
-28.506
 21
607.528
 31
7.84849
 12
-17.2444
 22
571.041
 32
10.8424
 13
-17.2444
 23
571.041
 33
10.8424
  0
3DFACE
  8
0
  6
CONTINUOUS
 62
     4
 10
-17.2444
 20
571.041
 30
10.8424
 11
-28.5402
 21
607.114
 31
3.1958
 12
-28.506
 22
607.528
 32
7.84849
 13
-28.506
 23
607.528
 33
7.84849
  0
3DFACE
  8
0
  6
CONTINUOUS
 62
     4
 10
-17.2444
 20
571.041
 30
10.8424
 11
-28.5402
 21
607.114
 31
3.1958
 12
-17.28
 22
570.628
 32
6.18674
 13
-17.28
 23
570.628
 33
6.18674
  0
3DFACE
  8
0
  6
CONTINUOUS
 62
     4
 10
-131.93
 20
532.129
 30
-28.5356
 11
-99.3448
 21
582.205
 31
-31.3644
 12
-143.192
 22
568.62
 32
-31.5261
 13
-143.192
 23
568.62
 33
-31.5261
  0
3DFACE
  8
0
  6
CONTINUOUS
 62
     4
 10
-131.93
 20
532.129
 30
-28.5356
 11
-99.3448
 21
582.205
 31
-31.3644
 12
-88.0832
 22
545.713
 32
-28.374
 13
-88.0832
 23
545.713
 33
-28.374
  0
3DFACE
  8
0
  6
CONTINUOUS
 62
     4
 10
-88.0832
 20
545.713
 30
-28.374
 11
-97.9898
 21
583.109
 31
-25.7927
 12
-99.3448
 22
582.205
 32
-31.3644
 13
-99.3448
 23
582.205
 33
-31.3644
  0
3DFACE
  8
0
  6
CONTINUOUS
 62
     4
 10
-88.0832
 20
545.713
 30
-28.374
 11
-97.9898
 21
583.109
 31
-25.7927
 12
-86.7272
 22
546.616
 32
-22.8018
 13
-86.7272
 23
546.616
 33
-22.8018
  0
3DFACE
  8
0
  6
CONTINUOUS
 62
     4
 10
-86.7272
 20
546.616
 30
-22.8018
 11
-108.676
 21
580.118
 31
-22.124
 12
-97.9898
 22
583.109
 32
-25.7927
 13
-97.9898
 23
583.109
 33
-25.7927
  0
3DFACE
  8
0
  6
CONTINUOUS
 62
     4
 10
-86.7272
 20
546.616
 30
-22.8018
 11
-108.676
 21
580.118
 31
-22.124
 12
-97.4121
 22
543.629
 32
-19.1326
 13
-97.4121
 23
543.629
 33
-19.1326
  0
3DFACE
  8
0
  6
CONTINUOUS
 62
     4
 10
-97.4121
 20
543.629
 30
-19.1326
 11
-87.2067
 21
592.885
 31
48.4356
 12
-108.676
 22
580.118
 32
-22.124
 13
-108.676
 23
580.118
 33
-22.124
  0
3DFACE
  8
0
  6
CONTINUOUS
 62
     4
 10
-97.4121
 20
543.629
 30
-19.1326
 11
-87.2067
 21
592.885
 31
48.4356
 12
-75.9446
 22
556.392
 32
51.425
 13
-75.9446
 23
556.392
 33
51.425
  0
3DFACE
  8
0
  6
CONTINUOUS
 62
     4
 10
-75.9446
 20
556.392
 30
51.425
 11
-76.0232
 21
596.835
 31
54.039
 12
-87.2067
 22
592.885
 32
48.4356
 13
-87.2067
 23
592.885
 33
48.4356
  0
3DFACE
  8
0
  6
CONTINUOUS
 62
     4
 10
-75.9446
 20
556.392
 30
51.425
 11
-76.0232
 21
596.835
 31
54.039
 12
-64.7582
 22
560.338
 32
57.03
 13
-64.7582
 23
560.338
 33
57.03
  0
3DFACE
  8
0
  6
CONTINUOUS
 62
     4
 10
-64.7582
 20
560.338
 30
57.03
 11
-75.3698
 21
597.363
 31
57.7536
 12
-76.0232
 22
596.835
 32
54.039
 13
-76.0232
 23
596.835
 33
54.039
  0
3DFACE
  8
0
  6
CONTINUOUS
 62
     4
 10
-64.7582
 20
560.338
 30
57.03
 11
-75.3698
 21
597.363
 31
57.7536
 12
-64.1058
 22
560.865
 32
60.7431
 13
-64.1058
 23
560.865
 33
60.7431
  0
3DFACE
  8
0
  6
CONTINUOUS
 62
     4
 10
-64.1058
 20
560.865
 30
60.7431
 11
-117.754
 21
584.389
 31
59.452
 12
-75.3698
 22
597.363
 32
57.7536
 13
-75.3698
 23
597.363
 33
57.7536
  0
3DFACE
  8
0
  6
CONTINUOUS
 62
     4
 10
-64.1058
 20
560.865
 30
60.7431
 11
-117.754
 21
584.389
 31
59.452
 12
-106.49
 22
547.894
 32
62.4425
 13
-106.49
 23
547.894
 33
62.4425
  0
3DFACE
  8
0
  6
CONTINUOUS
 62
     4
 10
-106.49
 20
547.894
 30
62.4425
 11
-120.624
 21
583.016
 31
53.8754
 12
-117.754
 22
584.389
 32
59.452
 13
-117.754
 23
584.389
 33
59.452
  0
3DFACE
  8
0
  6
CONTINUOUS
 62
     4
 10
-106.49
 20
547.894
 30
62.4425
 11
-120.624
 21
583.016
 31
53.8754
 12
-109.357
 22
546.518
 32
56.8669
 13
-109.357
 23
546.518
 33
56.8669
  0
3DFACE
  8
0
  6
CONTINUOUS
 62
     4
 10
-109.357
 20
546.518
 30
56.8669
 11
-112.959
 21
585.068
 31
50.1955
 12
-120.624
 22
583.016
 32
53.8754
 13
-120.624
 23
583.016
 33
53.8754
  0
3DFACE
  8
0
  6
CONTINUOUS
 62
     4
 10
-109.357
 20
546.518
 30
56.8669
 11
-112.959
 21
585.068
 31
50.1955
 12
-101.694
 22
548.571
 32
53.1835
 13
-101.694
 23
548.571
 33
53.1835
  0
3DFACE
  8
0
  6
CONTINUOUS
 62
     4
 10
-101.694
 20
548.571
 30
53.1835
 11
-130.65
 21
573.471
 31
-20.349
 12
-112.959
 22
585.068
 32
50.1955
 13
-112.959
 23
585.068
 33
50.1955
  0
3DFACE
  8
0
  6
CONTINUOUS
 62
     4
 10
-101.694
 20
548.571
 30
53.1835
 11
-130.65
 21
573.471
 31
-20.349
 12
-119.388
 22
536.981
 32
-17.3565
 13
-119.388
 23
536.981
 33
-17.3565
  0
3DFACE
  8
0
  6
CONTINUOUS
 62
     4
 10
-119.388
 20
536.981
 30
-17.3565
 11
-143.295
 21
568.91
 31
-27.8168
 12
-130.65
 22
573.471
 32
-20.349
 13
-130.65
 23
573.471
 33
-20.349
  0
3DFACE
  8
0
  6
CONTINUOUS
 62
     4
 10
-119.388
 20
536.981
 30
-17.3565
 11
-143.295
 21
568.91
 31
-27.8168
 12
-132.034
 22
532.421
 32
-24.8244
 13
-132.034
 23
532.421
 33
-24.8244
  0
3DFACE
  8
0
  6
CONTINUOUS
 62
     4
 10
-132.034
 20
532.421
 30
-24.8244
 11
-143.192
 21
568.62
 31
-31.5261
 12
-143.295
 22
568.91
 32
-27.8168
 13
-143.295
 23
568.91
 33
-27.8168
  0
3DFACE
  8
0
  6
CONTINUOUS
 62
     4
 10
-132.034
 20
532.421
 30
-24.8244
 11
-143.192
 21
568.62
 31
-31.5261
 12
-131.93
 22
532.129
 32
-28.5356
 13
-131.93
 23
532.129
 33
-28.5356
  0
3DFACE
  8
0
  6
CONTINUOUS
 62
     4
 10
-220.791
 20
504.596
 30
-28.8608
 11
-231.4
 21
541.613
 31
-28.1391
 12
-232.054
 22
541.09
 32
-31.8528
 13
-232.054
 23
541.09
 33
-31.8528
  0
3DFACE
  8
0
  6
CONTINUOUS
 62
     4
 10
-220.791
 20
504.596
 30
-28.8608
 11
-231.4
 21
541.613
 31
-28.1391
 12
-220.139
 22
505.123
 32
-25.1467
 13
-220.139
 23
505.123
 33
-25.1467
  0
3DFACE
  8
0
  6
CONTINUOUS
 62
     4
 10
-220.139
 20
505.123
 30
-25.1467
 11
-241.384
 21
539.002
 31
-22.6113
 12
-231.4
 22
541.613
 32
-28.1391
 13
-231.4
 23
541.613
 33
-28.1391
  0
3DFACE
  8
0
  6
CONTINUOUS
 62
     4
 10
-220.139
 20
505.123
 30
-25.1467
 11
-241.384
 21
539.002
 31
-22.6113
 12
-230.121
 22
502.509
 32
-19.6199
 13
-230.121
 23
502.509
 33
-19.6199
  0
3DFACE
  8
0
  6
CONTINUOUS
 62
     4
 10
-230.121
 20
502.509
 30
-19.6199
 11
-227.057
 21
548.267
 31
33.0828
 12
-241.384
 22
539.002
 32
-22.6113
 13
-241.384
 23
539.002
 33
-22.6113
  0
3DFACE
  8
0
  6
CONTINUOUS
 62
     4
 10
-230.121
 20
502.509
 30
-19.6199
 11
-227.057
 21
548.267
 31
33.0828
 12
-215.792
 22
511.767
 32
36.0752
 13
-215.792
 23
511.767
 33
36.0752
  0
3DFACE
  8
0
  6
CONTINUOUS
 62
     4
 10
-215.792
 20
511.767
 30
36.0752
 11
-219.958
 21
544.837
 31
-31.8064
 12
-227.057
 22
548.267
 32
33.0828
 13
-227.057
 23
548.267
 33
33.0828
  0
3DFACE
  8
0
  6
CONTINUOUS
 62
     4
 10
-215.792
 20
511.767
 30
36.0752
 11
-219.958
 21
544.837
 31
-31.8064
 12
-208.695
 22
508.343
 32
-28.8164
 13
-208.695
 23
508.343
 33
-28.8164
  0
3DFACE
  8
0
  6
CONTINUOUS
 62
     4
 10
-208.695
 20
508.343
 30
-28.8164
 11
-213.859
 21
546.571
 31
-33.639
 12
-219.958
 22
544.837
 32
-31.8064
 13
-219.958
 23
544.837
 33
-31.8064
  0
3DFACE
  8
0
  6
CONTINUOUS
 62
     4
 10
-208.695
 20
508.343
 30
-28.8164
 11
-213.859
 21
546.571
 31
-33.639
 12
-202.594
 22
510.073
 32
-30.6471
 13
-202.594
 23
510.073
 33
-30.6471
  0
3DFACE
  8
0
  6
CONTINUOUS
 62
     4
 10
-202.594
 20
510.073
 30
-30.6471
 11
-167.386
 21
566.918
 31
35.1553
 12
-213.859
 22
546.571
 32
-33.639
 13
-213.859
 23
546.571
 33
-33.639
  0
3DFACE
  8
0
  6
CONTINUOUS
 62
     4
 10
-202.594
 20
510.073
 30
-30.6471
 11
-167.386
 21
566.918
 31
35.1553
 12
-156.123
 22
530.425
 32
38.1472
 13
-156.123
 23
530.425
 33
38.1472
  0
3DFACE
  8
0
  6
CONTINUOUS
 62
     4
 10
-156.123
 20
530.425
 30
38.1472
 11
-183.171
 21
557.038
 31
-22.3984
 12
-167.386
 22
566.918
 32
35.1553
 13
-167.386
 23
566.918
 33
35.1553
  0
3DFACE
  8
0
  6
CONTINUOUS
 62
     4
 10
-156.123
 20
530.425
 30
38.1472
 11
-183.171
 21
557.038
 31
-22.3984
 12
-171.908
 22
520.546
 32
-19.4065
 13
-171.908
 23
520.546
 33
-19.4065
  0
3DFACE
  8
0
  6
CONTINUOUS
 62
     4
 10
-171.908
 20
520.546
 30
-19.4065
 11
-194.408
 21
553.237
 31
-26.1463
 12
-183.171
 22
557.038
 32
-22.3984
 13
-183.171
 23
557.038
 33
-22.3984
  0
3DFACE
  8
0
  6
CONTINUOUS
 62
     4
 10
-171.908
 20
520.546
 30
-19.4065
 11
-194.408
 21
553.237
 31
-26.1463
 12
-183.145
 22
516.741
 32
-23.1543
 13
-183.145
 23
516.741
 33
-23.1543
  0
3DFACE
  8
0
  6
CONTINUOUS
 62
     4
 10
-183.145
 20
516.741
 30
-23.1543
 11
-193.497
 21
553.036
 31
-31.7107
 12
-194.408
 22
553.237
 32
-26.1463
 13
-194.408
 23
553.237
 33
-26.1463
  0
3DFACE
  8
0
  6
CONTINUOUS
 62
     4
 10
-183.145
 20
516.741
 30
-23.1543
 11
-193.497
 21
553.036
 31
-31.7107
 12
-182.234
 22
516.541
 32
-28.7197
 13
-182.234
 23
516.541
 33
-28.7197
  0
3DFACE
  8
0
  6
CONTINUOUS
 62
     4
 10
-182.234
 20
516.541
 30
-28.7197
 11
-150.405
 21
566.385
 31
-31.5515
 12
-193.497
 22
553.036
 32
-31.7107
 13
-193.497
 23
553.036
 33
-31.7107
  0
3DFACE
  8
0
  6
CONTINUOUS
 62
     4
 10
-182.234
 20
516.541
 30
-28.7197
 11
-150.405
 21
566.385
 31
-31.5515
 12
-139.141
 22
529.894
 32
-28.5615
 13
-139.141
 23
529.894
 33
-28.5615
  0
3DFACE
  8
0
  6
CONTINUOUS
 62
     4
 10
-139.141
 20
529.894
 30
-28.5615
 11
-149.05
 21
567.29
 31
-25.9807
 12
-150.405
 22
566.385
 32
-31.5515
 13
-150.405
 23
566.385
 33
-31.5515
  0
3DFACE
  8
0
  6
CONTINUOUS
 62
     4
 10
-139.141
 20
529.894
 30
-28.5615
 11
-149.05
 21
567.29
 31
-25.9807
 12
-137.785
 22
530.796
 32
-22.9883
 13
-137.785
 23
530.796
 33
-22.9883
  0
3DFACE
  8
0
  6
CONTINUOUS
 62
     4
 10
-137.785
 20
530.796
 30
-22.9883
 11
-155.199
 21
565.703
 31
-22.2949
 12
-149.05
 22
567.29
 32
-25.9807
 13
-149.05
 23
567.29
 33
-25.9807
  0
3DFACE
  8
0
  6
CONTINUOUS
 62
     4
 10
-137.785
 20
530.796
 30
-22.9883
 11
-155.199
 21
565.703
 31
-22.2949
 12
-143.936
 22
529.213
 32
-19.3035
 13
-143.936
 23
529.213
 33
-19.3035
  0
3DFACE
  8
0
  6
CONTINUOUS
 62
     4
 10
-143.936
 20
529.213
 30
-19.3035
 11
-142.148
 21
576.187
 31
51.9422
 12
-155.199
 22
565.703
 32
-22.2949
 13
-155.199
 23
565.703
 33
-22.2949
  0
3DFACE
  8
0
  6
CONTINUOUS
 62
     4
 10
-143.936
 20
529.213
 30
-19.3035
 11
-142.148
 21
576.187
 31
51.9422
 12
-130.884
 22
539.692
 32
54.9331
 13
-130.884
 23
539.692
 33
54.9331
  0
3DFACE
  8
0
  6
CONTINUOUS
 62
     4
 10
-130.884
 20
539.692
 30
54.9331
 11
-134.64
 21
578.675
 31
53.8246
 12
-142.148
 22
576.187
 32
51.9422
 13
-142.148
 23
576.187
 33
51.9422
  0
3DFACE
  8
0
  6
CONTINUOUS
 62
     4
 10
-130.884
 20
539.692
 30
54.9331
 11
-134.64
 21
578.675
 31
53.8246
 12
-123.373
 22
542.175
 32
56.8146
 13
-123.373
 23
542.175
 33
56.8146
  0
3DFACE
  8
0
  6
CONTINUOUS
 62
     4
 10
-123.373
 20
542.175
 30
56.8146
 11
-134.744
 21
578.965
 31
57.5378
 12
-134.64
 22
578.675
 32
53.8246
 13
-134.64
 23
578.675
 33
53.8246
  0
3DFACE
  8
0
  6
CONTINUOUS
 62
     4
 10
-123.373
 20
542.175
 30
56.8146
 11
-134.744
 21
578.965
 31
57.5378
 12
-123.479
 22
542.469
 32
60.5263
 13
-123.479
 23
542.469
 33
60.5263
  0
3DFACE
  8
0
  6
CONTINUOUS
 62
     4
 10
-123.479
 20
542.469
 30
60.5263
 11
-163.47
 21
570.065
 31
57.4304
 12
-134.744
 22
578.965
 32
57.5378
 13
-134.744
 23
578.965
 33
57.5378
  0
3DFACE
  8
0
  6
CONTINUOUS
 62
     4
 10
-123.479
 20
542.469
 30
60.5263
 11
-163.47
 21
570.065
 31
57.4304
 12
-152.208
 22
533.566
 32
60.4213
 13
-152.208
 23
533.566
 33
60.4213
  0
3DFACE
  8
0
  6
CONTINUOUS
 62
     4
 10
-152.208
 20
533.566
 30
60.4213
 11
-201.178
 21
553.386
 31
-0.204862
 12
-163.47
 22
570.065
 32
57.4304
 13
-163.47
 23
570.065
 33
57.4304
  0
3DFACE
  8
0
  6
CONTINUOUS
 62
     4
 10
-152.208
 20
533.566
 30
60.4213
 11
-201.178
 21
553.386
 31
-0.204862
 12
-189.918
 22
516.898
 32
2.78951
 13
-189.918
 23
516.898
 33
2.78951
  0
3DFACE
  8
0
  6
CONTINUOUS
 62
     4
 10
-189.918
 20
516.898
 30
2.78951
 11
-205.806
 21
556.95
 31
57.2751
 12
-201.178
 22
553.386
 32
-0.204862
 13
-201.178
 23
553.386
 33
-0.204862
  0
3DFACE
  8
0
  6
CONTINUOUS
 62
     4
 10
-189.918
 20
516.898
 30
2.78951
 11
-205.806
 21
556.95
 31
57.2751
 12
-194.543
 22
520.449
 32
60.267
 13
-194.543
 23
520.449
 33
60.267
  0
3DFACE
  8
0
  6
CONTINUOUS
 62
     4
 10
-194.543
 20
520.449
 30
60.267
 11
-238.368
 21
547.022
 31
59.0101
 12
-205.806
 22
556.95
 32
57.2751
 13
-205.806
 23
556.95
 33
57.2751
  0
3DFACE
  8
0
  6
CONTINUOUS
 62
     4
 10
-194.543
 20
520.449
 30
60.267
 11
-238.368
 21
547.022
 31
59.0101
 12
-227.103
 22
510.522
 32
62.0006
 13
-227.103
 23
510.522
 33
62.0006
  0
3DFACE
  8
0
  6
CONTINUOUS
 62
     4
 10
-227.103
 20
510.522
 30
62.0006
 11
-238.968
 21
546.352
 31
53.4423
 12
-238.368
 22
547.022
 32
59.0101
 13
-238.368
 23
547.022
 33
59.0101
  0
3DFACE
  8
0
  6
CONTINUOUS
 62
     4
 10
-227.103
 20
510.522
 30
62.0006
 11
-238.968
 21
546.352
 31
53.4423
 12
-227.703
 22
509.848
 32
56.4337
 13
-227.703
 23
509.848
 33
56.4337
  0
3DFACE
  8
0
  6
CONTINUOUS
 62
     4
 10
-227.703
 20
509.848
 30
56.4337
 11
-230.6
 21
548.784
 31
51.6174
 12
-238.968
 22
546.352
 32
53.4423
 13
-238.968
 23
546.352
 33
53.4423
  0
3DFACE
  8
0
  6
CONTINUOUS
 62
     4
 10
-227.703
 20
509.848
 30
56.4337
 11
-230.6
 21
548.784
 31
51.6174
 12
-219.336
 22
512.285
 32
54.6094
 13
-219.336
 23
512.285
 33
54.6094
  0
3DFACE
  8
0
  6
CONTINUOUS
 62
     4
 10
-219.336
 20
512.285
 30
54.6094
 11
-249.699
 21
536.425
 31
-22.6406
 12
-230.6
 22
548.784
 32
51.6174
 13
-230.6
 23
548.784
 33
51.6174
  0
3DFACE
  8
0
  6
CONTINUOUS
 62
     4
 10
-219.336
 20
512.285
 30
54.6094
 11
-249.699
 21
536.425
 31
-22.6406
 12
-238.438
 22
499.934
 32
-19.6507
 13
-238.438
 23
499.934
 33
-19.6507
  0
3DFACE
  8
0
  6
CONTINUOUS
 62
     4
 10
-238.438
 20
499.934
 30
-19.6507
 11
-258.617
 21
533.181
 31
-28.2402
 12
-249.699
 22
536.425
 32
-22.6406
 13
-249.699
 23
536.425
 33
-22.6406
  0
3DFACE
  8
0
  6
CONTINUOUS
 62
     4
 10
-238.438
 20
499.934
 30
-19.6507
 11
-258.617
 21
533.181
 31
-28.2402
 12
-247.356
 22
496.69
 32
-25.2448
 13
-247.356
 23
496.69
 33
-25.2448
  0
3DFACE
  8
0
  6
CONTINUOUS
 62
     4
 10
-247.356
 20
496.69
 30
-25.2448
 11
-259.27
 21
532.658
 31
-31.9499
 12
-258.617
 22
533.181
 32
-28.2402
 13
-258.617
 23
533.181
 33
-28.2402
  0
3DFACE
  8
0
  6
CONTINUOUS
 62
     4
 10
-247.356
 20
496.69
 30
-25.2448
 11
-259.27
 21
532.658
 31
-31.9499
 12
-248.007
 22
496.163
 32
-28.9609
 13
-248.007
 23
496.163
 33
-28.9609
  0
3DFACE
  8
0
  6
CONTINUOUS
 62
     4
 10
-248.007
 20
496.163
 30
-28.9609
 11
-232.054
 21
541.09
 31
-31.8528
 12
-259.27
 22
532.658
 32
-31.9499
 13
-259.27
 23
532.658
 33
-31.9499
  0
3DFACE
  8
0
  6
CONTINUOUS
 62
     4
 10
-248.007
 20
496.163
 30
-28.9609
 11
-232.054
 21
541.09
 31
-31.8528
 12
-220.791
 22
504.596
 32
-28.8608
 13
-220.791
 23
504.596
 33
-28.8608
  0
3DFACE
  8
0
  6
CONTINUOUS
 62
     4
 10
69.5948
 20
600.058
 30
35.5347
 11
40.8606
 21
628.724
 31
4.66417
 12
58.3297
 22
636.553
 32
32.5457
 13
58.3297
 23
636.553
 33
32.5457
  0
3DFACE
  8
0
  6
CONTINUOUS
 62
     4
 10
69.5948
 20
600.058
 30
35.5347
 11
40.8606
 21
628.724
 31
4.66417
 12
52.1208
 22
592.239
 32
7.65658
 13
52.1208
 23
592.239
 33
7.65658
  0
3DFACE
  8
0
  6
CONTINUOUS
 62
     4
 10
52.1208
 20
592.239
 30
7.65658
 11
58.9924
 21
634.34
 31
4.73106
 12
40.8606
 22
628.724
 32
4.66417
 13
40.8606
 23
628.724
 33
4.66417
  0
3DFACE
  8
0
  6
CONTINUOUS
 62
     4
 10
52.1208
 20
592.239
 30
7.65658
 11
58.9924
 21
634.34
 31
4.73106
 12
70.2535
 22
597.856
 32
7.72202
 13
70.2535
 23
597.856
 33
7.72202
  0
3DFACE
  8
0
  6
CONTINUOUS
 62
     4
 10
12.8668
 20
576.851
 30
-29.5865
 11
35.811
 21
623.949
 31
-32.4524
 12
1.60132
 22
613.349
 32
-32.5764
 13
1.60132
 23
613.349
 33
-32.5764
  0
3DFACE
  8
0
  6
CONTINUOUS
 62
     4
 10
12.8668
 20
576.851
 30
-29.5865
 11
35.811
 21
623.949
 31
-32.4524
 12
47.0755
 22
587.452
 32
-29.4605
 13
47.0755
 23
587.452
 33
-29.4605
  0
3DFACE
  8
0
  6
CONTINUOUS
 62
     4
 10
47.0755
 20
587.452
 30
-29.4605
 11
35.6561
 21
624.381
 31
-26.8875
 12
35.811
 22
623.949
 32
-32.4524
 13
35.811
 23
623.949
 33
-32.4524
  0
3DFACE
  8
0
  6
CONTINUOUS
 62
     4
 10
47.0755
 20
587.452
 30
-29.4605
 11
35.6561
 21
624.381
 31
-26.8875
 12
46.9197
 22
587.886
 32
-23.8966
 13
46.9197
 23
587.886
 33
-23.8966
  0
3DFACE
  8
0
  6
CONTINUOUS
 62
     4
 10
46.9197
 20
587.886
 30
-23.8966
 11
26.4318
 21
621.841
 31
-23.2129
 12
35.6561
 22
624.381
 32
-26.8875
 13
35.6561
 23
624.381
 33
-26.8875
  0
3DFACE
  8
0
  6
CONTINUOUS
 62
     4
 10
46.9197
 20
587.886
 30
-23.8966
 11
26.4318
 21
621.841
 31
-23.2129
 12
37.6934
 22
585.35
 32
-20.22
 13
37.6934
 23
585.35
 33
-20.22
  0
3DFACE
  8
0
  6
CONTINUOUS
 62
     4
 10
37.6934
 20
585.35
 30
-20.22
 11
36.5068
 21
626.729
 31
-2.77097
 12
26.4318
 22
621.841
 32
-23.2129
 13
26.4318
 23
621.841
 33
-23.2129
  0
3DFACE
  8
0
  6
CONTINUOUS
 62
     4
 10
37.6934
 20
585.35
 30
-20.22
 11
36.5068
 21
626.729
 31
-2.77097
 12
47.7674
 22
590.243
 32
0.221938
 13
47.7674
 23
590.243
 33
0.221938
  0
3DFACE
  8
0
  6
CONTINUOUS
 62
     4
 10
47.7674
 20
590.243
 30
0.221938
 11
60.7709
 21
634.086
 31
-4.53672
 12
36.5068
 22
626.729
 32
-2.77097
 13
36.5068
 23
626.729
 33
-2.77097
  0
3DFACE
  8
0
  6
CONTINUOUS
 62
     4
 10
47.7674
 20
590.243
 30
0.221938
 11
60.7709
 21
634.086
 31
-4.53672
 12
72.0329
 22
597.599
 32
-1.54578
 13
72.0329
 23
597.599
 33
-1.54578
  0
3DFACE
  8
0
  6
CONTINUOUS
 62
     4
 10
73.4237
 20
596.421
 30
-20.0882
 11
51.672
 21
629.183
 31
-28.685
 12
62.1616
 22
632.912
 32
-23.0826
 13
62.1616
 23
632.912
 33
-23.0826
  0
3DFACE
  8
0
  6
CONTINUOUS
 62
     4
 10
73.4237
 20
596.421
 30
-20.0882
 11
51.672
 21
629.183
 31
-28.685
 12
62.9346
 22
592.69
 32
-25.6936
 13
62.9346
 23
592.69
 33
-25.6936
  0
3DFACE
  8
0
  6
CONTINUOUS
 62
     4
 10
62.9346
 20
592.69
 30
-25.6936
 11
51.775
 21
628.895
 31
-32.3933
 12
51.672
 22
629.183
 32
-28.685
 13
51.672
 23
629.183
 33
-28.685
  0
3DFACE
  8
0
  6
CONTINUOUS
 62
     4
 10
62.9346
 20
592.69
 30
-25.6936
 11
51.775
 21
628.895
 31
-32.3933
 12
63.0396
 22
592.397
 32
-29.4014
 13
63.0396
 23
592.397
 33
-29.4014
  0
3DFACE
  8
0
  6
CONTINUOUS
 62
     4
 10
63.0396
 20
592.397
 30
-29.4014
 11
93.5888
 21
641.849
 31
-32.2405
 12
51.775
 22
628.895
 32
-32.3933
 13
51.775
 23
628.895
 33
-32.3933
  0
3DFACE
  8
0
  6
CONTINUOUS
 62
     4
 10
63.0396
 20
592.397
 30
-29.4014
 11
93.5888
 21
641.849
 31
-32.2405
 12
104.852
 22
605.353
 32
-29.249
 13
104.852
 23
605.353
 33
-29.249
  0
3DFACE
  8
0
  6
CONTINUOUS
 62
     4
 10
104.852
 20
605.353
 30
-29.249
 11
94.1933
 21
642.518
 31
-26.6741
 12
93.5888
 22
641.849
 32
-32.2405
 13
93.5888
 23
641.849
 33
-32.2405
  0
3DFACE
  8
0
  6
CONTINUOUS
 62
     4
 10
104.852
 20
605.353
 30
-29.249
 11
94.1933
 21
642.518
 31
-26.6741
 12
105.457
 22
606.024
 32
-23.6817
 13
105.457
 23
606.024
 33
-23.6817
  0
3DFACE
  8
0
  6
CONTINUOUS
 62
     4
 10
105.457
 20
606.024
 30
-23.6817
 11
88.0102
 21
640.919
 31
-22.9873
 12
94.1933
 22
642.518
 32
-26.6741
 13
94.1933
 23
642.518
 33
-26.6741
  0
3DFACE
  8
0
  6
CONTINUOUS
 62
     4
 10
105.457
 20
606.024
 30
-23.6817
 11
88.0102
 21
640.919
 31
-22.9873
 12
99.2718
 22
604.429
 32
-19.9944
 13
99.2718
 23
604.429
 33
-19.9944
  0
3DFACE
  8
0
  6
CONTINUOUS
 62
     4
 10
99.2718
 20
604.429
 30
-19.9944
 11
81.9839
 21
645.978
 31
56.7424
 12
88.0102
 22
640.919
 32
-22.9873
 13
88.0102
 23
640.919
 33
-22.9873
  0
3DFACE
  8
0
  6
CONTINUOUS
 62
     4
 10
99.2718
 20
604.429
 30
-19.9944
 11
81.9839
 21
645.978
 31
56.7424
 12
93.2474
 22
609.482
 32
59.7357
 13
93.2474
 23
609.482
 33
59.7357
  0
3DFACE
  8
0
  6
CONTINUOUS
 62
     4
 10
93.2474
 20
609.482
 30
59.7357
 11
76.5577
 21
644.623
 31
60.4331
 12
81.9839
 22
645.978
 32
56.7424
 13
81.9839
 23
645.978
 33
56.7424
  0
3DFACE
  8
0
  6
CONTINUOUS
 62
     4
 10
93.2474
 20
609.482
 30
59.7357
 11
76.5577
 21
644.623
 31
60.4331
 12
87.8237
 22
608.122
 32
63.425
 13
87.8237
 23
608.122
 33
63.425
  0
3DFACE
  8
0
  6
CONTINUOUS
 62
     4
 10
87.8237
 20
608.122
 30
63.425
 11
68.2993
 21
641.738
 31
56.6916
 12
76.5577
 22
644.623
 32
60.4331
 13
76.5577
 23
644.623
 33
60.4331
  0
3DFACE
  8
0
  6
CONTINUOUS
 62
     4
 10
87.8237
 20
608.122
 30
63.425
 11
68.2993
 21
641.738
 31
56.6916
 12
79.5628
 22
605.241
 32
59.6859
 13
79.5628
 23
605.241
 33
59.6859
  0
3DFACE
  8
0
  6
CONTINUOUS
 62
     4
 10
79.5628
 20
605.241
 30
59.6859
 11
13.5075
 21
617.837
 31
-23.2598
 12
68.2993
 22
641.738
 32
56.6916
 13
68.2993
 23
641.738
 33
56.6916
  0
3DFACE
  8
0
  6
CONTINUOUS
 62
     4
 10
79.5628
 20
605.241
 30
59.6859
 11
13.5075
 21
617.837
 31
-23.2598
 12
24.7686
 22
581.347
 32
-20.2674
 13
24.7686
 23
581.347
 33
-20.2674
  0
3DFACE
  8
0
  6
CONTINUOUS
 62
     4
 10
24.7686
 20
581.347
 30
-20.2674
 11
1.44797
 21
613.783
 31
-27.0135
 12
13.5075
 22
617.837
 32
-23.2598
 13
13.5075
 23
617.837
 33
-23.2598
  0
3DFACE
  8
0
  6
CONTINUOUS
 62
     4
 10
24.7686
 20
581.347
 30
-20.2674
 11
1.44797
 21
613.783
 31
-27.0135
 12
12.7086
 22
577.288
 32
-24.0216
 13
12.7086
 23
577.288
 33
-24.0216
  0
3DFACE
  8
0
  6
CONTINUOUS
 62
     4
 10
12.7086
 20
577.288
 30
-24.0216
 11
1.60132
 21
613.349
 31
-32.5764
 12
1.44797
 22
613.783
 32
-27.0135
 13
1.44797
 23
613.783
 33
-27.0135
  0
3DFACE
  8
0
  6
CONTINUOUS
 62
     4
 10
12.7086
 20
577.288
 30
-24.0216
 11
1.60132
 21
613.349
 31
-32.5764
 12
12.8668
 22
576.851
 32
-29.5865
 13
12.8668
 23
576.851
 33
-29.5865
  0
3DFACE
  8
0
  6
CONTINUOUS
 62
     4
 10
70.2535
 20
597.856
 30
7.72202
 11
60.7709
 21
634.086
 31
-4.53672
 12
58.9924
 22
634.34
 32
4.73106
 13
58.9924
 23
634.34
 33
4.73106
  0
3DFACE
  8
0
  6
CONTINUOUS
 62
     4
 10
70.2535
 20
597.856
 30
7.72202
 11
60.7709
 21
634.086
 31
-4.53672
 12
72.0329
 22
597.599
 32
-1.54578
 13
72.0329
 23
597.599
 33
-1.54578
  0
3DFACE
  8
0
  6
CONTINUOUS
 62
     4
 10
71.1286
 20
598.127
 30
7.72446
 11
61.6464
 21
634.357
 31
-4.53429
 12
59.8684
 22
634.612
 32
4.73302
 13
59.8684
 23
634.612
 33
4.73302
  0
3DFACE
  8
0
  6
CONTINUOUS
 62
     4
 10
71.1286
 20
598.127
 30
7.72446
 11
61.6464
 21
634.357
 31
-4.53429
 12
72.9075
 22
597.87
 32
-1.54138
 13
72.9075
 23
597.87
 33
-1.54138
  0
3DFACE
  8
0
  6
CONTINUOUS
 62
     4
 10
69.5948
 20
600.058
 30
35.5347
 11
59.8684
 21
634.612
 31
4.73302
 12
58.3297
 22
636.553
 32
32.5457
 13
58.3297
 23
636.553
 33
32.5457
  0
3DFACE
  8
0
  6
CONTINUOUS
 62
     4
 10
69.5948
 20
600.058
 30
35.5347
 11
59.8684
 21
634.612
 31
4.73302
 12
71.1286
 22
598.127
 32
7.72446
 13
71.1286
 23
598.127
 33
7.72446
  0
3DFACE
  8
0
  6
CONTINUOUS
 62
     4
 10
73.4237
 20
596.421
 30
-20.0882
 11
61.6464
 21
634.357
 31
-4.53429
 12
62.1616
 22
632.912
 32
-23.0826
 13
62.1616
 23
632.912
 33
-23.0826
  0
3DFACE
  8
0
  6
CONTINUOUS
 62
     4
 10
73.4237
 20
596.421
 30
-20.0882
 11
61.6464
 21
634.357
 31
-4.53429
 12
72.9075
 22
597.87
 32
-1.54138
 13
72.9075
 23
597.87
 33
-1.54138
  0
3DFACE
  8
0
  6
CONTINUOUS
 62
     4
 10
-286.439
 20
485.107
 30
-19.2815
 11
-298.215
 21
523.043
 31
-3.72808
 12
-297.701
 22
521.601
 32
-22.2724
 13
-297.701
 23
521.601
 33
-22.2724
  0
3DFACE
  8
0
  6
CONTINUOUS
 62
     4
 10
-286.439
 20
485.107
 30
-19.2815
 11
-298.215
 21
523.043
 31
-3.72808
 12
-286.955
 22
486.558
 32
-0.735169
 13
-286.955
 23
486.558
 33
-0.735169
  0
3DFACE
  8
0
  6
CONTINUOUS
 62
     4
 10
-290.27
 20
488.743
 30
36.3414
 11
-299.996
 21
523.299
 31
5.54071
 12
-301.533
 22
525.243
 32
33.3524
 13
-301.533
 23
525.243
 33
33.3524
  0
3DFACE
  8
0
  6
CONTINUOUS
 62
     4
 10
-290.27
 20
488.743
 30
36.3414
 11
-299.996
 21
523.299
 31
5.54071
 12
-288.735
 22
486.81
 32
8.53068
 13
-288.735
 23
486.81
 33
8.53068
  0
3DFACE
  8
0
  6
CONTINUOUS
 62
     4
 10
-288.735
 20
486.81
 30
8.53068
 11
-298.215
 21
523.043
 31
-3.72808
 12
-299.996
 22
523.299
 32
5.54071
 13
-299.996
 23
523.299
 33
5.54071
  0
3DFACE
  8
0
  6
CONTINUOUS
 62
     4
 10
-288.735
 20
486.81
 30
8.53068
 11
-298.215
 21
523.043
 31
-3.72808
 12
-286.955
 22
486.558
 32
-0.735169
 13
-286.955
 23
486.558
 33
-0.735169
  0
3DFACE
  8
0
  6
CONTINUOUS
 62
     4
 10
-289.608
 20
486.538
 30
8.52872
 11
-299.09
 21
522.772
 31
-3.731
 12
-300.87
 22
523.029
 32
5.53777
 13
-300.87
 23
523.029
 33
5.53777
  0
3DFACE
  8
0
  6
CONTINUOUS
 62
     4
 10
-289.608
 20
486.538
 30
8.52872
 11
-299.09
 21
522.772
 31
-3.731
 12
-287.831
 22
486.289
 32
-0.737615
 13
-287.831
 23
486.289
 33
-0.737615
  0
3DFACE
  8
0
  6
CONTINUOUS
 62
     4
 10
-347.152
 20
465.974
 30
-23.2129
 11
-358.26
 21
502.033
 31
-31.7697
 12
-358.414
 22
502.464
 32
-26.2054
 13
-358.414
 23
502.464
 33
-26.2054
  0
3DFACE
  8
0
  6
CONTINUOUS
 62
     4
 10
-347.152
 20
465.974
 30
-23.2129
 11
-358.26
 21
502.033
 31
-31.7697
 12
-346.996
 22
465.537
 32
-28.7803
 13
-346.996
 23
465.537
 33
-28.7803
  0
3DFACE
  8
0
  6
CONTINUOUS
 62
     4
 10
-335.091
 20
470.032
 30
-19.4612
 11
-358.414
 21
502.464
 31
-26.2054
 12
-346.356
 22
506.525
 32
-22.4516
 13
-346.356
 23
506.525
 33
-22.4516
  0
3DFACE
  8
0
  6
CONTINUOUS
 62
     4
 10
-335.091
 20
470.032
 30
-19.4612
 11
-358.414
 21
502.464
 31
-26.2054
 12
-347.152
 22
465.974
 32
-23.2129
 13
-347.152
 23
465.974
 33
-23.2129
  0
3DFACE
  8
0
  6
CONTINUOUS
 62
     4
 10
-280.3
 20
493.925
 30
60.4961
 11
-346.356
 21
506.525
 31
-22.4516
 12
-291.563
 22
530.426
 32
57.5041
 13
-291.563
 23
530.426
 33
57.5041
  0
3DFACE
  8
0
  6
CONTINUOUS
 62
     4
 10
-280.3
 20
493.925
 30
60.4961
 11
-346.356
 21
506.525
 31
-22.4516
 12
-335.091
 22
470.032
 32
-19.4612
 13
-335.091
 23
470.032
 33
-19.4612
  0
3DFACE
  8
0
  6
CONTINUOUS
 62
     4
 10
-272.041
 20
496.805
 30
64.2341
 11
-291.563
 21
530.426
 31
57.5041
 12
-283.303
 22
533.304
 32
61.2422
 13
-283.303
 23
533.304
 33
61.2422
  0
3DFACE
  8
0
  6
CONTINUOUS
 62
     4
 10
-272.041
 20
496.805
 30
64.2341
 11
-291.563
 21
530.426
 31
57.5041
 12
-280.3
 22
493.925
 32
60.4961
 13
-280.3
 23
493.925
 33
60.4961
  0
3DFACE
  8
0
  6
CONTINUOUS
 62
     4
 10
-266.615
 20
498.166
 30
60.5454
 11
-283.303
 21
533.304
 31
61.2422
 12
-277.881
 22
534.665
 32
57.5525
 13
-277.881
 23
534.665
 33
57.5525
  0
3DFACE
  8
0
  6
CONTINUOUS
 62
     4
 10
-266.615
 20
498.166
 30
60.5454
 11
-283.303
 21
533.304
 31
61.2422
 12
-272.041
 22
496.805
 32
64.2341
 13
-272.041
 23
496.805
 33
64.2341
  0
3DFACE
  8
0
  6
CONTINUOUS
 62
     4
 10
-260.59
 20
493.115
 30
-19.1882
 11
-277.881
 21
534.665
 31
57.5525
 12
-271.854
 22
529.608
 32
-22.1772
 13
-271.854
 23
529.608
 33
-22.1772
  0
3DFACE
  8
0
  6
CONTINUOUS
 62
     4
 10
-260.59
 20
493.115
 30
-19.1882
 11
-277.881
 21
534.665
 31
57.5525
 12
-266.615
 22
498.166
 32
60.5454
 13
-266.615
 23
498.166
 33
60.5454
  0
3DFACE
  8
0
  6
CONTINUOUS
 62
     4
 10
-254.407
 20
494.708
 30
-22.874
 11
-271.854
 21
529.608
 31
-22.1772
 12
-265.669
 22
531.201
 32
-25.8665
 13
-265.669
 23
531.201
 33
-25.8665
  0
3DFACE
  8
0
  6
CONTINUOUS
 62
     4
 10
-254.407
 20
494.708
 30
-22.874
 11
-271.854
 21
529.608
 31
-22.1772
 12
-260.59
 22
493.115
 32
-19.1882
 13
-260.59
 23
493.115
 33
-19.1882
  0
3DFACE
  8
0
  6
CONTINUOUS
 62
     4
 10
-255.012
 20
494.039
 30
-28.4428
 11
-265.669
 21
531.201
 31
-25.8665
 12
-266.274
 22
530.534
 32
-31.4348
 13
-266.274
 23
530.534
 33
-31.4348
  0
3DFACE
  8
0
  6
CONTINUOUS
 62
     4
 10
-255.012
 20
494.039
 30
-28.4428
 11
-265.669
 21
531.201
 31
-25.8665
 12
-254.407
 22
494.708
 32
-22.874
 13
-254.407
 23
494.708
 33
-22.874
  0
3DFACE
  8
0
  6
CONTINUOUS
 62
     4
 10
-296.824
 20
481.082
 30
-28.5957
 11
-266.274
 21
530.534
 31
-31.4348
 12
-308.088
 22
517.579
 32
-31.5871
 13
-308.088
 23
517.579
 33
-31.5871
  0
3DFACE
  8
0
  6
CONTINUOUS
 62
     4
 10
-296.824
 20
481.082
 30
-28.5957
 11
-266.274
 21
530.534
 31
-31.4348
 12
-255.012
 22
494.039
 32
-28.4428
 13
-255.012
 23
494.039
 33
-28.4428
  0
3DFACE
  8
0
  6
CONTINUOUS
 62
     4
 10
-296.927
 20
481.375
 30
-24.8854
 11
-308.088
 21
517.579
 31
-31.5871
 12
-296.824
 22
481.082
 32
-28.5957
 13
-296.824
 23
481.082
 33
-28.5957
  0
3DFACE
  8
0
  6
CONTINUOUS
 62
     4
 10
-286.439
 20
485.107
 30
-19.2815
 11
-308.191
 21
517.869
 31
-27.8774
 12
-297.701
 22
521.601
 32
-22.2724
 13
-297.701
 23
521.601
 33
-22.2724
  0
3DFACE
  8
0
  6
CONTINUOUS
 62
     4
 10
-286.439
 20
485.107
 30
-19.2815
 11
-308.191
 21
517.869
 31
-27.8774
 12
-296.927
 22
481.375
 32
-24.8854
 13
-296.927
 23
481.375
 33
-24.8854
  0
3DFACE
  8
0
  6
CONTINUOUS
 62
     4
 10
-312.097
 20
478.931
 30
1.02912
 11
-299.09
 21
522.772
 31
-3.731
 12
-323.356
 22
515.416
 32
-1.96426
 13
-323.356
 23
515.416
 33
-1.96426
  0
3DFACE
  8
0
  6
CONTINUOUS
 62
     4
 10
-312.097
 20
478.931
 30
1.02912
 11
-299.09
 21
522.772
 31
-3.731
 12
-287.831
 22
486.289
 32
-0.737615
 13
-287.831
 23
486.289
 33
-0.737615
  0
3DFACE
  8
0
  6
CONTINUOUS
 62
     4
 10
-322.169
 20
474.036
 30
-19.4124
 11
-323.356
 21
515.416
 31
-1.96426
 12
-333.431
 22
510.528
 32
-22.4038
 13
-333.431
 23
510.528
 33
-22.4038
  0
3DFACE
  8
0
  6
CONTINUOUS
 62
     4
 10
-322.169
 20
474.036
 30
-19.4124
 11
-323.356
 21
515.416
 31
-1.96426
 12
-312.097
 22
478.931
 32
1.02912
 13
-312.097
 23
478.931
 33
1.02912
  0
3DFACE
  8
0
  6
CONTINUOUS
 62
     4
 10
-312.943
 20
476.572
 30
-23.0874
 11
-333.431
 21
510.528
 31
-22.4038
 12
-324.205
 22
513.065
 32
-26.0803
 13
-324.205
 23
513.065
 33
-26.0803
  0
3DFACE
  8
0
  6
CONTINUOUS
 62
     4
 10
-312.943
 20
476.572
 30
-23.0874
 11
-333.431
 21
510.528
 31
-22.4038
 12
-322.169
 22
474.036
 32
-19.4124
 13
-322.169
 23
474.036
 33
-19.4124
  0
3DFACE
  8
0
  6
CONTINUOUS
 62
     4
 10
-312.787
 20
476.136
 30
-28.6543
 11
-324.205
 21
513.065
 31
-26.0803
 12
-324.05
 22
512.634
 32
-31.6462
 13
-324.05
 23
512.634
 33
-31.6462
  0
3DFACE
  8
0
  6
CONTINUOUS
 62
     4
 10
-312.787
 20
476.136
 30
-28.6543
 11
-324.205
 21
513.065
 31
-26.0803
 12
-312.943
 22
476.572
 32
-23.0874
 13
-312.943
 23
476.572
 33
-23.0874
  0
3DFACE
  8
0
  6
CONTINUOUS
 62
     4
 10
-346.996
 20
465.537
 30
-28.7803
 11
-324.05
 21
512.634
 31
-31.6462
 12
-358.26
 22
502.033
 32
-31.7697
 13
-358.26
 23
502.033
 33
-31.7697
  0
3DFACE
  8
0
  6
CONTINUOUS
 62
     4
 10
-346.996
 20
465.537
 30
-28.7803
 11
-324.05
 21
512.634
 31
-31.6462
 12
-312.787
 22
476.136
 32
-28.6543
 13
-312.787
 23
476.136
 33
-28.6543
  0
3DFACE
  8
0
  6
CONTINUOUS
 62
     4
 10
-307.738
 20
480.92
 30
8.46182
 11
-300.87
 21
523.029
 31
5.53777
 12
-319.001
 22
517.411
 32
5.47185
 13
-319.001
 23
517.411
 33
5.47185
  0
3DFACE
  8
0
  6
CONTINUOUS
 62
     4
 10
-307.738
 20
480.92
 30
8.46182
 11
-300.87
 21
523.029
 31
5.53777
 12
-289.608
 22
486.538
 32
8.52872
 13
-289.608
 23
486.538
 33
8.52872
  0
3DFACE
  8
0
  6
CONTINUOUS
 62
     4
 10
-290.27
 20
488.743
 30
36.3414
 11
-319.001
 21
517.411
 31
5.47185
 12
-301.533
 22
525.243
 32
33.3524
 13
-301.533
 23
525.243
 33
33.3524
  0
3DFACE
  8
0
  6
CONTINUOUS
 62
     4
 10
-290.27
 20
488.743
 30
36.3414
 11
-319.001
 21
517.411
 31
5.47185
 12
-307.738
 22
480.92
 32
8.46182
 13
-307.738
 23
480.92
 33
8.46182
  0
ENDSEC
  0
EOF
