  0
SECTION
  2
ENTITIES
  0
3DFACE
  8
0
  6
CONTINUOUS
 62
     4
 10
44.7054
 20
32.7144
 30
-81.6232
 11
47.0061
 21
0.001
 31
-85.8237
 12
47.0058
 22
0.000892308
 32
-85.8238
 13
47.0058
 23
0.000892308
 33
-85.8238
  0
3DFACE
  8
0
  6
CONTINUOUS
 62
     4
 10
34.6799
 20
30.7414
 30
-86.118
 11
47.0058
 21
0.000892308
 31
-85.8238
 12
44.7054
 22
32.7144
 32
-81.6232
 13
44.7054
 23
32.7144
 33
-81.6232
  0
3DFACE
  8
0
  6
CONTINUOUS
 62
     4
 10
34.6799
 20
30.7414
 30
-86.118
 11
47.0058
 21
0.000892308
 31
-85.8238
 12
25.8636
 22
25.0607
 32
-90.0709
 13
25.8636
 23
25.0607
 33
-90.0709
  0
3DFACE
  8
0
  6
CONTINUOUS
 62
     4
 10
25.8636
 20
25.0607
 30
-90.0709
 11
47.0056
 21
0.0008
 31
-85.8239
 12
47.0058
 22
0.000892308
 32
-85.8238
 13
47.0058
 23
0.000892308
 33
-85.8238
  0
3DFACE
  8
0
  6
CONTINUOUS
 62
     4
 10
25.8636
 20
25.0607
 30
-90.0709
 11
47.0056
 21
0.0008
 31
-85.8239
 12
19.3199
 22
16.3572
 32
-93.0048
 13
19.3199
 23
16.3572
 33
-93.0048
  0
3DFACE
  8
0
  6
CONTINUOUS
 62
     4
 10
19.3199
 20
16.3572
 30
-93.0048
 11
47.0052
 21
0.000492308
 31
-85.8241
 12
47.0056
 22
0.0008
 32
-85.8239
 13
47.0056
 23
0.0008
 33
-85.8239
  0
3DFACE
  8
0
  6
CONTINUOUS
 62
     4
 10
19.3199
 20
16.3572
 30
-93.0048
 11
47.0052
 21
0.000492308
 31
-85.8241
 12
15.8381
 22
5.68075
 32
-94.5658
 13
15.8381
 23
5.68075
 33
-94.5658
  0
3DFACE
  8
0
  6
CONTINUOUS
 62
     4
 10
15.8381
 20
5.68075
 30
-94.5658
 11
47.0051
 21
0.0002
 31
-85.8241
 12
47.0052
 22
0.000492308
 32
-85.8241
 13
47.0052
 23
0.000492308
 33
-85.8241
  0
3DFACE
  8
0
  6
CONTINUOUS
 62
     4
 10
15.8381
 20
5.68075
 30
-94.5658
 11
47.0051
 21
0.0002
 31
-85.8241
 12
15.8381
 22
-5.68075
 32
-94.5658
 13
15.8381
 23
-5.68075
 33
-94.5658
  0
3DFACE
  8
0
  6
CONTINUOUS
 62
     4
 10
15.8381
 20
-5.68075
 30
-94.5658
 11
47.0051
 21
-0.0002
 31
-85.8241
 12
15.8381
 22
5.68075
 32
-94.5658
 13
15.8381
 23
5.68075
 33
-94.5658
  0
3DFACE
  8
0
  6
CONTINUOUS
 62
     4
 10
15.8381
 20
-5.68075
 30
-94.5658
 11
47.0051
 21
-0.0002
 31
-85.8241
 12
47.0052
 22
-0.000492308
 32
-85.8241
 13
47.0052
 23
-0.000492308
 33
-85.8241
  0
3DFACE
  8
0
  6
CONTINUOUS
 62
     4
 10
19.3199
 20
-16.3572
 30
-93.0048
 11
47.0052
 21
-0.000492308
 31
-85.8241
 12
15.8381
 22
-5.68075
 32
-94.5658
 13
15.8381
 23
-5.68075
 33
-94.5658
  0
3DFACE
  8
0
  6
CONTINUOUS
 62
     4
 10
19.3199
 20
-16.3572
 30
-93.0048
 11
47.0052
 21
-0.000492308
 31
-85.8241
 12
47.0056
 22
-0.0008
 32
-85.8239
 13
47.0056
 23
-0.0008
 33
-85.8239
  0
3DFACE
  8
0
  6
CONTINUOUS
 62
     4
 10
25.8636
 20
-25.0607
 30
-90.0709
 11
47.0056
 21
-0.0008
 31
-85.8239
 12
19.3199
 22
-16.3572
 32
-93.0048
 13
19.3199
 23
-16.3572
 33
-93.0048
  0
3DFACE
  8
0
  6
CONTINUOUS
 62
     4
 10
25.8636
 20
-25.0607
 30
-90.0709
 11
47.0056
 21
-0.0008
 31
-85.8239
 12
47.0058
 22
-0.000892308
 32
-85.8238
 13
47.0058
 23
-0.000892308
 33
-85.8238
  0
3DFACE
  8
0
  6
CONTINUOUS
 62
     4
 10
34.6799
 20
-30.7414
 30
-86.118
 11
47.0058
 21
-0.000892308
 31
-85.8238
 12
25.8636
 22
-25.0607
 32
-90.0709
 13
25.8636
 23
-25.0607
 33
-90.0709
  0
3DFACE
  8
0
  6
CONTINUOUS
 62
     4
 10
34.6799
 20
-30.7414
 30
-86.118
 11
47.0058
 21
-0.000892308
 31
-85.8238
 12
44.7054
 22
-32.7144
 32
-81.6232
 13
44.7054
 23
-32.7144
 33
-81.6232
  0
3DFACE
  8
0
  6
CONTINUOUS
 62
     4
 10
44.7054
 20
-32.7144
 30
-81.6232
 11
47.0061
 21
-0.001
 31
-85.8237
 12
47.0058
 22
-0.000892308
 32
-85.8238
 13
47.0058
 23
-0.000892308
 33
-85.8238
  0
3DFACE
  8
0
  6
CONTINUOUS
 62
     4
 10
44.7054
 20
-32.7144
 30
-81.6232
 11
47.0061
 21
-0.001
 31
-85.8237
 12
54.7309
 22
-30.7414
 32
-77.1282
 13
54.7309
 23
-30.7414
 33
-77.1282
  0
3DFACE
  8
0
  6
CONTINUOUS
 62
     4
 10
47.0064
 20
-0.000892308
 30
-85.8236
 11
54.7309
 21
-30.7414
 31
-77.1282
 12
47.0061
 22
-0.001
 32
-85.8237
 13
47.0061
 23
-0.001
 33
-85.8237
  0
3DFACE
  8
0
  6
CONTINUOUS
 62
     4
 10
47.0064
 20
-0.000892308
 30
-85.8236
 11
54.7309
 21
-30.7414
 31
-77.1282
 12
63.5472
 22
-25.0607
 32
-73.1755
 13
63.5472
 23
-25.0607
 33
-73.1755
  0
3DFACE
  8
0
  6
CONTINUOUS
 62
     4
 10
47.0066
 20
-0.0008
 30
-85.8234
 11
63.5472
 21
-25.0607
 31
-73.1755
 12
47.0064
 22
-0.000892308
 32
-85.8236
 13
47.0064
 23
-0.000892308
 33
-85.8236
  0
3DFACE
  8
0
  6
CONTINUOUS
 62
     4
 10
47.0066
 20
-0.0008
 30
-85.8234
 11
63.5472
 21
-25.0607
 31
-73.1755
 12
70.091
 22
-16.3572
 32
-70.2416
 13
70.091
 23
-16.3572
 33
-70.2416
  0
3DFACE
  8
0
  6
CONTINUOUS
 62
     4
 10
47.007
 20
-0.000492308
 30
-85.8233
 11
70.091
 21
-16.3572
 31
-70.2416
 12
47.0066
 22
-0.0008
 32
-85.8234
 13
47.0066
 23
-0.0008
 33
-85.8234
  0
3DFACE
  8
0
  6
CONTINUOUS
 62
     4
 10
47.007
 20
-0.000492308
 30
-85.8233
 11
70.091
 21
-16.3572
 31
-70.2416
 12
73.5727
 22
-5.68075
 32
-68.6805
 13
73.5727
 23
-5.68075
 33
-68.6805
  0
3DFACE
  8
0
  6
CONTINUOUS
 62
     4
 10
47.007
 20
-0.0002
 30
-85.8232
 11
73.5727
 21
-5.68075
 31
-68.6805
 12
47.007
 22
-0.000492308
 32
-85.8233
 13
47.007
 23
-0.000492308
 33
-85.8233
  0
3DFACE
  8
0
  6
CONTINUOUS
 62
     4
 10
47.007
 20
-0.0002
 30
-85.8232
 11
73.5727
 21
-5.68075
 31
-68.6805
 12
73.5727
 22
5.68075
 32
-68.6805
 13
73.5727
 23
5.68075
 33
-68.6805
  0
3DFACE
  8
0
  6
CONTINUOUS
 62
     4
 10
47.007
 20
0.0002
 30
-85.8232
 11
73.5727
 21
5.68075
 31
-68.6805
 12
73.5727
 22
-5.68075
 32
-68.6805
 13
73.5727
 23
-5.68075
 33
-68.6805
  0
3DFACE
  8
0
  6
CONTINUOUS
 62
     4
 10
47.007
 20
0.0002
 30
-85.8232
 11
73.5727
 21
5.68075
 31
-68.6805
 12
47.007
 22
0.000492308
 32
-85.8233
 13
47.007
 23
0.000492308
 33
-85.8233
  0
3DFACE
  8
0
  6
CONTINUOUS
 62
     4
 10
47.007
 20
0.000492308
 30
-85.8233
 11
70.091
 21
16.3572
 31
-70.2416
 12
73.5727
 22
5.68075
 32
-68.6805
 13
73.5727
 23
5.68075
 33
-68.6805
  0
3DFACE
  8
0
  6
CONTINUOUS
 62
     4
 10
47.007
 20
0.000492308
 30
-85.8233
 11
70.091
 21
16.3572
 31
-70.2416
 12
47.0066
 22
0.0008
 32
-85.8234
 13
47.0066
 23
0.0008
 33
-85.8234
  0
3DFACE
  8
0
  6
CONTINUOUS
 62
     4
 10
47.0066
 20
0.0008
 30
-85.8234
 11
63.5472
 21
25.0607
 31
-73.1755
 12
70.091
 22
16.3572
 32
-70.2416
 13
70.091
 23
16.3572
 33
-70.2416
  0
3DFACE
  8
0
  6
CONTINUOUS
 62
     4
 10
47.0066
 20
0.0008
 30
-85.8234
 11
63.5472
 21
25.0607
 31
-73.1755
 12
47.0064
 22
0.000892308
 32
-85.8236
 13
47.0064
 23
0.000892308
 33
-85.8236
  0
3DFACE
  8
0
  6
CONTINUOUS
 62
     4
 10
47.0064
 20
0.000892308
 30
-85.8236
 11
54.7309
 21
30.7414
 31
-77.1282
 12
63.5472
 22
25.0607
 32
-73.1755
 13
63.5472
 23
25.0607
 33
-73.1755
  0
3DFACE
  8
0
  6
CONTINUOUS
 62
     4
 10
47.0064
 20
0.000892308
 30
-85.8236
 11
54.7309
 21
30.7414
 31
-77.1282
 12
47.0061
 22
0.001
 32
-85.8237
 13
47.0061
 23
0.001
 33
-85.8237
  0
3DFACE
  8
0
  6
CONTINUOUS
 62
     4
 10
44.7054
 20
32.7144
 30
-81.6232
 11
47.0061
 21
0.001
 31
-85.8237
 12
54.7309
 22
30.7414
 32
-77.1282
 13
54.7309
 23
30.7414
 33
-77.1282
  0
3DFACE
  8
0
  6
CONTINUOUS
 62
     4
 10
38.0288
 20
62.2263
 30
-69.4328
 11
44.7054
 21
32.7144
 31
-81.6232
 12
34.6799
 22
30.7414
 32
-86.118
 13
34.6799
 23
30.7414
 33
-86.118
  0
3DFACE
  8
0
  6
CONTINUOUS
 62
     4
 10
18.9591
 20
58.4736
 30
-77.9827
 11
34.6799
 21
30.7414
 31
-86.118
 12
38.0288
 22
62.2263
 32
-69.4328
 13
38.0288
 23
62.2263
 33
-69.4328
  0
3DFACE
  8
0
  6
CONTINUOUS
 62
     4
 10
18.9591
 20
58.4736
 30
-77.9827
 11
34.6799
 21
30.7414
 31
-86.118
 12
25.8636
 22
25.0607
 32
-90.0709
 13
25.8636
 23
25.0607
 33
-90.0709
  0
3DFACE
  8
0
  6
CONTINUOUS
 62
     4
 10
2.18949
 20
47.6682
 30
-85.5013
 11
25.8636
 21
25.0607
 31
-90.0709
 12
18.9591
 22
58.4736
 32
-77.9827
 13
18.9591
 23
58.4736
 33
-77.9827
  0
3DFACE
  8
0
  6
CONTINUOUS
 62
     4
 10
2.18949
 20
47.6682
 30
-85.5013
 11
25.8636
 21
25.0607
 31
-90.0709
 12
19.3199
 22
16.3572
 32
-93.0048
 13
19.3199
 23
16.3572
 33
-93.0048
  0
3DFACE
  8
0
  6
CONTINUOUS
 62
     4
 10
-10.2573
 20
31.1133
 30
-91.0818
 11
19.3199
 21
16.3572
 31
-93.0048
 12
2.18949
 22
47.6682
 32
-85.5013
 13
2.18949
 23
47.6682
 33
-85.5013
  0
3DFACE
  8
0
  6
CONTINUOUS
 62
     4
 10
-10.2573
 20
31.1133
 30
-91.0818
 11
19.3199
 21
16.3572
 31
-93.0048
 12
15.8381
 22
5.68075
 32
-94.5658
 13
15.8381
 23
5.68075
 33
-94.5658
  0
3DFACE
  8
0
  6
CONTINUOUS
 62
     4
 10
-16.88
 20
10.8055
 30
-94.0511
 11
15.8381
 21
5.68075
 31
-94.5658
 12
-10.2573
 22
31.1133
 32
-91.0818
 13
-10.2573
 23
31.1133
 33
-91.0818
  0
3DFACE
  8
0
  6
CONTINUOUS
 62
     4
 10
-16.88
 20
10.8055
 30
-94.0511
 11
15.8381
 21
5.68075
 31
-94.5658
 12
-16.88
 22
-10.8055
 32
-94.0511
 13
-16.88
 23
-10.8055
 33
-94.0511
  0
3DFACE
  8
0
  6
CONTINUOUS
 62
     4
 10
-16.88
 20
-10.8055
 30
-94.0511
 11
15.8381
 21
-5.68075
 31
-94.5658
 12
-16.88
 22
10.8055
 32
-94.0511
 13
-16.88
 23
10.8055
 33
-94.0511
  0
3DFACE
  8
0
  6
CONTINUOUS
 62
     4
 10
-16.88
 20
-10.8055
 30
-94.0511
 11
15.8381
 21
-5.68075
 31
-94.5658
 12
-10.2573
 22
-31.1133
 32
-91.0818
 13
-10.2573
 23
-31.1133
 33
-91.0818
  0
3DFACE
  8
0
  6
CONTINUOUS
 62
     4
 10
-10.2573
 20
-31.1133
 30
-91.0818
 11
19.3199
 21
-16.3572
 31
-93.0048
 12
15.8381
 22
-5.68075
 32
-94.5658
 13
15.8381
 23
-5.68075
 33
-94.5658
  0
3DFACE
  8
0
  6
CONTINUOUS
 62
     4
 10
-10.2573
 20
-31.1133
 30
-91.0818
 11
19.3199
 21
-16.3572
 31
-93.0048
 12
2.18949
 22
-47.6682
 32
-85.5013
 13
2.18949
 23
-47.6682
 33
-85.5013
  0
3DFACE
  8
0
  6
CONTINUOUS
 62
     4
 10
2.18949
 20
-47.6682
 30
-85.5013
 11
25.8636
 21
-25.0607
 31
-90.0709
 12
19.3199
 22
-16.3572
 32
-93.0048
 13
19.3199
 23
-16.3572
 33
-93.0048
  0
3DFACE
  8
0
  6
CONTINUOUS
 62
     4
 10
2.18949
 20
-47.6682
 30
-85.5013
 11
25.8636
 21
-25.0607
 31
-90.0709
 12
18.9591
 22
-58.4736
 32
-77.9827
 13
18.9591
 23
-58.4736
 33
-77.9827
  0
3DFACE
  8
0
  6
CONTINUOUS
 62
     4
 10
18.9591
 20
-58.4736
 30
-77.9827
 11
34.6799
 21
-30.7414
 31
-86.118
 12
25.8636
 22
-25.0607
 32
-90.0709
 13
25.8636
 23
-25.0607
 33
-90.0709
  0
3DFACE
  8
0
  6
CONTINUOUS
 62
     4
 10
18.9591
 20
-58.4736
 30
-77.9827
 11
34.6799
 21
-30.7414
 31
-86.118
 12
38.0288
 22
-62.2263
 32
-69.4328
 13
38.0288
 23
-62.2263
 33
-69.4328
  0
3DFACE
  8
0
  6
CONTINUOUS
 62
     4
 10
38.0288
 20
-62.2263
 30
-69.4328
 11
44.7054
 21
-32.7144
 31
-81.6232
 12
34.6799
 22
-30.7414
 32
-86.118
 13
34.6799
 23
-30.7414
 33
-86.118
  0
3DFACE
  8
0
  6
CONTINUOUS
 62
     4
 10
38.0288
 20
-62.2263
 30
-69.4328
 11
44.7054
 21
-32.7144
 31
-81.6232
 12
57.0984
 22
-58.4736
 32
-60.8829
 13
57.0984
 23
-58.4736
 33
-60.8829
  0
3DFACE
  8
0
  6
CONTINUOUS
 62
     4
 10
54.7309
 20
-30.7414
 30
-77.1282
 11
57.0984
 21
-58.4736
 31
-60.8829
 12
44.7054
 22
-32.7144
 32
-81.6232
 13
44.7054
 23
-32.7144
 33
-81.6232
  0
3DFACE
  8
0
  6
CONTINUOUS
 62
     4
 10
54.7309
 20
-30.7414
 30
-77.1282
 11
57.0984
 21
-58.4736
 31
-60.8829
 12
73.868
 22
-47.6682
 32
-53.3643
 13
73.868
 23
-47.6682
 33
-53.3643
  0
3DFACE
  8
0
  6
CONTINUOUS
 62
     4
 10
63.5472
 20
-25.0607
 30
-73.1755
 11
73.868
 21
-47.6682
 31
-53.3643
 12
54.7309
 22
-30.7414
 32
-77.1282
 13
54.7309
 23
-30.7414
 33
-77.1282
  0
3DFACE
  8
0
  6
CONTINUOUS
 62
     4
 10
63.5472
 20
-25.0607
 30
-73.1755
 11
73.868
 21
-47.6682
 31
-53.3643
 12
86.3148
 22
-31.1133
 32
-47.7838
 13
86.3148
 23
-31.1133
 33
-47.7838
  0
3DFACE
  8
0
  6
CONTINUOUS
 62
     4
 10
70.091
 20
-16.3572
 30
-70.2416
 11
86.3148
 21
-31.1133
 31
-47.7838
 12
63.5472
 22
-25.0607
 32
-73.1755
 13
63.5472
 23
-25.0607
 33
-73.1755
  0
3DFACE
  8
0
  6
CONTINUOUS
 62
     4
 10
70.091
 20
-16.3572
 30
-70.2416
 11
86.3148
 21
-31.1133
 31
-47.7838
 12
92.9377
 22
-10.8055
 32
-44.8145
 13
92.9377
 23
-10.8055
 33
-44.8145
  0
3DFACE
  8
0
  6
CONTINUOUS
 62
     4
 10
73.5727
 20
-5.68075
 30
-68.6805
 11
92.9377
 21
-10.8055
 31
-44.8145
 12
70.091
 22
-16.3572
 32
-70.2416
 13
70.091
 23
-16.3572
 33
-70.2416
  0
3DFACE
  8
0
  6
CONTINUOUS
 62
     4
 10
73.5727
 20
-5.68075
 30
-68.6805
 11
92.9377
 21
-10.8055
 31
-44.8145
 12
92.9377
 22
10.8055
 32
-44.8145
 13
92.9377
 23
10.8055
 33
-44.8145
  0
3DFACE
  8
0
  6
CONTINUOUS
 62
     4
 10
73.5727
 20
5.68075
 30
-68.6805
 11
92.9377
 21
10.8055
 31
-44.8145
 12
92.9377
 22
-10.8055
 32
-44.8145
 13
92.9377
 23
-10.8055
 33
-44.8145
  0
3DFACE
  8
0
  6
CONTINUOUS
 62
     4
 10
73.5727
 20
5.68075
 30
-68.6805
 11
92.9377
 21
10.8055
 31
-44.8145
 12
70.091
 22
16.3572
 32
-70.2416
 13
70.091
 23
16.3572
 33
-70.2416
  0
3DFACE
  8
0
  6
CONTINUOUS
 62
     4
 10
70.091
 20
16.3572
 30
-70.2416
 11
86.3148
 21
31.1133
 31
-47.7838
 12
92.9377
 22
10.8055
 32
-44.8145
 13
92.9377
 23
10.8055
 33
-44.8145
  0
3DFACE
  8
0
  6
CONTINUOUS
 62
     4
 10
70.091
 20
16.3572
 30
-70.2416
 11
86.3148
 21
31.1133
 31
-47.7838
 12
63.5472
 22
25.0607
 32
-73.1755
 13
63.5472
 23
25.0607
 33
-73.1755
  0
3DFACE
  8
0
  6
CONTINUOUS
 62
     4
 10
63.5472
 20
25.0607
 30
-73.1755
 11
73.868
 21
47.6682
 31
-53.3643
 12
86.3148
 22
31.1133
 32
-47.7838
 13
86.3148
 23
31.1133
 33
-47.7838
  0
3DFACE
  8
0
  6
CONTINUOUS
 62
     4
 10
63.5472
 20
25.0607
 30
-73.1755
 11
73.868
 21
47.6682
 31
-53.3643
 12
54.7309
 22
30.7414
 32
-77.1282
 13
54.7309
 23
30.7414
 33
-77.1282
  0
3DFACE
  8
0
  6
CONTINUOUS
 62
     4
 10
54.7309
 20
30.7414
 30
-77.1282
 11
57.0984
 21
58.4736
 31
-60.8829
 12
73.868
 22
47.6682
 32
-53.3643
 13
73.868
 23
47.6682
 33
-53.3643
  0
3DFACE
  8
0
  6
CONTINUOUS
 62
     4
 10
54.7309
 20
30.7414
 30
-77.1282
 11
57.0984
 21
58.4736
 31
-60.8829
 12
44.7054
 22
32.7144
 32
-81.6232
 13
44.7054
 23
32.7144
 33
-81.6232
  0
3DFACE
  8
0
  6
CONTINUOUS
 62
     4
 10
38.0288
 20
62.2263
 30
-69.4328
 11
44.7054
 21
32.7144
 31
-81.6232
 12
57.0984
 22
58.4736
 32
-60.8829
 13
57.0984
 23
58.4736
 33
-60.8829
  0
3DFACE
  8
0
  6
CONTINUOUS
 62
     4
 10
27.6295
 20
85.6473
 30
-50.4459
 11
38.0288
 21
62.2263
 31
-69.4328
 12
18.9591
 22
58.4736
 32
-77.9827
 13
18.9591
 23
58.4736
 33
-77.9827
  0
3DFACE
  8
0
  6
CONTINUOUS
 62
     4
 10
1.3824
 20
80.482
 30
-62.2138
 11
18.9591
 21
58.4736
 31
-77.9827
 12
27.6295
 22
85.6473
 32
-50.4459
 13
27.6295
 23
85.6473
 33
-50.4459
  0
3DFACE
  8
0
  6
CONTINUOUS
 62
     4
 10
1.3824
 20
80.482
 30
-62.2138
 11
18.9591
 21
58.4736
 31
-77.9827
 12
2.18949
 22
47.6682
 32
-85.5013
 13
2.18949
 23
47.6682
 33
-85.5013
  0
3DFACE
  8
0
  6
CONTINUOUS
 62
     4
 10
-21.699
 20
65.6096
 30
-72.5622
 11
2.18949
 21
47.6682
 31
-85.5013
 12
1.3824
 22
80.482
 32
-62.2138
 13
1.3824
 23
80.482
 33
-62.2138
  0
3DFACE
  8
0
  6
CONTINUOUS
 62
     4
 10
-21.699
 20
65.6096
 30
-72.5622
 11
2.18949
 21
47.6682
 31
-85.5013
 12
-10.2573
 22
31.1133
 32
-91.0818
 13
-10.2573
 23
31.1133
 33
-91.0818
  0
3DFACE
  8
0
  6
CONTINUOUS
 62
     4
 10
-38.8307
 20
42.8235
 30
-80.2432
 11
-10.2573
 21
31.1133
 31
-91.0818
 12
-21.699
 22
65.6096
 32
-72.5622
 13
-21.699
 23
65.6096
 33
-72.5622
  0
3DFACE
  8
0
  6
CONTINUOUS
 62
     4
 10
-38.8307
 20
42.8235
 30
-80.2432
 11
-10.2573
 21
31.1133
 31
-91.0818
 12
-16.88
 22
10.8055
 32
-94.0511
 13
-16.88
 23
10.8055
 33
-94.0511
  0
3DFACE
  8
0
  6
CONTINUOUS
 62
     4
 10
-47.9461
 20
14.8724
 30
-84.3302
 11
-16.88
 21
10.8055
 31
-94.0511
 12
-38.8307
 22
42.8235
 32
-80.2432
 13
-38.8307
 23
42.8235
 33
-80.2432
  0
3DFACE
  8
0
  6
CONTINUOUS
 62
     4
 10
-47.9461
 20
14.8724
 30
-84.3302
 11
-16.88
 21
10.8055
 31
-94.0511
 12
-47.9461
 22
-14.8724
 32
-84.3302
 13
-47.9461
 23
-14.8724
 33
-84.3302
  0
3DFACE
  8
0
  6
CONTINUOUS
 62
     4
 10
-47.9461
 20
-14.8724
 30
-84.3302
 11
-16.88
 21
-10.8055
 31
-94.0511
 12
-47.9461
 22
14.8724
 32
-84.3302
 13
-47.9461
 23
14.8724
 33
-84.3302
  0
3DFACE
  8
0
  6
CONTINUOUS
 62
     4
 10
-47.9461
 20
-14.8724
 30
-84.3302
 11
-16.88
 21
-10.8055
 31
-94.0511
 12
-38.8307
 22
-42.8236
 32
-80.2432
 13
-38.8307
 23
-42.8236
 33
-80.2432
  0
3DFACE
  8
0
  6
CONTINUOUS
 62
     4
 10
-38.8307
 20
-42.8236
 30
-80.2432
 11
-10.2573
 21
-31.1133
 31
-91.0818
 12
-16.88
 22
-10.8055
 32
-94.0511
 13
-16.88
 23
-10.8055
 33
-94.0511
  0
3DFACE
  8
0
  6
CONTINUOUS
 62
     4
 10
-38.8307
 20
-42.8236
 30
-80.2432
 11
-10.2573
 21
-31.1133
 31
-91.0818
 12
-21.699
 22
-65.6096
 32
-72.5622
 13
-21.699
 23
-65.6096
 33
-72.5622
  0
3DFACE
  8
0
  6
CONTINUOUS
 62
     4
 10
-21.699
 20
-65.6096
 30
-72.5622
 11
2.18949
 21
-47.6682
 31
-85.5013
 12
-10.2573
 22
-31.1133
 32
-91.0818
 13
-10.2573
 23
-31.1133
 33
-91.0818
  0
3DFACE
  8
0
  6
CONTINUOUS
 62
     4
 10
-21.699
 20
-65.6096
 30
-72.5622
 11
2.18949
 21
-47.6682
 31
-85.5013
 12
1.3824
 22
-80.482
 32
-62.2138
 13
1.3824
 23
-80.482
 33
-62.2138
  0
3DFACE
  8
0
  6
CONTINUOUS
 62
     4
 10
1.3824
 20
-80.482
 30
-62.2138
 11
18.9591
 21
-58.4736
 31
-77.9827
 12
2.18949
 22
-47.6682
 32
-85.5013
 13
2.18949
 23
-47.6682
 33
-85.5013
  0
3DFACE
  8
0
  6
CONTINUOUS
 62
     4
 10
1.3824
 20
-80.482
 30
-62.2138
 11
18.9591
 21
-58.4736
 31
-77.9827
 12
27.6295
 22
-85.6473
 32
-50.4459
 13
27.6295
 23
-85.6473
 33
-50.4459
  0
3DFACE
  8
0
  6
CONTINUOUS
 62
     4
 10
27.6295
 20
-85.6473
 30
-50.4459
 11
38.0288
 21
-62.2263
 31
-69.4328
 12
18.9591
 22
-58.4736
 32
-77.9827
 13
18.9591
 23
-58.4736
 33
-77.9827
  0
3DFACE
  8
0
  6
CONTINUOUS
 62
     4
 10
27.6295
 20
-85.6473
 30
-50.4459
 11
38.0288
 21
-62.2263
 31
-69.4328
 12
53.8766
 22
-80.482
 32
-38.678
 13
53.8766
 23
-80.482
 33
-38.678
  0
3DFACE
  8
0
  6
CONTINUOUS
 62
     4
 10
53.8766
 20
-80.482
 30
-38.678
 11
57.0984
 21
-58.4736
 31
-60.8829
 12
38.0288
 22
-62.2263
 32
-69.4328
 13
38.0288
 23
-62.2263
 33
-69.4328
  0
3DFACE
  8
0
  6
CONTINUOUS
 62
     4
 10
53.8766
 20
-80.482
 30
-38.678
 11
57.0984
 21
-58.4736
 31
-60.8829
 12
76.958
 22
-65.6096
 32
-28.3296
 13
76.958
 23
-65.6096
 33
-28.3296
  0
3DFACE
  8
0
  6
CONTINUOUS
 62
     4
 10
73.868
 20
-47.6682
 30
-53.3643
 11
76.958
 21
-65.6096
 31
-28.3296
 12
57.0984
 22
-58.4736
 32
-60.8829
 13
57.0984
 23
-58.4736
 33
-60.8829
  0
3DFACE
  8
0
  6
CONTINUOUS
 62
     4
 10
73.868
 20
-47.6682
 30
-53.3643
 11
76.958
 21
-65.6096
 31
-28.3296
 12
94.0896
 22
-42.8235
 32
-20.6486
 13
94.0896
 23
-42.8235
 33
-20.6486
  0
3DFACE
  8
0
  6
CONTINUOUS
 62
     4
 10
86.3148
 20
-31.1133
 30
-47.7838
 11
94.0896
 21
-42.8235
 31
-20.6486
 12
73.868
 22
-47.6682
 32
-53.3643
 13
73.868
 23
-47.6682
 33
-53.3643
  0
3DFACE
  8
0
  6
CONTINUOUS
 62
     4
 10
86.3148
 20
-31.1133
 30
-47.7838
 11
94.0896
 21
-42.8235
 31
-20.6486
 12
103.205
 22
-14.8724
 32
-16.5616
 13
103.205
 23
-14.8724
 33
-16.5616
  0
3DFACE
  8
0
  6
CONTINUOUS
 62
     4
 10
92.9377
 20
-10.8055
 30
-44.8145
 11
103.205
 21
-14.8724
 31
-16.5616
 12
86.3148
 22
-31.1133
 32
-47.7838
 13
86.3148
 23
-31.1133
 33
-47.7838
  0
3DFACE
  8
0
  6
CONTINUOUS
 62
     4
 10
92.9377
 20
-10.8055
 30
-44.8145
 11
103.205
 21
-14.8724
 31
-16.5616
 12
103.205
 22
14.8724
 32
-16.5616
 13
103.205
 23
14.8724
 33
-16.5616
  0
3DFACE
  8
0
  6
CONTINUOUS
 62
     4
 10
92.9377
 20
10.8055
 30
-44.8145
 11
103.205
 21
14.8724
 31
-16.5616
 12
103.205
 22
-14.8724
 32
-16.5616
 13
103.205
 23
-14.8724
 33
-16.5616
  0
3DFACE
  8
0
  6
CONTINUOUS
 62
     4
 10
92.9377
 20
10.8055
 30
-44.8145
 11
103.205
 21
14.8724
 31
-16.5616
 12
86.3148
 22
31.1133
 32
-47.7838
 13
86.3148
 23
31.1133
 33
-47.7838
  0
3DFACE
  8
0
  6
CONTINUOUS
 62
     4
 10
86.3148
 20
31.1133
 30
-47.7838
 11
94.0896
 21
42.8235
 31
-20.6486
 12
103.205
 22
14.8724
 32
-16.5616
 13
103.205
 23
14.8724
 33
-16.5616
  0
3DFACE
  8
0
  6
CONTINUOUS
 62
     4
 10
86.3148
 20
31.1133
 30
-47.7838
 11
94.0896
 21
42.8235
 31
-20.6486
 12
73.868
 22
47.6682
 32
-53.3643
 13
73.868
 23
47.6682
 33
-53.3643
  0
3DFACE
  8
0
  6
CONTINUOUS
 62
     4
 10
73.868
 20
47.6682
 30
-53.3643
 11
76.958
 21
65.6096
 31
-28.3296
 12
94.0896
 22
42.8235
 32
-20.6486
 13
94.0896
 23
42.8235
 33
-20.6486
  0
3DFACE
  8
0
  6
CONTINUOUS
 62
     4
 10
73.868
 20
47.6682
 30
-53.3643
 11
76.958
 21
65.6096
 31
-28.3296
 12
57.0984
 22
58.4736
 32
-60.8829
 13
57.0984
 23
58.4736
 33
-60.8829
  0
3DFACE
  8
0
  6
CONTINUOUS
 62
     4
 10
53.8766
 20
80.482
 30
-38.678
 11
57.0984
 21
58.4736
 31
-60.8829
 12
76.958
 22
65.6096
 32
-28.3296
 13
76.958
 23
65.6096
 33
-28.3296
  0
3DFACE
  8
0
  6
CONTINUOUS
 62
     4
 10
53.8766
 20
80.482
 30
-38.678
 11
57.0984
 21
58.4736
 31
-60.8829
 12
38.0288
 22
62.2263
 32
-69.4328
 13
38.0288
 23
62.2263
 33
-69.4328
  0
3DFACE
  8
0
  6
CONTINUOUS
 62
     4
 10
27.6295
 20
85.6473
 30
-50.4459
 11
38.0288
 21
62.2263
 31
-69.4328
 12
53.8766
 22
80.482
 32
-38.678
 13
53.8766
 23
80.482
 33
-38.678
  0
3DFACE
  8
0
  6
CONTINUOUS
 62
     4
 10
14.5257
 20
100.684
 30
-26.521
 11
27.6295
 21
85.6473
 31
-50.4459
 12
1.3824
 22
80.482
 32
-62.2138
 13
1.3824
 23
80.482
 33
-62.2138
  0
3DFACE
  8
0
  6
CONTINUOUS
 62
     4
 10
-16.3296
 20
94.6124
 30
-40.3549
 11
1.3824
 21
80.482
 31
-62.2138
 12
14.5257
 22
100.684
 32
-26.521
 13
14.5257
 23
100.684
 33
-26.521
  0
3DFACE
  8
0
  6
CONTINUOUS
 62
     4
 10
-16.3296
 20
94.6124
 30
-40.3549
 11
1.3824
 21
80.482
 31
-62.2138
 12
-21.699
 22
65.6096
 32
-72.5622
 13
-21.699
 23
65.6096
 33
-72.5622
  0
3DFACE
  8
0
  6
CONTINUOUS
 62
     4
 10
-43.4635
 20
77.1288
 30
-52.5203
 11
-21.699
 21
65.6096
 31
-72.5622
 12
-16.3296
 22
94.6124
 32
-40.3549
 13
-16.3296
 23
94.6124
 33
-40.3549
  0
3DFACE
  8
0
  6
CONTINUOUS
 62
     4
 10
-43.4635
 20
77.1288
 30
-52.5203
 11
-21.699
 21
65.6096
 31
-72.5622
 12
-38.8307
 22
42.8235
 32
-80.2432
 13
-38.8307
 23
42.8235
 33
-80.2432
  0
3DFACE
  8
0
  6
CONTINUOUS
 62
     4
 10
-63.6028
 20
50.3421
 30
-61.5498
 11
-38.8307
 21
42.8235
 31
-80.2432
 12
-43.4635
 22
77.1288
 32
-52.5203
 13
-43.4635
 23
77.1288
 33
-52.5203
  0
3DFACE
  8
0
  6
CONTINUOUS
 62
     4
 10
-63.6028
 20
50.3421
 30
-61.5498
 11
-38.8307
 21
42.8235
 31
-80.2432
 12
-47.9461
 22
14.8724
 32
-84.3302
 13
-47.9461
 23
14.8724
 33
-84.3302
  0
3DFACE
  8
0
  6
CONTINUOUS
 62
     4
 10
-74.3188
 20
17.4836
 30
-66.3543
 11
-47.9461
 21
14.8724
 31
-84.3302
 12
-63.6028
 22
50.3421
 32
-61.5498
 13
-63.6028
 23
50.3421
 33
-61.5498
  0
3DFACE
  8
0
  6
CONTINUOUS
 62
     4
 10
-74.3188
 20
17.4836
 30
-66.3543
 11
-47.9461
 21
14.8724
 31
-84.3302
 12
-74.3188
 22
-17.4836
 32
-66.3543
 13
-74.3188
 23
-17.4836
 33
-66.3543
  0
3DFACE
  8
0
  6
CONTINUOUS
 62
     4
 10
-74.3188
 20
-17.4836
 30
-66.3543
 11
-47.9461
 21
-14.8724
 31
-84.3302
 12
-74.3188
 22
17.4836
 32
-66.3543
 13
-74.3188
 23
17.4836
 33
-66.3543
  0
3DFACE
  8
0
  6
CONTINUOUS
 62
     4
 10
-74.3188
 20
-17.4836
 30
-66.3543
 11
-47.9461
 21
-14.8724
 31
-84.3302
 12
-63.6028
 22
-50.3421
 32
-61.5498
 13
-63.6028
 23
-50.3421
 33
-61.5498
  0
3DFACE
  8
0
  6
CONTINUOUS
 62
     4
 10
-63.6028
 20
-50.3421
 30
-61.5498
 11
-38.8307
 21
-42.8236
 31
-80.2432
 12
-47.9461
 22
-14.8724
 32
-84.3302
 13
-47.9461
 23
-14.8724
 33
-84.3302
  0
3DFACE
  8
0
  6
CONTINUOUS
 62
     4
 10
-63.6028
 20
-50.3421
 30
-61.5498
 11
-38.8307
 21
-42.8236
 31
-80.2432
 12
-43.4635
 22
-77.1288
 32
-52.5203
 13
-43.4635
 23
-77.1288
 33
-52.5203
  0
3DFACE
  8
0
  6
CONTINUOUS
 62
     4
 10
-43.4635
 20
-77.1288
 30
-52.5203
 11
-21.699
 21
-65.6096
 31
-72.5622
 12
-38.8307
 22
-42.8236
 32
-80.2432
 13
-38.8307
 23
-42.8236
 33
-80.2432
  0
3DFACE
  8
0
  6
CONTINUOUS
 62
     4
 10
-43.4635
 20
-77.1288
 30
-52.5203
 11
-21.699
 21
-65.6096
 31
-72.5622
 12
-16.3296
 22
-94.6124
 32
-40.3549
 13
-16.3296
 23
-94.6124
 33
-40.3549
  0
3DFACE
  8
0
  6
CONTINUOUS
 62
     4
 10
-16.3296
 20
-94.6124
 30
-40.3549
 11
1.3824
 21
-80.482
 31
-62.2138
 12
-21.699
 22
-65.6096
 32
-72.5622
 13
-21.699
 23
-65.6096
 33
-72.5622
  0
3DFACE
  8
0
  6
CONTINUOUS
 62
     4
 10
-16.3296
 20
-94.6124
 30
-40.3549
 11
1.3824
 21
-80.482
 31
-62.2138
 12
14.5257
 22
-100.684
 32
-26.521
 13
14.5257
 23
-100.684
 33
-26.521
  0
3DFACE
  8
0
  6
CONTINUOUS
 62
     4
 10
14.5257
 20
-100.684
 30
-26.521
 11
27.6295
 21
-85.6473
 31
-50.4459
 12
1.3824
 22
-80.482
 32
-62.2138
 13
1.3824
 23
-80.482
 33
-62.2138
  0
3DFACE
  8
0
  6
CONTINUOUS
 62
     4
 10
14.5257
 20
-100.684
 30
-26.521
 11
27.6295
 21
-85.6473
 31
-50.4459
 12
45.381
 22
-94.6124
 32
-12.687
 13
45.381
 23
-94.6124
 33
-12.687
  0
3DFACE
  8
0
  6
CONTINUOUS
 62
     4
 10
45.381
 20
-94.6124
 30
-12.687
 11
53.8766
 21
-80.482
 31
-38.678
 12
27.6295
 22
-85.6473
 32
-50.4459
 13
27.6295
 23
-85.6473
 33
-50.4459
  0
3DFACE
  8
0
  6
CONTINUOUS
 62
     4
 10
45.381
 20
-94.6124
 30
-12.687
 11
53.8766
 21
-80.482
 31
-38.678
 12
72.5148
 22
-77.1288
 32
-0.521662
 13
72.5148
 23
-77.1288
 33
-0.521662
  0
3DFACE
  8
0
  6
CONTINUOUS
 62
     4
 10
72.5148
 20
-77.1288
 30
-0.521662
 11
76.958
 21
-65.6096
 31
-28.3296
 12
53.8766
 22
-80.482
 32
-38.678
 13
53.8766
 23
-80.482
 33
-38.678
  0
3DFACE
  8
0
  6
CONTINUOUS
 62
     4
 10
72.5148
 20
-77.1288
 30
-0.521662
 11
76.958
 21
-65.6096
 31
-28.3296
 12
92.6543
 22
-50.3421
 32
8.50788
 13
92.6543
 23
-50.3421
 33
8.50788
  0
3DFACE
  8
0
  6
CONTINUOUS
 62
     4
 10
92.6543
 20
-50.3421
 30
8.50788
 11
94.0896
 21
-42.8235
 31
-20.6486
 12
76.958
 22
-65.6096
 32
-28.3296
 13
76.958
 23
-65.6096
 33
-28.3296
  0
3DFACE
  8
0
  6
CONTINUOUS
 62
     4
 10
92.6543
 20
-50.3421
 30
8.50788
 11
94.0896
 21
-42.8235
 31
-20.6486
 12
103.37
 22
-17.4836
 32
13.3124
 13
103.37
 23
-17.4836
 33
13.3124
  0
3DFACE
  8
0
  6
CONTINUOUS
 62
     4
 10
103.205
 20
-14.8724
 30
-16.5616
 11
103.37
 21
-17.4836
 31
13.3124
 12
94.0896
 22
-42.8235
 32
-20.6486
 13
94.0896
 23
-42.8235
 33
-20.6486
  0
3DFACE
  8
0
  6
CONTINUOUS
 62
     4
 10
103.205
 20
-14.8724
 30
-16.5616
 11
103.37
 21
-17.4836
 31
13.3124
 12
103.37
 22
17.4836
 32
13.3124
 13
103.37
 23
17.4836
 33
13.3124
  0
3DFACE
  8
0
  6
CONTINUOUS
 62
     4
 10
103.205
 20
14.8724
 30
-16.5616
 11
103.37
 21
17.4836
 31
13.3124
 12
103.37
 22
-17.4836
 32
13.3124
 13
103.37
 23
-17.4836
 33
13.3124
  0
3DFACE
  8
0
  6
CONTINUOUS
 62
     4
 10
103.205
 20
14.8724
 30
-16.5616
 11
103.37
 21
17.4836
 31
13.3124
 12
94.0896
 22
42.8235
 32
-20.6486
 13
94.0896
 23
42.8235
 33
-20.6486
  0
3DFACE
  8
0
  6
CONTINUOUS
 62
     4
 10
92.6543
 20
50.3421
 30
8.50788
 11
94.0896
 21
42.8235
 31
-20.6486
 12
103.37
 22
17.4836
 32
13.3124
 13
103.37
 23
17.4836
 33
13.3124
  0
3DFACE
  8
0
  6
CONTINUOUS
 62
     4
 10
92.6543
 20
50.3421
 30
8.50788
 11
94.0896
 21
42.8235
 31
-20.6486
 12
76.958
 22
65.6096
 32
-28.3296
 13
76.958
 23
65.6096
 33
-28.3296
  0
3DFACE
  8
0
  6
CONTINUOUS
 62
     4
 10
72.5148
 20
77.1288
 30
-0.521662
 11
76.958
 21
65.6096
 31
-28.3296
 12
92.6543
 22
50.3421
 32
8.50788
 13
92.6543
 23
50.3421
 33
8.50788
  0
3DFACE
  8
0
  6
CONTINUOUS
 62
     4
 10
72.5148
 20
77.1288
 30
-0.521662
 11
76.958
 21
65.6096
 31
-28.3296
 12
53.8766
 22
80.482
 32
-38.678
 13
53.8766
 23
80.482
 33
-38.678
  0
3DFACE
  8
0
  6
CONTINUOUS
 62
     4
 10
45.381
 20
94.6124
 30
-12.687
 11
53.8766
 21
80.482
 31
-38.678
 12
72.5148
 22
77.1288
 32
-0.521662
 13
72.5148
 23
77.1288
 33
-0.521662
  0
3DFACE
  8
0
  6
CONTINUOUS
 62
     4
 10
45.381
 20
94.6124
 30
-12.687
 11
53.8766
 21
80.482
 31
-38.678
 12
27.6295
 22
85.6473
 32
-50.4459
 13
27.6295
 23
85.6473
 33
-50.4459
  0
3DFACE
  8
0
  6
CONTINUOUS
 62
     4
 10
14.5257
 20
100.684
 30
-26.521
 11
27.6295
 21
85.6473
 31
-50.4459
 12
45.381
 22
94.6124
 32
-12.687
 13
45.381
 23
94.6124
 33
-12.687
  0
3DFACE
  8
0
  6
CONTINUOUS
 62
     4
 10
0
 20
105.866
 30
0
 11
14.5257
 21
100.684
 31
-26.521
 12
-16.3296
 22
94.6124
 32
-40.3549
 13
-16.3296
 23
94.6124
 33
-40.3549
  0
3DFACE
  8
0
  6
CONTINUOUS
 62
     4
 10
-32.4432
 20
99.4814
 30
-14.5459
 11
-16.3296
 21
94.6124
 31
-40.3549
 12
0
 22
105.866
 32
0
 13
0
 23
105.866
 33
0
  0
3DFACE
  8
0
  6
CONTINUOUS
 62
     4
 10
-32.4432
 20
99.4814
 30
-14.5459
 11
-16.3296
 21
94.6124
 31
-40.3549
 12
-43.4635
 22
77.1288
 32
-52.5203
 13
-43.4635
 23
77.1288
 33
-52.5203
  0
3DFACE
  8
0
  6
CONTINUOUS
 62
     4
 10
-60.9734
 20
81.0979
 30
-27.3374
 11
-43.4635
 21
77.1288
 31
-52.5203
 12
-32.4432
 22
99.4814
 32
-14.5459
 13
-32.4432
 23
99.4814
 33
-14.5459
  0
3DFACE
  8
0
  6
CONTINUOUS
 62
     4
 10
-60.9734
 20
81.0979
 30
-27.3374
 11
-43.4635
 21
77.1288
 31
-52.5203
 12
-63.6028
 22
50.3421
 32
-61.5498
 13
-63.6028
 23
50.3421
 33
-61.5498
  0
3DFACE
  8
0
  6
CONTINUOUS
 62
     4
 10
-82.1494
 20
52.9329
 30
-36.8315
 11
-63.6028
 21
50.3421
 31
-61.5498
 12
-60.9734
 22
81.0979
 32
-27.3374
 13
-60.9734
 23
81.0979
 33
-27.3374
  0
3DFACE
  8
0
  6
CONTINUOUS
 62
     4
 10
-82.1494
 20
52.9329
 30
-36.8315
 11
-63.6028
 21
50.3421
 31
-61.5498
 12
-74.3188
 22
17.4836
 32
-66.3543
 13
-74.3188
 23
17.4836
 33
-66.3543
  0
3DFACE
  8
0
  6
CONTINUOUS
 62
     4
 10
-93.4166
 20
18.3833
 30
-41.8832
 11
-74.3188
 21
17.4836
 31
-66.3543
 12
-82.1494
 22
52.9329
 32
-36.8315
 13
-82.1494
 23
52.9329
 33
-36.8315
  0
3DFACE
  8
0
  6
CONTINUOUS
 62
     4
 10
-93.4166
 20
18.3833
 30
-41.8832
 11
-74.3188
 21
17.4836
 31
-66.3543
 12
-93.4166
 22
-18.3833
 32
-41.8832
 13
-93.4166
 23
-18.3833
 33
-41.8832
  0
3DFACE
  8
0
  6
CONTINUOUS
 62
     4
 10
-93.4166
 20
-18.3833
 30
-41.8832
 11
-74.3188
 21
-17.4836
 31
-66.3543
 12
-93.4166
 22
18.3833
 32
-41.8832
 13
-93.4166
 23
18.3833
 33
-41.8832
  0
3DFACE
  8
0
  6
CONTINUOUS
 62
     4
 10
-93.4166
 20
-18.3833
 30
-41.8832
 11
-74.3188
 21
-17.4836
 31
-66.3543
 12
-82.1493
 22
-52.9329
 32
-36.8315
 13
-82.1493
 23
-52.9329
 33
-36.8315
  0
3DFACE
  8
0
  6
CONTINUOUS
 62
     4
 10
-82.1493
 20
-52.9329
 30
-36.8315
 11
-63.6028
 21
-50.3421
 31
-61.5498
 12
-74.3188
 22
-17.4836
 32
-66.3543
 13
-74.3188
 23
-17.4836
 33
-66.3543
  0
3DFACE
  8
0
  6
CONTINUOUS
 62
     4
 10
-82.1493
 20
-52.9329
 30
-36.8315
 11
-63.6028
 21
-50.3421
 31
-61.5498
 12
-60.9734
 22
-81.0979
 32
-27.3374
 13
-60.9734
 23
-81.0979
 33
-27.3374
  0
3DFACE
  8
0
  6
CONTINUOUS
 62
     4
 10
-60.9734
 20
-81.0979
 30
-27.3374
 11
-43.4635
 21
-77.1288
 31
-52.5203
 12
-63.6028
 22
-50.3421
 32
-61.5498
 13
-63.6028
 23
-50.3421
 33
-61.5498
  0
3DFACE
  8
0
  6
CONTINUOUS
 62
     4
 10
-60.9734
 20
-81.0979
 30
-27.3374
 11
-43.4635
 21
-77.1288
 31
-52.5203
 12
-32.4432
 22
-99.4814
 32
-14.5459
 13
-32.4432
 23
-99.4814
 33
-14.5459
  0
3DFACE
  8
0
  6
CONTINUOUS
 62
     4
 10
-32.4432
 20
-99.4814
 30
-14.5459
 11
-16.3296
 21
-94.6124
 31
-40.3549
 12
-43.4635
 22
-77.1288
 32
-52.5203
 13
-43.4635
 23
-77.1288
 33
-52.5203
  0
3DFACE
  8
0
  6
CONTINUOUS
 62
     4
 10
-32.4432
 20
-99.4814
 30
-14.5459
 11
-16.3296
 21
-94.6124
 31
-40.3549
 12
0
 22
-105.866
 32
0
 13
0
 23
-105.866
 33
0
  0
3DFACE
  8
0
  6
CONTINUOUS
 62
     4
 10
0
 20
-105.866
 30
0
 11
14.5257
 21
-100.684
 31
-26.521
 12
-16.3296
 22
-94.6124
 32
-40.3549
 13
-16.3296
 23
-94.6124
 33
-40.3549
  0
3DFACE
  8
0
  6
CONTINUOUS
 62
     4
 10
0
 20
-105.866
 30
0
 11
14.5257
 21
-100.684
 31
-26.521
 12
32.4432
 22
-99.4814
 32
14.5459
 13
32.4432
 23
-99.4814
 33
14.5459
  0
3DFACE
  8
0
  6
CONTINUOUS
 62
     4
 10
32.4432
 20
-99.4814
 30
14.5459
 11
45.381
 21
-94.6124
 31
-12.687
 12
14.5257
 22
-100.684
 32
-26.521
 13
14.5257
 23
-100.684
 33
-26.521
  0
3DFACE
  8
0
  6
CONTINUOUS
 62
     4
 10
32.4432
 20
-99.4814
 30
14.5459
 11
45.381
 21
-94.6124
 31
-12.687
 12
60.9734
 22
-81.0979
 32
27.3374
 13
60.9734
 23
-81.0979
 33
27.3374
  0
3DFACE
  8
0
  6
CONTINUOUS
 62
     4
 10
60.9734
 20
-81.0979
 30
27.3374
 11
72.5148
 21
-77.1288
 31
-0.521662
 12
45.381
 22
-94.6124
 32
-12.687
 13
45.381
 23
-94.6124
 33
-12.687
  0
3DFACE
  8
0
  6
CONTINUOUS
 62
     4
 10
60.9734
 20
-81.0979
 30
27.3374
 11
72.5148
 21
-77.1288
 31
-0.521662
 12
82.1494
 22
-52.9329
 32
36.8315
 13
82.1494
 23
-52.9329
 33
36.8315
  0
3DFACE
  8
0
  6
CONTINUOUS
 62
     4
 10
82.1494
 20
-52.9329
 30
36.8315
 11
92.6543
 21
-50.3421
 31
8.50788
 12
72.5148
 22
-77.1288
 32
-0.521662
 13
72.5148
 23
-77.1288
 33
-0.521662
  0
3DFACE
  8
0
  6
CONTINUOUS
 62
     4
 10
82.1494
 20
-52.9329
 30
36.8315
 11
92.6543
 21
-50.3421
 31
8.50788
 12
93.4166
 22
-18.3833
 32
41.8832
 13
93.4166
 23
-18.3833
 33
41.8832
  0
3DFACE
  8
0
  6
CONTINUOUS
 62
     4
 10
93.4166
 20
-18.3833
 30
41.8832
 11
103.37
 21
-17.4836
 31
13.3124
 12
92.6543
 22
-50.3421
 32
8.50788
 13
92.6543
 23
-50.3421
 33
8.50788
  0
3DFACE
  8
0
  6
CONTINUOUS
 62
     4
 10
93.4166
 20
-18.3833
 30
41.8832
 11
103.37
 21
-17.4836
 31
13.3124
 12
93.4166
 22
18.3833
 32
41.8832
 13
93.4166
 23
18.3833
 33
41.8832
  0
3DFACE
  8
0
  6
CONTINUOUS
 62
     4
 10
93.4166
 20
18.3833
 30
41.8832
 11
103.37
 21
17.4836
 31
13.3124
 12
93.4166
 22
-18.3833
 32
41.8832
 13
93.4166
 23
-18.3833
 33
41.8832
  0
3DFACE
  8
0
  6
CONTINUOUS
 62
     4
 10
93.4166
 20
18.3833
 30
41.8832
 11
103.37
 21
17.4836
 31
13.3124
 12
92.6543
 22
50.3421
 32
8.50788
 13
92.6543
 23
50.3421
 33
8.50788
  0
3DFACE
  8
0
  6
CONTINUOUS
 62
     4
 10
82.1494
 20
52.9329
 30
36.8315
 11
92.6543
 21
50.3421
 31
8.50788
 12
93.4166
 22
18.3833
 32
41.8832
 13
93.4166
 23
18.3833
 33
41.8832
  0
3DFACE
  8
0
  6
CONTINUOUS
 62
     4
 10
82.1494
 20
52.9329
 30
36.8315
 11
92.6543
 21
50.3421
 31
8.50788
 12
72.5148
 22
77.1288
 32
-0.521662
 13
72.5148
 23
77.1288
 33
-0.521662
  0
3DFACE
  8
0
  6
CONTINUOUS
 62
     4
 10
60.9734
 20
81.0979
 30
27.3374
 11
72.5148
 21
77.1288
 31
-0.521662
 12
82.1494
 22
52.9329
 32
36.8315
 13
82.1494
 23
52.9329
 33
36.8315
  0
3DFACE
  8
0
  6
CONTINUOUS
 62
     4
 10
60.9734
 20
81.0979
 30
27.3374
 11
72.5148
 21
77.1288
 31
-0.521662
 12
45.381
 22
94.6124
 32
-12.687
 13
45.381
 23
94.6124
 33
-12.687
  0
3DFACE
  8
0
  6
CONTINUOUS
 62
     4
 10
32.4432
 20
99.4814
 30
14.5459
 11
45.381
 21
94.6124
 31
-12.687
 12
60.9734
 22
81.0979
 32
27.3374
 13
60.9734
 23
81.0979
 33
27.3374
  0
3DFACE
  8
0
  6
CONTINUOUS
 62
     4
 10
32.4432
 20
99.4814
 30
14.5459
 11
45.381
 21
94.6124
 31
-12.687
 12
14.5257
 22
100.684
 32
-26.521
 13
14.5257
 23
100.684
 33
-26.521
  0
3DFACE
  8
0
  6
CONTINUOUS
 62
     4
 10
0
 20
105.866
 30
0
 11
14.5257
 21
100.684
 31
-26.521
 12
32.4432
 22
99.4814
 32
14.5459
 13
32.4432
 23
99.4814
 33
14.5459
  0
3DFACE
  8
0
  6
CONTINUOUS
 62
     4
 10
-14.5257
 20
100.684
 30
26.521
 11
0
 21
105.866
 31
0
 12
-32.4432
 22
99.4814
 32
-14.5459
 13
-32.4432
 23
99.4814
 33
-14.5459
  0
3DFACE
  8
0
  6
CONTINUOUS
 62
     4
 10
-45.381
 20
94.6124
 30
12.687
 11
-32.4432
 21
99.4814
 31
-14.5459
 12
-14.5257
 22
100.684
 32
26.521
 13
-14.5257
 23
100.684
 33
26.521
  0
3DFACE
  8
0
  6
CONTINUOUS
 62
     4
 10
-45.381
 20
94.6124
 30
12.687
 11
-32.4432
 21
99.4814
 31
-14.5459
 12
-60.9734
 22
81.0979
 32
-27.3374
 13
-60.9734
 23
81.0979
 33
-27.3374
  0
3DFACE
  8
0
  6
CONTINUOUS
 62
     4
 10
-72.5148
 20
77.1288
 30
0.521662
 11
-60.9734
 21
81.0979
 31
-27.3374
 12
-45.381
 22
94.6124
 32
12.687
 13
-45.381
 23
94.6124
 33
12.687
  0
3DFACE
  8
0
  6
CONTINUOUS
 62
     4
 10
-72.5148
 20
77.1288
 30
0.521662
 11
-60.9734
 21
81.0979
 31
-27.3374
 12
-82.1494
 22
52.9329
 32
-36.8315
 13
-82.1494
 23
52.9329
 33
-36.8315
  0
3DFACE
  8
0
  6
CONTINUOUS
 62
     4
 10
-92.6543
 20
50.3421
 30
-8.50788
 11
-82.1494
 21
52.9329
 31
-36.8315
 12
-72.5148
 22
77.1288
 32
0.521662
 13
-72.5148
 23
77.1288
 33
0.521662
  0
3DFACE
  8
0
  6
CONTINUOUS
 62
     4
 10
-92.6543
 20
50.3421
 30
-8.50788
 11
-82.1494
 21
52.9329
 31
-36.8315
 12
-93.4166
 22
18.3833
 32
-41.8832
 13
-93.4166
 23
18.3833
 33
-41.8832
  0
3DFACE
  8
0
  6
CONTINUOUS
 62
     4
 10
-103.37
 20
17.4836
 30
-13.3124
 11
-93.4166
 21
18.3833
 31
-41.8832
 12
-92.6543
 22
50.3421
 32
-8.50788
 13
-92.6543
 23
50.3421
 33
-8.50788
  0
3DFACE
  8
0
  6
CONTINUOUS
 62
     4
 10
-103.37
 20
17.4836
 30
-13.3124
 11
-93.4166
 21
18.3833
 31
-41.8832
 12
-103.37
 22
-17.4836
 32
-13.3124
 13
-103.37
 23
-17.4836
 33
-13.3124
  0
3DFACE
  8
0
  6
CONTINUOUS
 62
     4
 10
-103.37
 20
-17.4836
 30
-13.3124
 11
-93.4166
 21
-18.3833
 31
-41.8832
 12
-103.37
 22
17.4836
 32
-13.3124
 13
-103.37
 23
17.4836
 33
-13.3124
  0
3DFACE
  8
0
  6
CONTINUOUS
 62
     4
 10
-103.37
 20
-17.4836
 30
-13.3124
 11
-93.4166
 21
-18.3833
 31
-41.8832
 12
-92.6543
 22
-50.3421
 32
-8.50788
 13
-92.6543
 23
-50.3421
 33
-8.50788
  0
3DFACE
  8
0
  6
CONTINUOUS
 62
     4
 10
-92.6543
 20
-50.3421
 30
-8.50788
 11
-82.1493
 21
-52.9329
 31
-36.8315
 12
-93.4166
 22
-18.3833
 32
-41.8832
 13
-93.4166
 23
-18.3833
 33
-41.8832
  0
3DFACE
  8
0
  6
CONTINUOUS
 62
     4
 10
-92.6543
 20
-50.3421
 30
-8.50788
 11
-82.1493
 21
-52.9329
 31
-36.8315
 12
-72.5148
 22
-77.1288
 32
0.521662
 13
-72.5148
 23
-77.1288
 33
0.521662
  0
3DFACE
  8
0
  6
CONTINUOUS
 62
     4
 10
-72.5148
 20
-77.1288
 30
0.521662
 11
-60.9734
 21
-81.0979
 31
-27.3374
 12
-82.1493
 22
-52.9329
 32
-36.8315
 13
-82.1493
 23
-52.9329
 33
-36.8315
  0
3DFACE
  8
0
  6
CONTINUOUS
 62
     4
 10
-72.5148
 20
-77.1288
 30
0.521662
 11
-60.9734
 21
-81.0979
 31
-27.3374
 12
-45.381
 22
-94.6124
 32
12.687
 13
-45.381
 23
-94.6124
 33
12.687
  0
3DFACE
  8
0
  6
CONTINUOUS
 62
     4
 10
-45.381
 20
-94.6124
 30
12.687
 11
-32.4432
 21
-99.4814
 31
-14.5459
 12
-60.9734
 22
-81.0979
 32
-27.3374
 13
-60.9734
 23
-81.0979
 33
-27.3374
  0
3DFACE
  8
0
  6
CONTINUOUS
 62
     4
 10
-45.381
 20
-94.6124
 30
12.687
 11
-32.4432
 21
-99.4814
 31
-14.5459
 12
-14.5257
 22
-100.684
 32
26.521
 13
-14.5257
 23
-100.684
 33
26.521
  0
3DFACE
  8
0
  6
CONTINUOUS
 62
     4
 10
-14.5257
 20
-100.684
 30
26.521
 11
0
 21
-105.866
 31
0
 12
-32.4432
 22
-99.4814
 32
-14.5459
 13
-32.4432
 23
-99.4814
 33
-14.5459
  0
3DFACE
  8
0
  6
CONTINUOUS
 62
     4
 10
-14.5257
 20
-100.684
 30
26.521
 11
0
 21
-105.866
 31
0
 12
16.3296
 22
-94.6124
 32
40.3549
 13
16.3296
 23
-94.6124
 33
40.3549
  0
3DFACE
  8
0
  6
CONTINUOUS
 62
     4
 10
16.3296
 20
-94.6124
 30
40.3549
 11
32.4432
 21
-99.4814
 31
14.5459
 12
0
 22
-105.866
 32
0
 13
0
 23
-105.866
 33
0
  0
3DFACE
  8
0
  6
CONTINUOUS
 62
     4
 10
16.3296
 20
-94.6124
 30
40.3549
 11
32.4432
 21
-99.4814
 31
14.5459
 12
43.4635
 22
-77.1288
 32
52.5203
 13
43.4635
 23
-77.1288
 33
52.5203
  0
3DFACE
  8
0
  6
CONTINUOUS
 62
     4
 10
43.4635
 20
-77.1288
 30
52.5203
 11
60.9734
 21
-81.0979
 31
27.3374
 12
32.4432
 22
-99.4814
 32
14.5459
 13
32.4432
 23
-99.4814
 33
14.5459
  0
3DFACE
  8
0
  6
CONTINUOUS
 62
     4
 10
43.4635
 20
-77.1288
 30
52.5203
 11
60.9734
 21
-81.0979
 31
27.3374
 12
63.6028
 22
-50.3421
 32
61.5498
 13
63.6028
 23
-50.3421
 33
61.5498
  0
3DFACE
  8
0
  6
CONTINUOUS
 62
     4
 10
63.6028
 20
-50.3421
 30
61.5498
 11
82.1494
 21
-52.9329
 31
36.8315
 12
60.9734
 22
-81.0979
 32
27.3374
 13
60.9734
 23
-81.0979
 33
27.3374
  0
3DFACE
  8
0
  6
CONTINUOUS
 62
     4
 10
63.6028
 20
-50.3421
 30
61.5498
 11
82.1494
 21
-52.9329
 31
36.8315
 12
74.3188
 22
-17.4836
 32
66.3543
 13
74.3188
 23
-17.4836
 33
66.3543
  0
3DFACE
  8
0
  6
CONTINUOUS
 62
     4
 10
74.3188
 20
-17.4836
 30
66.3543
 11
93.4166
 21
-18.3833
 31
41.8832
 12
82.1494
 22
-52.9329
 32
36.8315
 13
82.1494
 23
-52.9329
 33
36.8315
  0
3DFACE
  8
0
  6
CONTINUOUS
 62
     4
 10
74.3188
 20
-17.4836
 30
66.3543
 11
93.4166
 21
-18.3833
 31
41.8832
 12
74.3188
 22
17.4836
 32
66.3543
 13
74.3188
 23
17.4836
 33
66.3543
  0
3DFACE
  8
0
  6
CONTINUOUS
 62
     4
 10
74.3188
 20
17.4836
 30
66.3543
 11
93.4166
 21
18.3833
 31
41.8832
 12
74.3188
 22
-17.4836
 32
66.3543
 13
74.3188
 23
-17.4836
 33
66.3543
  0
3DFACE
  8
0
  6
CONTINUOUS
 62
     4
 10
74.3188
 20
17.4836
 30
66.3543
 11
93.4166
 21
18.3833
 31
41.8832
 12
82.1494
 22
52.9329
 32
36.8315
 13
82.1494
 23
52.9329
 33
36.8315
  0
3DFACE
  8
0
  6
CONTINUOUS
 62
     4
 10
63.6028
 20
50.3421
 30
61.5498
 11
82.1494
 21
52.9329
 31
36.8315
 12
74.3188
 22
17.4836
 32
66.3543
 13
74.3188
 23
17.4836
 33
66.3543
  0
3DFACE
  8
0
  6
CONTINUOUS
 62
     4
 10
63.6028
 20
50.3421
 30
61.5498
 11
82.1494
 21
52.9329
 31
36.8315
 12
60.9734
 22
81.0979
 32
27.3374
 13
60.9734
 23
81.0979
 33
27.3374
  0
3DFACE
  8
0
  6
CONTINUOUS
 62
     4
 10
43.4635
 20
77.1288
 30
52.5203
 11
60.9734
 21
81.0979
 31
27.3374
 12
63.6028
 22
50.3421
 32
61.5498
 13
63.6028
 23
50.3421
 33
61.5498
  0
3DFACE
  8
0
  6
CONTINUOUS
 62
     4
 10
43.4635
 20
77.1288
 30
52.5203
 11
60.9734
 21
81.0979
 31
27.3374
 12
32.4432
 22
99.4814
 32
14.5459
 13
32.4432
 23
99.4814
 33
14.5459
  0
3DFACE
  8
0
  6
CONTINUOUS
 62
     4
 10
16.3296
 20
94.6124
 30
40.3549
 11
32.4432
 21
99.4814
 31
14.5459
 12
43.4635
 22
77.1288
 32
52.5203
 13
43.4635
 23
77.1288
 33
52.5203
  0
3DFACE
  8
0
  6
CONTINUOUS
 62
     4
 10
16.3296
 20
94.6124
 30
40.3549
 11
32.4432
 21
99.4814
 31
14.5459
 12
0
 22
105.866
 32
0
 13
0
 23
105.866
 33
0
  0
3DFACE
  8
0
  6
CONTINUOUS
 62
     4
 10
-14.5257
 20
100.684
 30
26.521
 11
0
 21
105.866
 31
0
 12
16.3296
 22
94.6124
 32
40.3549
 13
16.3296
 23
94.6124
 33
40.3549
  0
3DFACE
  8
0
  6
CONTINUOUS
 62
     4
 10
-27.6295
 20
85.6473
 30
50.4459
 11
-14.5257
 21
100.684
 31
26.521
 12
-45.381
 22
94.6124
 32
12.687
 13
-45.381
 23
94.6124
 33
12.687
  0
3DFACE
  8
0
  6
CONTINUOUS
 62
     4
 10
-53.8766
 20
80.482
 30
38.678
 11
-45.381
 21
94.6124
 31
12.687
 12
-27.6295
 22
85.6473
 32
50.4459
 13
-27.6295
 23
85.6473
 33
50.4459
  0
3DFACE
  8
0
  6
CONTINUOUS
 62
     4
 10
-53.8766
 20
80.482
 30
38.678
 11
-45.381
 21
94.6124
 31
12.687
 12
-72.5148
 22
77.1288
 32
0.521662
 13
-72.5148
 23
77.1288
 33
0.521662
  0
3DFACE
  8
0
  6
CONTINUOUS
 62
     4
 10
-76.958
 20
65.6096
 30
28.3296
 11
-72.5148
 21
77.1288
 31
0.521662
 12
-53.8766
 22
80.482
 32
38.678
 13
-53.8766
 23
80.482
 33
38.678
  0
3DFACE
  8
0
  6
CONTINUOUS
 62
     4
 10
-76.958
 20
65.6096
 30
28.3296
 11
-72.5148
 21
77.1288
 31
0.521662
 12
-92.6543
 22
50.3421
 32
-8.50788
 13
-92.6543
 23
50.3421
 33
-8.50788
  0
3DFACE
  8
0
  6
CONTINUOUS
 62
     4
 10
-94.0896
 20
42.8235
 30
20.6486
 11
-92.6543
 21
50.3421
 31
-8.50788
 12
-76.958
 22
65.6096
 32
28.3296
 13
-76.958
 23
65.6096
 33
28.3296
  0
3DFACE
  8
0
  6
CONTINUOUS
 62
     4
 10
-94.0896
 20
42.8235
 30
20.6486
 11
-92.6543
 21
50.3421
 31
-8.50788
 12
-103.37
 22
17.4836
 32
-13.3124
 13
-103.37
 23
17.4836
 33
-13.3124
  0
3DFACE
  8
0
  6
CONTINUOUS
 62
     4
 10
-103.37
 20
17.4836
 30
-13.3124
 11
-103.205
 21
14.8724
 31
16.5616
 12
-94.0896
 22
42.8235
 32
20.6486
 13
-94.0896
 23
42.8235
 33
20.6486
  0
3DFACE
  8
0
  6
CONTINUOUS
 62
     4
 10
-103.37
 20
17.4836
 30
-13.3124
 11
-103.205
 21
14.8724
 31
16.5616
 12
-103.205
 22
-14.8724
 32
16.5616
 13
-103.205
 23
-14.8724
 33
16.5616
  0
3DFACE
  8
0
  6
CONTINUOUS
 62
     4
 10
-103.37
 20
-17.4836
 30
-13.3124
 11
-103.205
 21
-14.8724
 31
16.5616
 12
-103.205
 22
14.8724
 32
16.5616
 13
-103.205
 23
14.8724
 33
16.5616
  0
3DFACE
  8
0
  6
CONTINUOUS
 62
     4
 10
-103.37
 20
-17.4836
 30
-13.3124
 11
-103.205
 21
-14.8724
 31
16.5616
 12
-94.0896
 22
-42.8236
 32
20.6486
 13
-94.0896
 23
-42.8236
 33
20.6486
  0
3DFACE
  8
0
  6
CONTINUOUS
 62
     4
 10
-94.0896
 20
-42.8236
 30
20.6486
 11
-92.6543
 21
-50.3421
 31
-8.50788
 12
-103.37
 22
-17.4836
 32
-13.3124
 13
-103.37
 23
-17.4836
 33
-13.3124
  0
3DFACE
  8
0
  6
CONTINUOUS
 62
     4
 10
-94.0896
 20
-42.8236
 30
20.6486
 11
-92.6543
 21
-50.3421
 31
-8.50788
 12
-76.958
 22
-65.6096
 32
28.3296
 13
-76.958
 23
-65.6096
 33
28.3296
  0
3DFACE
  8
0
  6
CONTINUOUS
 62
     4
 10
-76.958
 20
-65.6096
 30
28.3296
 11
-72.5148
 21
-77.1288
 31
0.521662
 12
-92.6543
 22
-50.3421
 32
-8.50788
 13
-92.6543
 23
-50.3421
 33
-8.50788
  0
3DFACE
  8
0
  6
CONTINUOUS
 62
     4
 10
-76.958
 20
-65.6096
 30
28.3296
 11
-72.5148
 21
-77.1288
 31
0.521662
 12
-53.8766
 22
-80.482
 32
38.678
 13
-53.8766
 23
-80.482
 33
38.678
  0
3DFACE
  8
0
  6
CONTINUOUS
 62
     4
 10
-53.8766
 20
-80.482
 30
38.678
 11
-45.381
 21
-94.6124
 31
12.687
 12
-72.5148
 22
-77.1288
 32
0.521662
 13
-72.5148
 23
-77.1288
 33
0.521662
  0
3DFACE
  8
0
  6
CONTINUOUS
 62
     4
 10
-53.8766
 20
-80.482
 30
38.678
 11
-45.381
 21
-94.6124
 31
12.687
 12
-27.6295
 22
-85.6473
 32
50.4459
 13
-27.6295
 23
-85.6473
 33
50.4459
  0
3DFACE
  8
0
  6
CONTINUOUS
 62
     4
 10
-27.6295
 20
-85.6473
 30
50.4459
 11
-14.5257
 21
-100.684
 31
26.521
 12
-45.381
 22
-94.6124
 32
12.687
 13
-45.381
 23
-94.6124
 33
12.687
  0
3DFACE
  8
0
  6
CONTINUOUS
 62
     4
 10
-27.6295
 20
-85.6473
 30
50.4459
 11
-14.5257
 21
-100.684
 31
26.521
 12
-1.3824
 22
-80.482
 32
62.2138
 13
-1.3824
 23
-80.482
 33
62.2138
  0
3DFACE
  8
0
  6
CONTINUOUS
 62
     4
 10
-1.3824
 20
-80.482
 30
62.2138
 11
16.3296
 21
-94.6124
 31
40.3549
 12
-14.5257
 22
-100.684
 32
26.521
 13
-14.5257
 23
-100.684
 33
26.521
  0
3DFACE
  8
0
  6
CONTINUOUS
 62
     4
 10
-1.3824
 20
-80.482
 30
62.2138
 11
16.3296
 21
-94.6124
 31
40.3549
 12
21.699
 22
-65.6096
 32
72.5622
 13
21.699
 23
-65.6096
 33
72.5622
  0
3DFACE
  8
0
  6
CONTINUOUS
 62
     4
 10
21.699
 20
-65.6096
 30
72.5622
 11
43.4635
 21
-77.1288
 31
52.5203
 12
16.3296
 22
-94.6124
 32
40.3549
 13
16.3296
 23
-94.6124
 33
40.3549
  0
3DFACE
  8
0
  6
CONTINUOUS
 62
     4
 10
21.699
 20
-65.6096
 30
72.5622
 11
43.4635
 21
-77.1288
 31
52.5203
 12
38.8307
 22
-42.8235
 32
80.2432
 13
38.8307
 23
-42.8235
 33
80.2432
  0
3DFACE
  8
0
  6
CONTINUOUS
 62
     4
 10
38.8307
 20
-42.8235
 30
80.2432
 11
63.6028
 21
-50.3421
 31
61.5498
 12
43.4635
 22
-77.1288
 32
52.5203
 13
43.4635
 23
-77.1288
 33
52.5203
  0
3DFACE
  8
0
  6
CONTINUOUS
 62
     4
 10
38.8307
 20
-42.8235
 30
80.2432
 11
63.6028
 21
-50.3421
 31
61.5498
 12
47.9461
 22
-14.8724
 32
84.3302
 13
47.9461
 23
-14.8724
 33
84.3302
  0
3DFACE
  8
0
  6
CONTINUOUS
 62
     4
 10
47.9461
 20
-14.8724
 30
84.3302
 11
74.3188
 21
-17.4836
 31
66.3543
 12
63.6028
 22
-50.3421
 32
61.5498
 13
63.6028
 23
-50.3421
 33
61.5498
  0
3DFACE
  8
0
  6
CONTINUOUS
 62
     4
 10
47.9461
 20
-14.8724
 30
84.3302
 11
74.3188
 21
-17.4836
 31
66.3543
 12
47.9461
 22
14.8724
 32
84.3302
 13
47.9461
 23
14.8724
 33
84.3302
  0
3DFACE
  8
0
  6
CONTINUOUS
 62
     4
 10
47.9461
 20
14.8724
 30
84.3302
 11
74.3188
 21
17.4836
 31
66.3543
 12
47.9461
 22
-14.8724
 32
84.3302
 13
47.9461
 23
-14.8724
 33
84.3302
  0
3DFACE
  8
0
  6
CONTINUOUS
 62
     4
 10
47.9461
 20
14.8724
 30
84.3302
 11
74.3188
 21
17.4836
 31
66.3543
 12
63.6028
 22
50.3421
 32
61.5498
 13
63.6028
 23
50.3421
 33
61.5498
  0
3DFACE
  8
0
  6
CONTINUOUS
 62
     4
 10
38.8307
 20
42.8235
 30
80.2432
 11
63.6028
 21
50.3421
 31
61.5498
 12
47.9461
 22
14.8724
 32
84.3302
 13
47.9461
 23
14.8724
 33
84.3302
  0
3DFACE
  8
0
  6
CONTINUOUS
 62
     4
 10
38.8307
 20
42.8235
 30
80.2432
 11
63.6028
 21
50.3421
 31
61.5498
 12
43.4635
 22
77.1288
 32
52.5203
 13
43.4635
 23
77.1288
 33
52.5203
  0
3DFACE
  8
0
  6
CONTINUOUS
 62
     4
 10
21.699
 20
65.6096
 30
72.5622
 11
43.4635
 21
77.1288
 31
52.5203
 12
38.8307
 22
42.8235
 32
80.2432
 13
38.8307
 23
42.8235
 33
80.2432
  0
3DFACE
  8
0
  6
CONTINUOUS
 62
     4
 10
21.699
 20
65.6096
 30
72.5622
 11
43.4635
 21
77.1288
 31
52.5203
 12
16.3296
 22
94.6124
 32
40.3549
 13
16.3296
 23
94.6124
 33
40.3549
  0
3DFACE
  8
0
  6
CONTINUOUS
 62
     4
 10
-1.3824
 20
80.482
 30
62.2138
 11
16.3296
 21
94.6124
 31
40.3549
 12
21.699
 22
65.6096
 32
72.5622
 13
21.699
 23
65.6096
 33
72.5622
  0
3DFACE
  8
0
  6
CONTINUOUS
 62
     4
 10
-1.3824
 20
80.482
 30
62.2138
 11
16.3296
 21
94.6124
 31
40.3549
 12
-14.5257
 22
100.684
 32
26.521
 13
-14.5257
 23
100.684
 33
26.521
  0
3DFACE
  8
0
  6
CONTINUOUS
 62
     4
 10
-27.6295
 20
85.6473
 30
50.4459
 11
-14.5257
 21
100.684
 31
26.521
 12
-1.3824
 22
80.482
 32
62.2138
 13
-1.3824
 23
80.482
 33
62.2138
  0
3DFACE
  8
0
  6
CONTINUOUS
 62
     4
 10
-38.0288
 20
62.2263
 30
69.4328
 11
-27.6295
 21
85.6473
 31
50.4459
 12
-53.8766
 22
80.482
 32
38.678
 13
-53.8766
 23
80.482
 33
38.678
  0
3DFACE
  8
0
  6
CONTINUOUS
 62
     4
 10
-57.0984
 20
58.4737
 30
60.8829
 11
-53.8766
 21
80.482
 31
38.678
 12
-38.0288
 22
62.2263
 32
69.4328
 13
-38.0288
 23
62.2263
 33
69.4328
  0
3DFACE
  8
0
  6
CONTINUOUS
 62
     4
 10
-57.0984
 20
58.4737
 30
60.8829
 11
-53.8766
 21
80.482
 31
38.678
 12
-76.958
 22
65.6096
 32
28.3296
 13
-76.958
 23
65.6096
 33
28.3296
  0
3DFACE
  8
0
  6
CONTINUOUS
 62
     4
 10
-76.958
 20
65.6096
 30
28.3296
 11
-73.868
 21
47.6682
 31
53.3643
 12
-57.0984
 22
58.4737
 32
60.8829
 13
-57.0984
 23
58.4737
 33
60.8829
  0
3DFACE
  8
0
  6
CONTINUOUS
 62
     4
 10
-76.958
 20
65.6096
 30
28.3296
 11
-73.868
 21
47.6682
 31
53.3643
 12
-94.0896
 22
42.8235
 32
20.6486
 13
-94.0896
 23
42.8235
 33
20.6486
  0
3DFACE
  8
0
  6
CONTINUOUS
 62
     4
 10
-94.0896
 20
42.8235
 30
20.6486
 11
-86.3148
 21
31.1133
 31
47.7838
 12
-73.868
 22
47.6682
 32
53.3643
 13
-73.868
 23
47.6682
 33
53.3643
  0
3DFACE
  8
0
  6
CONTINUOUS
 62
     4
 10
-94.0896
 20
42.8235
 30
20.6486
 11
-86.3148
 21
31.1133
 31
47.7838
 12
-103.205
 22
14.8724
 32
16.5616
 13
-103.205
 23
14.8724
 33
16.5616
  0
3DFACE
  8
0
  6
CONTINUOUS
 62
     4
 10
-103.205
 20
14.8724
 30
16.5616
 11
-92.9378
 21
10.8055
 31
44.8144
 12
-86.3148
 22
31.1133
 32
47.7838
 13
-86.3148
 23
31.1133
 33
47.7838
  0
3DFACE
  8
0
  6
CONTINUOUS
 62
     4
 10
-103.205
 20
14.8724
 30
16.5616
 11
-92.9378
 21
10.8055
 31
44.8144
 12
-92.9378
 22
-10.8055
 32
44.8144
 13
-92.9378
 23
-10.8055
 33
44.8144
  0
3DFACE
  8
0
  6
CONTINUOUS
 62
     4
 10
-103.205
 20
-14.8724
 30
16.5616
 11
-92.9378
 21
-10.8055
 31
44.8144
 12
-92.9378
 22
10.8055
 32
44.8144
 13
-92.9378
 23
10.8055
 33
44.8144
  0
3DFACE
  8
0
  6
CONTINUOUS
 62
     4
 10
-103.205
 20
-14.8724
 30
16.5616
 11
-92.9378
 21
-10.8055
 31
44.8144
 12
-86.3148
 22
-31.1133
 32
47.7838
 13
-86.3148
 23
-31.1133
 33
47.7838
  0
3DFACE
  8
0
  6
CONTINUOUS
 62
     4
 10
-94.0896
 20
-42.8236
 30
20.6486
 11
-86.3148
 21
-31.1133
 31
47.7838
 12
-103.205
 22
-14.8724
 32
16.5616
 13
-103.205
 23
-14.8724
 33
16.5616
  0
3DFACE
  8
0
  6
CONTINUOUS
 62
     4
 10
-94.0896
 20
-42.8236
 30
20.6486
 11
-86.3148
 21
-31.1133
 31
47.7838
 12
-73.868
 22
-47.6682
 32
53.3643
 13
-73.868
 23
-47.6682
 33
53.3643
  0
3DFACE
  8
0
  6
CONTINUOUS
 62
     4
 10
-76.958
 20
-65.6096
 30
28.3296
 11
-73.868
 21
-47.6682
 31
53.3643
 12
-94.0896
 22
-42.8236
 32
20.6486
 13
-94.0896
 23
-42.8236
 33
20.6486
  0
3DFACE
  8
0
  6
CONTINUOUS
 62
     4
 10
-76.958
 20
-65.6096
 30
28.3296
 11
-73.868
 21
-47.6682
 31
53.3643
 12
-57.0984
 22
-58.4737
 32
60.8829
 13
-57.0984
 23
-58.4737
 33
60.8829
  0
3DFACE
  8
0
  6
CONTINUOUS
 62
     4
 10
-57.0984
 20
-58.4737
 30
60.8829
 11
-53.8766
 21
-80.482
 31
38.678
 12
-76.958
 22
-65.6096
 32
28.3296
 13
-76.958
 23
-65.6096
 33
28.3296
  0
3DFACE
  8
0
  6
CONTINUOUS
 62
     4
 10
-57.0984
 20
-58.4737
 30
60.8829
 11
-53.8766
 21
-80.482
 31
38.678
 12
-38.0288
 22
-62.2263
 32
69.4328
 13
-38.0288
 23
-62.2263
 33
69.4328
  0
3DFACE
  8
0
  6
CONTINUOUS
 62
     4
 10
-38.0288
 20
-62.2263
 30
69.4328
 11
-27.6295
 21
-85.6473
 31
50.4459
 12
-53.8766
 22
-80.482
 32
38.678
 13
-53.8766
 23
-80.482
 33
38.678
  0
3DFACE
  8
0
  6
CONTINUOUS
 62
     4
 10
-38.0288
 20
-62.2263
 30
69.4328
 11
-27.6295
 21
-85.6473
 31
50.4459
 12
-18.9591
 22
-58.4737
 32
77.9827
 13
-18.9591
 23
-58.4737
 33
77.9827
  0
3DFACE
  8
0
  6
CONTINUOUS
 62
     4
 10
-18.9591
 20
-58.4737
 30
77.9827
 11
-1.3824
 21
-80.482
 31
62.2138
 12
-27.6295
 22
-85.6473
 32
50.4459
 13
-27.6295
 23
-85.6473
 33
50.4459
  0
3DFACE
  8
0
  6
CONTINUOUS
 62
     4
 10
-18.9591
 20
-58.4737
 30
77.9827
 11
-1.3824
 21
-80.482
 31
62.2138
 12
-2.18949
 22
-47.6682
 32
85.5013
 13
-2.18949
 23
-47.6682
 33
85.5013
  0
3DFACE
  8
0
  6
CONTINUOUS
 62
     4
 10
-2.18949
 20
-47.6682
 30
85.5013
 11
21.699
 21
-65.6096
 31
72.5622
 12
-1.3824
 22
-80.482
 32
62.2138
 13
-1.3824
 23
-80.482
 33
62.2138
  0
3DFACE
  8
0
  6
CONTINUOUS
 62
     4
 10
-2.18949
 20
-47.6682
 30
85.5013
 11
21.699
 21
-65.6096
 31
72.5622
 12
10.2573
 22
-31.1133
 32
91.0818
 13
10.2573
 23
-31.1133
 33
91.0818
  0
3DFACE
  8
0
  6
CONTINUOUS
 62
     4
 10
10.2573
 20
-31.1133
 30
91.0818
 11
38.8307
 21
-42.8235
 31
80.2432
 12
21.699
 22
-65.6096
 32
72.5622
 13
21.699
 23
-65.6096
 33
72.5622
  0
3DFACE
  8
0
  6
CONTINUOUS
 62
     4
 10
10.2573
 20
-31.1133
 30
91.0818
 11
38.8307
 21
-42.8235
 31
80.2432
 12
16.8802
 22
-10.8055
 32
94.0512
 13
16.8802
 23
-10.8055
 33
94.0512
  0
3DFACE
  8
0
  6
CONTINUOUS
 62
     4
 10
16.8802
 20
-10.8055
 30
94.0512
 11
47.9461
 21
-14.8724
 31
84.3302
 12
38.8307
 22
-42.8235
 32
80.2432
 13
38.8307
 23
-42.8235
 33
80.2432
  0
3DFACE
  8
0
  6
CONTINUOUS
 62
     4
 10
16.8802
 20
-10.8055
 30
94.0512
 11
47.9461
 21
-14.8724
 31
84.3302
 12
16.8802
 22
10.8055
 32
94.0512
 13
16.8802
 23
10.8055
 33
94.0512
  0
3DFACE
  8
0
  6
CONTINUOUS
 62
     4
 10
16.8802
 20
10.8055
 30
94.0512
 11
47.9461
 21
14.8724
 31
84.3302
 12
16.8802
 22
-10.8055
 32
94.0512
 13
16.8802
 23
-10.8055
 33
94.0512
  0
3DFACE
  8
0
  6
CONTINUOUS
 62
     4
 10
16.8802
 20
10.8055
 30
94.0512
 11
47.9461
 21
14.8724
 31
84.3302
 12
38.8307
 22
42.8235
 32
80.2432
 13
38.8307
 23
42.8235
 33
80.2432
  0
3DFACE
  8
0
  6
CONTINUOUS
 62
     4
 10
10.2573
 20
31.1133
 30
91.0818
 11
38.8307
 21
42.8235
 31
80.2432
 12
16.8802
 22
10.8055
 32
94.0512
 13
16.8802
 23
10.8055
 33
94.0512
  0
3DFACE
  8
0
  6
CONTINUOUS
 62
     4
 10
10.2573
 20
31.1133
 30
91.0818
 11
38.8307
 21
42.8235
 31
80.2432
 12
21.699
 22
65.6096
 32
72.5622
 13
21.699
 23
65.6096
 33
72.5622
  0
3DFACE
  8
0
  6
CONTINUOUS
 62
     4
 10
-2.18949
 20
47.6682
 30
85.5013
 11
21.699
 21
65.6096
 31
72.5622
 12
10.2573
 22
31.1133
 32
91.0818
 13
10.2573
 23
31.1133
 33
91.0818
  0
3DFACE
  8
0
  6
CONTINUOUS
 62
     4
 10
-2.18949
 20
47.6682
 30
85.5013
 11
21.699
 21
65.6096
 31
72.5622
 12
-1.3824
 22
80.482
 32
62.2138
 13
-1.3824
 23
80.482
 33
62.2138
  0
3DFACE
  8
0
  6
CONTINUOUS
 62
     4
 10
-18.9591
 20
58.4737
 30
77.9827
 11
-1.3824
 21
80.482
 31
62.2138
 12
-2.18949
 22
47.6682
 32
85.5013
 13
-2.18949
 23
47.6682
 33
85.5013
  0
3DFACE
  8
0
  6
CONTINUOUS
 62
     4
 10
-18.9591
 20
58.4737
 30
77.9827
 11
-1.3824
 21
80.482
 31
62.2138
 12
-27.6295
 22
85.6473
 32
50.4459
 13
-27.6295
 23
85.6473
 33
50.4459
  0
3DFACE
  8
0
  6
CONTINUOUS
 62
     4
 10
-38.0288
 20
62.2263
 30
69.4328
 11
-27.6295
 21
85.6473
 31
50.4459
 12
-18.9591
 22
58.4737
 32
77.9827
 13
-18.9591
 23
58.4737
 33
77.9827
  0
3DFACE
  8
0
  6
CONTINUOUS
 62
     4
 10
-44.7054
 20
32.7144
 30
81.6232
 11
-38.0288
 21
62.2263
 31
69.4328
 12
-57.0984
 22
58.4737
 32
60.8829
 13
-57.0984
 23
58.4737
 33
60.8829
  0
3DFACE
  8
0
  6
CONTINUOUS
 62
     4
 10
-57.0984
 20
58.4737
 30
60.8829
 11
-54.7309
 21
30.7414
 31
77.1282
 12
-44.7054
 22
32.7144
 32
81.6232
 13
-44.7054
 23
32.7144
 33
81.6232
  0
3DFACE
  8
0
  6
CONTINUOUS
 62
     4
 10
-57.0984
 20
58.4737
 30
60.8829
 11
-54.7309
 21
30.7414
 31
77.1282
 12
-73.868
 22
47.6682
 32
53.3643
 13
-73.868
 23
47.6682
 33
53.3643
  0
3DFACE
  8
0
  6
CONTINUOUS
 62
     4
 10
-73.868
 20
47.6682
 30
53.3643
 11
-63.5473
 21
25.0607
 31
73.1755
 12
-54.7309
 22
30.7414
 32
77.1282
 13
-54.7309
 23
30.7414
 33
77.1282
  0
3DFACE
  8
0
  6
CONTINUOUS
 62
     4
 10
-73.868
 20
47.6682
 30
53.3643
 11
-63.5473
 21
25.0607
 31
73.1755
 12
-86.3148
 22
31.1133
 32
47.7838
 13
-86.3148
 23
31.1133
 33
47.7838
  0
3DFACE
  8
0
  6
CONTINUOUS
 62
     4
 10
-86.3148
 20
31.1133
 30
47.7838
 11
-70.091
 21
16.3572
 31
70.2416
 12
-63.5473
 22
25.0607
 32
73.1755
 13
-63.5473
 23
25.0607
 33
73.1755
  0
3DFACE
  8
0
  6
CONTINUOUS
 62
     4
 10
-86.3148
 20
31.1133
 30
47.7838
 11
-70.091
 21
16.3572
 31
70.2416
 12
-92.9378
 22
10.8055
 32
44.8144
 13
-92.9378
 23
10.8055
 33
44.8144
  0
3DFACE
  8
0
  6
CONTINUOUS
 62
     4
 10
-92.9378
 20
10.8055
 30
44.8144
 11
-73.5728
 21
5.68075
 31
68.6805
 12
-70.091
 22
16.3572
 32
70.2416
 13
-70.091
 23
16.3572
 33
70.2416
  0
3DFACE
  8
0
  6
CONTINUOUS
 62
     4
 10
-92.9378
 20
10.8055
 30
44.8144
 11
-73.5728
 21
5.68075
 31
68.6805
 12
-73.5728
 22
-5.68075
 32
68.6805
 13
-73.5728
 23
-5.68075
 33
68.6805
  0
3DFACE
  8
0
  6
CONTINUOUS
 62
     4
 10
-92.9378
 20
-10.8055
 30
44.8144
 11
-73.5728
 21
-5.68075
 31
68.6805
 12
-73.5728
 22
5.68075
 32
68.6805
 13
-73.5728
 23
5.68075
 33
68.6805
  0
3DFACE
  8
0
  6
CONTINUOUS
 62
     4
 10
-92.9378
 20
-10.8055
 30
44.8144
 11
-73.5728
 21
-5.68075
 31
68.6805
 12
-70.091
 22
-16.3572
 32
70.2416
 13
-70.091
 23
-16.3572
 33
70.2416
  0
3DFACE
  8
0
  6
CONTINUOUS
 62
     4
 10
-86.3148
 20
-31.1133
 30
47.7838
 11
-70.091
 21
-16.3572
 31
70.2416
 12
-92.9378
 22
-10.8055
 32
44.8144
 13
-92.9378
 23
-10.8055
 33
44.8144
  0
3DFACE
  8
0
  6
CONTINUOUS
 62
     4
 10
-86.3148
 20
-31.1133
 30
47.7838
 11
-70.091
 21
-16.3572
 31
70.2416
 12
-63.5473
 22
-25.0607
 32
73.1755
 13
-63.5473
 23
-25.0607
 33
73.1755
  0
3DFACE
  8
0
  6
CONTINUOUS
 62
     4
 10
-73.868
 20
-47.6682
 30
53.3643
 11
-63.5473
 21
-25.0607
 31
73.1755
 12
-86.3148
 22
-31.1133
 32
47.7838
 13
-86.3148
 23
-31.1133
 33
47.7838
  0
3DFACE
  8
0
  6
CONTINUOUS
 62
     4
 10
-73.868
 20
-47.6682
 30
53.3643
 11
-63.5473
 21
-25.0607
 31
73.1755
 12
-54.7309
 22
-30.7414
 32
77.1282
 13
-54.7309
 23
-30.7414
 33
77.1282
  0
3DFACE
  8
0
  6
CONTINUOUS
 62
     4
 10
-57.0984
 20
-58.4737
 30
60.8829
 11
-54.7309
 21
-30.7414
 31
77.1282
 12
-73.868
 22
-47.6682
 32
53.3643
 13
-73.868
 23
-47.6682
 33
53.3643
  0
3DFACE
  8
0
  6
CONTINUOUS
 62
     4
 10
-57.0984
 20
-58.4737
 30
60.8829
 11
-54.7309
 21
-30.7414
 31
77.1282
 12
-44.7054
 22
-32.7144
 32
81.6232
 13
-44.7054
 23
-32.7144
 33
81.6232
  0
3DFACE
  8
0
  6
CONTINUOUS
 62
     4
 10
-44.7054
 20
-32.7144
 30
81.6232
 11
-38.0288
 21
-62.2263
 31
69.4328
 12
-57.0984
 22
-58.4737
 32
60.8829
 13
-57.0984
 23
-58.4737
 33
60.8829
  0
3DFACE
  8
0
  6
CONTINUOUS
 62
     4
 10
-44.7054
 20
-32.7144
 30
81.6232
 11
-38.0288
 21
-62.2263
 31
69.4328
 12
-34.6799
 22
-30.7414
 32
86.118
 13
-34.6799
 23
-30.7414
 33
86.118
  0
3DFACE
  8
0
  6
CONTINUOUS
 62
     4
 10
-34.6799
 20
-30.7414
 30
86.118
 11
-18.9591
 21
-58.4737
 31
77.9827
 12
-38.0288
 22
-62.2263
 32
69.4328
 13
-38.0288
 23
-62.2263
 33
69.4328
  0
3DFACE
  8
0
  6
CONTINUOUS
 62
     4
 10
-34.6799
 20
-30.7414
 30
86.118
 11
-18.9591
 21
-58.4737
 31
77.9827
 12
-25.8636
 22
-25.0607
 32
90.0709
 13
-25.8636
 23
-25.0607
 33
90.0709
  0
3DFACE
  8
0
  6
CONTINUOUS
 62
     4
 10
-25.8636
 20
-25.0607
 30
90.0709
 11
-2.18949
 21
-47.6682
 31
85.5013
 12
-18.9591
 22
-58.4737
 32
77.9827
 13
-18.9591
 23
-58.4737
 33
77.9827
  0
3DFACE
  8
0
  6
CONTINUOUS
 62
     4
 10
-25.8636
 20
-25.0607
 30
90.0709
 11
-2.18949
 21
-47.6682
 31
85.5013
 12
-19.3199
 22
-16.3572
 32
93.0048
 13
-19.3199
 23
-16.3572
 33
93.0048
  0
3DFACE
  8
0
  6
CONTINUOUS
 62
     4
 10
-19.3199
 20
-16.3572
 30
93.0048
 11
10.2573
 21
-31.1133
 31
91.0818
 12
-2.18949
 22
-47.6682
 32
85.5013
 13
-2.18949
 23
-47.6682
 33
85.5013
  0
3DFACE
  8
0
  6
CONTINUOUS
 62
     4
 10
-19.3199
 20
-16.3572
 30
93.0048
 11
10.2573
 21
-31.1133
 31
91.0818
 12
-15.838
 22
-5.68075
 32
94.5658
 13
-15.838
 23
-5.68075
 33
94.5658
  0
3DFACE
  8
0
  6
CONTINUOUS
 62
     4
 10
-15.838
 20
-5.68075
 30
94.5658
 11
16.8802
 21
-10.8055
 31
94.0512
 12
10.2573
 22
-31.1133
 32
91.0818
 13
10.2573
 23
-31.1133
 33
91.0818
  0
3DFACE
  8
0
  6
CONTINUOUS
 62
     4
 10
-15.838
 20
-5.68075
 30
94.5658
 11
16.8802
 21
-10.8055
 31
94.0512
 12
-15.838
 22
5.68075
 32
94.5658
 13
-15.838
 23
5.68075
 33
94.5658
  0
3DFACE
  8
0
  6
CONTINUOUS
 62
     4
 10
-15.838
 20
5.68075
 30
94.5658
 11
16.8802
 21
10.8055
 31
94.0512
 12
-15.838
 22
-5.68075
 32
94.5658
 13
-15.838
 23
-5.68075
 33
94.5658
  0
3DFACE
  8
0
  6
CONTINUOUS
 62
     4
 10
-15.838
 20
5.68075
 30
94.5658
 11
16.8802
 21
10.8055
 31
94.0512
 12
10.2573
 22
31.1133
 32
91.0818
 13
10.2573
 23
31.1133
 33
91.0818
  0
3DFACE
  8
0
  6
CONTINUOUS
 62
     4
 10
-19.3199
 20
16.3572
 30
93.0048
 11
10.2573
 21
31.1133
 31
91.0818
 12
-15.838
 22
5.68075
 32
94.5658
 13
-15.838
 23
5.68075
 33
94.5658
  0
3DFACE
  8
0
  6
CONTINUOUS
 62
     4
 10
-19.3199
 20
16.3572
 30
93.0048
 11
10.2573
 21
31.1133
 31
91.0818
 12
-2.18949
 22
47.6682
 32
85.5013
 13
-2.18949
 23
47.6682
 33
85.5013
  0
3DFACE
  8
0
  6
CONTINUOUS
 62
     4
 10
-25.8635
 20
25.0607
 30
90.0709
 11
-2.18949
 21
47.6682
 31
85.5013
 12
-19.3199
 22
16.3572
 32
93.0048
 13
-19.3199
 23
16.3572
 33
93.0048
  0
3DFACE
  8
0
  6
CONTINUOUS
 62
     4
 10
-25.8635
 20
25.0607
 30
90.0709
 11
-2.18949
 21
47.6682
 31
85.5013
 12
-18.9591
 22
58.4737
 32
77.9827
 13
-18.9591
 23
58.4737
 33
77.9827
  0
3DFACE
  8
0
  6
CONTINUOUS
 62
     4
 10
-34.6799
 20
30.7414
 30
86.118
 11
-18.9591
 21
58.4737
 31
77.9827
 12
-25.8635
 22
25.0607
 32
90.0709
 13
-25.8635
 23
25.0607
 33
90.0709
  0
3DFACE
  8
0
  6
CONTINUOUS
 62
     4
 10
-34.6799
 20
30.7414
 30
86.118
 11
-18.9591
 21
58.4737
 31
77.9827
 12
-38.0288
 22
62.2263
 32
69.4328
 13
-38.0288
 23
62.2263
 33
69.4328
  0
3DFACE
  8
0
  6
CONTINUOUS
 62
     4
 10
-44.7054
 20
32.7144
 30
81.6232
 11
-38.0288
 21
62.2263
 31
69.4328
 12
-34.6799
 22
30.7414
 32
86.118
 13
-34.6799
 23
30.7414
 33
86.118
  0
3DFACE
  8
0
  6
CONTINUOUS
 62
     4
 10
-47.0061
 20
0.001
 30
85.8237
 11
-44.7054
 21
32.7144
 31
81.6232
 12
-54.7309
 22
30.7414
 32
77.1282
 13
-54.7309
 23
30.7414
 33
77.1282
  0
3DFACE
  8
0
  6
CONTINUOUS
 62
     4
 10
-54.7309
 20
30.7414
 30
77.1282
 11
-47.0064
 21
0.000892308
 31
85.8236
 12
-47.0061
 22
0.001
 32
85.8237
 13
-47.0061
 23
0.001
 33
85.8237
  0
3DFACE
  8
0
  6
CONTINUOUS
 62
     4
 10
-54.7309
 20
30.7414
 30
77.1282
 11
-47.0064
 21
0.000892308
 31
85.8236
 12
-63.5473
 22
25.0607
 32
73.1755
 13
-63.5473
 23
25.0607
 33
73.1755
  0
3DFACE
  8
0
  6
CONTINUOUS
 62
     4
 10
-63.5473
 20
25.0607
 30
73.1755
 11
-47.0066
 21
0.0008
 31
85.8234
 12
-47.0064
 22
0.000892308
 32
85.8236
 13
-47.0064
 23
0.000892308
 33
85.8236
  0
3DFACE
  8
0
  6
CONTINUOUS
 62
     4
 10
-63.5473
 20
25.0607
 30
73.1755
 11
-47.0066
 21
0.0008
 31
85.8234
 12
-70.091
 22
16.3572
 32
70.2416
 13
-70.091
 23
16.3572
 33
70.2416
  0
3DFACE
  8
0
  6
CONTINUOUS
 62
     4
 10
-70.091
 20
16.3572
 30
70.2416
 11
-47.007
 21
0.000492308
 31
85.8233
 12
-47.0066
 22
0.0008
 32
85.8234
 13
-47.0066
 23
0.0008
 33
85.8234
  0
3DFACE
  8
0
  6
CONTINUOUS
 62
     4
 10
-70.091
 20
16.3572
 30
70.2416
 11
-47.007
 21
0.000492308
 31
85.8233
 12
-73.5728
 22
5.68075
 32
68.6805
 13
-73.5728
 23
5.68075
 33
68.6805
  0
3DFACE
  8
0
  6
CONTINUOUS
 62
     4
 10
-73.5728
 20
5.68075
 30
68.6805
 11
-47.007
 21
0.0002
 31
85.8232
 12
-47.007
 22
0.000492308
 32
85.8233
 13
-47.007
 23
0.000492308
 33
85.8233
  0
3DFACE
  8
0
  6
CONTINUOUS
 62
     4
 10
-73.5728
 20
5.68075
 30
68.6805
 11
-47.007
 21
0.0002
 31
85.8232
 12
-47.007
 22
-0.0002
 32
85.8232
 13
-47.007
 23
-0.0002
 33
85.8232
  0
3DFACE
  8
0
  6
CONTINUOUS
 62
     4
 10
-73.5728
 20
-5.68075
 30
68.6805
 11
-47.007
 21
-0.0002
 31
85.8232
 12
-47.007
 22
0.0002
 32
85.8232
 13
-47.007
 23
0.0002
 33
85.8232
  0
3DFACE
  8
0
  6
CONTINUOUS
 62
     4
 10
-73.5728
 20
-5.68075
 30
68.6805
 11
-47.007
 21
-0.0002
 31
85.8232
 12
-47.007
 22
-0.000492308
 32
85.8233
 13
-47.007
 23
-0.000492308
 33
85.8233
  0
3DFACE
  8
0
  6
CONTINUOUS
 62
     4
 10
-70.091
 20
-16.3572
 30
70.2416
 11
-47.007
 21
-0.000492308
 31
85.8233
 12
-73.5728
 22
-5.68075
 32
68.6805
 13
-73.5728
 23
-5.68075
 33
68.6805
  0
3DFACE
  8
0
  6
CONTINUOUS
 62
     4
 10
-70.091
 20
-16.3572
 30
70.2416
 11
-47.007
 21
-0.000492308
 31
85.8233
 12
-47.0066
 22
-0.0008
 32
85.8234
 13
-47.0066
 23
-0.0008
 33
85.8234
  0
3DFACE
  8
0
  6
CONTINUOUS
 62
     4
 10
-63.5473
 20
-25.0607
 30
73.1755
 11
-47.0066
 21
-0.0008
 31
85.8234
 12
-70.091
 22
-16.3572
 32
70.2416
 13
-70.091
 23
-16.3572
 33
70.2416
  0
3DFACE
  8
0
  6
CONTINUOUS
 62
     4
 10
-63.5473
 20
-25.0607
 30
73.1755
 11
-47.0066
 21
-0.0008
 31
85.8234
 12
-47.0064
 22
-0.000892308
 32
85.8236
 13
-47.0064
 23
-0.000892308
 33
85.8236
  0
3DFACE
  8
0
  6
CONTINUOUS
 62
     4
 10
-54.7309
 20
-30.7414
 30
77.1282
 11
-47.0064
 21
-0.000892308
 31
85.8236
 12
-63.5473
 22
-25.0607
 32
73.1755
 13
-63.5473
 23
-25.0607
 33
73.1755
  0
3DFACE
  8
0
  6
CONTINUOUS
 62
     4
 10
-54.7309
 20
-30.7414
 30
77.1282
 11
-47.0064
 21
-0.000892308
 31
85.8236
 12
-47.0061
 22
-0.001
 32
85.8237
 13
-47.0061
 23
-0.001
 33
85.8237
  0
3DFACE
  8
0
  6
CONTINUOUS
 62
     4
 10
-47.0061
 20
-0.001
 30
85.8237
 11
-44.7054
 21
-32.7144
 31
81.6232
 12
-54.7309
 22
-30.7414
 32
77.1282
 13
-54.7309
 23
-30.7414
 33
77.1282
  0
3DFACE
  8
0
  6
CONTINUOUS
 62
     4
 10
-47.0061
 20
-0.001
 30
85.8237
 11
-44.7054
 21
-32.7144
 31
81.6232
 12
-47.0058
 22
-0.000892308
 32
85.8238
 13
-47.0058
 23
-0.000892308
 33
85.8238
  0
3DFACE
  8
0
  6
CONTINUOUS
 62
     4
 10
-47.0058
 20
-0.000892308
 30
85.8238
 11
-34.6799
 21
-30.7414
 31
86.118
 12
-44.7054
 22
-32.7144
 32
81.6232
 13
-44.7054
 23
-32.7144
 33
81.6232
  0
3DFACE
  8
0
  6
CONTINUOUS
 62
     4
 10
-47.0058
 20
-0.000892308
 30
85.8238
 11
-34.6799
 21
-30.7414
 31
86.118
 12
-25.8636
 22
-25.0607
 32
90.0709
 13
-25.8636
 23
-25.0607
 33
90.0709
  0
3DFACE
  8
0
  6
CONTINUOUS
 62
     4
 10
-47.0056
 20
-0.0008
 30
85.8239
 11
-25.8636
 21
-25.0607
 31
90.0709
 12
-47.0058
 22
-0.000892308
 32
85.8238
 13
-47.0058
 23
-0.000892308
 33
85.8238
  0
3DFACE
  8
0
  6
CONTINUOUS
 62
     4
 10
-47.0056
 20
-0.0008
 30
85.8239
 11
-25.8636
 21
-25.0607
 31
90.0709
 12
-19.3199
 22
-16.3572
 32
93.0048
 13
-19.3199
 23
-16.3572
 33
93.0048
  0
3DFACE
  8
0
  6
CONTINUOUS
 62
     4
 10
-47.0052
 20
-0.000492308
 30
85.8241
 11
-19.3199
 21
-16.3572
 31
93.0048
 12
-47.0056
 22
-0.0008
 32
85.8239
 13
-47.0056
 23
-0.0008
 33
85.8239
  0
3DFACE
  8
0
  6
CONTINUOUS
 62
     4
 10
-47.0052
 20
-0.000492308
 30
85.8241
 11
-19.3199
 21
-16.3572
 31
93.0048
 12
-15.838
 22
-5.68075
 32
94.5658
 13
-15.838
 23
-5.68075
 33
94.5658
  0
3DFACE
  8
0
  6
CONTINUOUS
 62
     4
 10
-47.0051
 20
-0.0002
 30
85.8241
 11
-15.838
 21
-5.68075
 31
94.5658
 12
-47.0052
 22
-0.000492308
 32
85.8241
 13
-47.0052
 23
-0.000492308
 33
85.8241
  0
3DFACE
  8
0
  6
CONTINUOUS
 62
     4
 10
-47.0051
 20
-0.0002
 30
85.8241
 11
-15.838
 21
-5.68075
 31
94.5658
 12
-47.0051
 22
0.0002
 32
85.8241
 13
-47.0051
 23
0.0002
 33
85.8241
  0
3DFACE
  8
0
  6
CONTINUOUS
 62
     4
 10
-47.0051
 20
0.0002
 30
85.8241
 11
-15.838
 21
5.68075
 31
94.5658
 12
-47.0051
 22
-0.0002
 32
85.8241
 13
-47.0051
 23
-0.0002
 33
85.8241
  0
3DFACE
  8
0
  6
CONTINUOUS
 62
     4
 10
-47.0051
 20
0.0002
 30
85.8241
 11
-15.838
 21
5.68075
 31
94.5658
 12
-47.0052
 22
0.000492308
 32
85.8241
 13
-47.0052
 23
0.000492308
 33
85.8241
  0
3DFACE
  8
0
  6
CONTINUOUS
 62
     4
 10
-47.0052
 20
0.000492308
 30
85.8241
 11
-19.3199
 21
16.3572
 31
93.0048
 12
-15.838
 22
5.68075
 32
94.5658
 13
-15.838
 23
5.68075
 33
94.5658
  0
3DFACE
  8
0
  6
CONTINUOUS
 62
     4
 10
-47.0052
 20
0.000492308
 30
85.8241
 11
-19.3199
 21
16.3572
 31
93.0048
 12
-47.0056
 22
0.0008
 32
85.8239
 13
-47.0056
 23
0.0008
 33
85.8239
  0
3DFACE
  8
0
  6
CONTINUOUS
 62
     4
 10
-47.0056
 20
0.0008
 30
85.8239
 11
-25.8635
 21
25.0607
 31
90.0709
 12
-19.3199
 22
16.3572
 32
93.0048
 13
-19.3199
 23
16.3572
 33
93.0048
  0
3DFACE
  8
0
  6
CONTINUOUS
 62
     4
 10
-47.0056
 20
0.0008
 30
85.8239
 11
-25.8635
 21
25.0607
 31
90.0709
 12
-47.0058
 22
0.000892308
 32
85.8238
 13
-47.0058
 23
0.000892308
 33
85.8238
  0
3DFACE
  8
0
  6
CONTINUOUS
 62
     4
 10
-47.0058
 20
0.000892308
 30
85.8238
 11
-34.6799
 21
30.7414
 31
86.118
 12
-25.8635
 22
25.0607
 32
90.0709
 13
-25.8635
 23
25.0607
 33
90.0709
  0
3DFACE
  8
0
  6
CONTINUOUS
 62
     4
 10
-47.0058
 20
0.000892308
 30
85.8238
 11
-34.6799
 21
30.7414
 31
86.118
 12
-44.7054
 22
32.7144
 32
81.6232
 13
-44.7054
 23
32.7144
 33
81.6232
  0
3DFACE
  8
0
  6
CONTINUOUS
 62
     4
 10
-47.0061
 20
0.001
 30
85.8237
 11
-44.7054
 21
32.7144
 31
81.6232
 12
-47.0058
 22
0.000892308
 32
85.8238
 13
-47.0058
 23
0.000892308
 33
85.8238
  0
3DFACE
  8
0
  6
CONTINUOUS
 62
     4
 10
44.7054
 20
32.7144
 30
-81.6232
 11
47.0058
 21
0.000892308
 31
-85.8238
 12
34.6799
 22
30.7414
 32
-86.118
 13
34.6799
 23
30.7414
 33
-86.118
  0
3DFACE
  8
0
  6
CONTINUOUS
 62
     4
 10
44.7054
 20
32.7144
 30
-81.6232
 11
47.0058
 21
0.000892308
 31
-85.8238
 12
47.0061
 22
0.001
 32
-85.8237
 13
47.0061
 23
0.001
 33
-85.8237
  0
3DFACE
  8
0
  6
CONTINUOUS
 62
     4
 10
25.8636
 20
25.0607
 30
-90.0709
 11
47.0058
 21
0.000892308
 31
-85.8238
 12
47.0056
 22
0.0008
 32
-85.8239
 13
47.0056
 23
0.0008
 33
-85.8239
  0
3DFACE
  8
0
  6
CONTINUOUS
 62
     4
 10
25.8636
 20
25.0607
 30
-90.0709
 11
47.0058
 21
0.000892308
 31
-85.8238
 12
34.6799
 22
30.7414
 32
-86.118
 13
34.6799
 23
30.7414
 33
-86.118
  0
3DFACE
  8
0
  6
CONTINUOUS
 62
     4
 10
19.3199
 20
16.3572
 30
-93.0048
 11
47.0056
 21
0.0008
 31
-85.8239
 12
47.0052
 22
0.000492308
 32
-85.8241
 13
47.0052
 23
0.000492308
 33
-85.8241
  0
3DFACE
  8
0
  6
CONTINUOUS
 62
     4
 10
19.3199
 20
16.3572
 30
-93.0048
 11
47.0056
 21
0.0008
 31
-85.8239
 12
25.8636
 22
25.0607
 32
-90.0709
 13
25.8636
 23
25.0607
 33
-90.0709
  0
3DFACE
  8
0
  6
CONTINUOUS
 62
     4
 10
15.8381
 20
5.68075
 30
-94.5658
 11
47.0052
 21
0.000492308
 31
-85.8241
 12
47.0051
 22
0.0002
 32
-85.8241
 13
47.0051
 23
0.0002
 33
-85.8241
  0
3DFACE
  8
0
  6
CONTINUOUS
 62
     4
 10
15.8381
 20
5.68075
 30
-94.5658
 11
47.0052
 21
0.000492308
 31
-85.8241
 12
19.3199
 22
16.3572
 32
-93.0048
 13
19.3199
 23
16.3572
 33
-93.0048
  0
3DFACE
  8
0
  6
CONTINUOUS
 62
     4
 10
15.8381
 20
-5.68075
 30
-94.5658
 11
47.0051
 21
0.0002
 31
-85.8241
 12
47.0051
 22
-0.0002
 32
-85.8241
 13
47.0051
 23
-0.0002
 33
-85.8241
  0
3DFACE
  8
0
  6
CONTINUOUS
 62
     4
 10
15.8381
 20
5.68075
 30
-94.5658
 11
47.0051
 21
-0.0002
 31
-85.8241
 12
47.0051
 22
0.0002
 32
-85.8241
 13
47.0051
 23
0.0002
 33
-85.8241
  0
3DFACE
  8
0
  6
CONTINUOUS
 62
     4
 10
15.8381
 20
-5.68075
 30
-94.5658
 11
47.0052
 21
-0.000492308
 31
-85.8241
 12
19.3199
 22
-16.3572
 32
-93.0048
 13
19.3199
 23
-16.3572
 33
-93.0048
  0
3DFACE
  8
0
  6
CONTINUOUS
 62
     4
 10
15.8381
 20
-5.68075
 30
-94.5658
 11
47.0052
 21
-0.000492308
 31
-85.8241
 12
47.0051
 22
-0.0002
 32
-85.8241
 13
47.0051
 23
-0.0002
 33
-85.8241
  0
3DFACE
  8
0
  6
CONTINUOUS
 62
     4
 10
19.3199
 20
-16.3572
 30
-93.0048
 11
47.0056
 21
-0.0008
 31
-85.8239
 12
25.8636
 22
-25.0607
 32
-90.0709
 13
25.8636
 23
-25.0607
 33
-90.0709
  0
3DFACE
  8
0
  6
CONTINUOUS
 62
     4
 10
19.3199
 20
-16.3572
 30
-93.0048
 11
47.0056
 21
-0.0008
 31
-85.8239
 12
47.0052
 22
-0.000492308
 32
-85.8241
 13
47.0052
 23
-0.000492308
 33
-85.8241
  0
3DFACE
  8
0
  6
CONTINUOUS
 62
     4
 10
25.8636
 20
-25.0607
 30
-90.0709
 11
47.0058
 21
-0.000892308
 31
-85.8238
 12
34.6799
 22
-30.7414
 32
-86.118
 13
34.6799
 23
-30.7414
 33
-86.118
  0
3DFACE
  8
0
  6
CONTINUOUS
 62
     4
 10
25.8636
 20
-25.0607
 30
-90.0709
 11
47.0058
 21
-0.000892308
 31
-85.8238
 12
47.0056
 22
-0.0008
 32
-85.8239
 13
47.0056
 23
-0.0008
 33
-85.8239
  0
3DFACE
  8
0
  6
CONTINUOUS
 62
     4
 10
44.7054
 20
-32.7144
 30
-81.6232
 11
47.0058
 21
-0.000892308
 31
-85.8238
 12
47.0061
 22
-0.001
 32
-85.8237
 13
47.0061
 23
-0.001
 33
-85.8237
  0
3DFACE
  8
0
  6
CONTINUOUS
 62
     4
 10
44.7054
 20
-32.7144
 30
-81.6232
 11
47.0058
 21
-0.000892308
 31
-85.8238
 12
34.6799
 22
-30.7414
 32
-86.118
 13
34.6799
 23
-30.7414
 33
-86.118
  0
3DFACE
  8
0
  6
CONTINUOUS
 62
     4
 10
47.0061
 20
-0.001
 30
-85.8237
 11
54.7309
 21
-30.7414
 31
-77.1282
 12
47.0064
 22
-0.000892308
 32
-85.8236
 13
47.0064
 23
-0.000892308
 33
-85.8236
  0
3DFACE
  8
0
  6
CONTINUOUS
 62
     4
 10
47.0061
 20
-0.001
 30
-85.8237
 11
54.7309
 21
-30.7414
 31
-77.1282
 12
44.7054
 22
-32.7144
 32
-81.6232
 13
44.7054
 23
-32.7144
 33
-81.6232
  0
3DFACE
  8
0
  6
CONTINUOUS
 62
     4
 10
47.0064
 20
-0.000892308
 30
-85.8236
 11
63.5472
 21
-25.0607
 31
-73.1755
 12
47.0066
 22
-0.0008
 32
-85.8234
 13
47.0066
 23
-0.0008
 33
-85.8234
  0
3DFACE
  8
0
  6
CONTINUOUS
 62
     4
 10
47.0064
 20
-0.000892308
 30
-85.8236
 11
63.5472
 21
-25.0607
 31
-73.1755
 12
54.7309
 22
-30.7414
 32
-77.1282
 13
54.7309
 23
-30.7414
 33
-77.1282
  0
3DFACE
  8
0
  6
CONTINUOUS
 62
     4
 10
47.0066
 20
-0.0008
 30
-85.8234
 11
70.091
 21
-16.3572
 31
-70.2416
 12
47.007
 22
-0.000492308
 32
-85.8233
 13
47.007
 23
-0.000492308
 33
-85.8233
  0
3DFACE
  8
0
  6
CONTINUOUS
 62
     4
 10
47.0066
 20
-0.0008
 30
-85.8234
 11
70.091
 21
-16.3572
 31
-70.2416
 12
63.5472
 22
-25.0607
 32
-73.1755
 13
63.5472
 23
-25.0607
 33
-73.1755
  0
3DFACE
  8
0
  6
CONTINUOUS
 62
     4
 10
47.007
 20
-0.000492308
 30
-85.8233
 11
73.5727
 21
-5.68075
 31
-68.6805
 12
47.007
 22
-0.0002
 32
-85.8232
 13
47.007
 23
-0.0002
 33
-85.8232
  0
3DFACE
  8
0
  6
CONTINUOUS
 62
     4
 10
47.007
 20
-0.000492308
 30
-85.8233
 11
73.5727
 21
-5.68075
 31
-68.6805
 12
70.091
 22
-16.3572
 32
-70.2416
 13
70.091
 23
-16.3572
 33
-70.2416
  0
3DFACE
  8
0
  6
CONTINUOUS
 62
     4
 10
47.007
 20
-0.0002
 30
-85.8232
 11
73.5727
 21
5.68075
 31
-68.6805
 12
47.007
 22
0.0002
 32
-85.8232
 13
47.007
 23
0.0002
 33
-85.8232
  0
3DFACE
  8
0
  6
CONTINUOUS
 62
     4
 10
47.007
 20
0.0002
 30
-85.8232
 11
73.5727
 21
-5.68075
 31
-68.6805
 12
47.007
 22
-0.0002
 32
-85.8232
 13
47.007
 23
-0.0002
 33
-85.8232
  0
3DFACE
  8
0
  6
CONTINUOUS
 62
     4
 10
47.007
 20
0.000492308
 30
-85.8233
 11
73.5727
 21
5.68075
 31
-68.6805
 12
70.091
 22
16.3572
 32
-70.2416
 13
70.091
 23
16.3572
 33
-70.2416
  0
3DFACE
  8
0
  6
CONTINUOUS
 62
     4
 10
47.007
 20
0.000492308
 30
-85.8233
 11
73.5727
 21
5.68075
 31
-68.6805
 12
47.007
 22
0.0002
 32
-85.8232
 13
47.007
 23
0.0002
 33
-85.8232
  0
3DFACE
  8
0
  6
CONTINUOUS
 62
     4
 10
47.0066
 20
0.0008
 30
-85.8234
 11
70.091
 21
16.3572
 31
-70.2416
 12
63.5472
 22
25.0607
 32
-73.1755
 13
63.5472
 23
25.0607
 33
-73.1755
  0
3DFACE
  8
0
  6
CONTINUOUS
 62
     4
 10
47.0066
 20
0.0008
 30
-85.8234
 11
70.091
 21
16.3572
 31
-70.2416
 12
47.007
 22
0.000492308
 32
-85.8233
 13
47.007
 23
0.000492308
 33
-85.8233
  0
3DFACE
  8
0
  6
CONTINUOUS
 62
     4
 10
47.0064
 20
0.000892308
 30
-85.8236
 11
63.5472
 21
25.0607
 31
-73.1755
 12
54.7309
 22
30.7414
 32
-77.1282
 13
54.7309
 23
30.7414
 33
-77.1282
  0
3DFACE
  8
0
  6
CONTINUOUS
 62
     4
 10
47.0064
 20
0.000892308
 30
-85.8236
 11
63.5472
 21
25.0607
 31
-73.1755
 12
47.0066
 22
0.0008
 32
-85.8234
 13
47.0066
 23
0.0008
 33
-85.8234
  0
3DFACE
  8
0
  6
CONTINUOUS
 62
     4
 10
47.0061
 20
0.001
 30
-85.8237
 11
54.7309
 21
30.7414
 31
-77.1282
 12
44.7054
 22
32.7144
 32
-81.6232
 13
44.7054
 23
32.7144
 33
-81.6232
  0
3DFACE
  8
0
  6
CONTINUOUS
 62
     4
 10
47.0061
 20
0.001
 30
-85.8237
 11
54.7309
 21
30.7414
 31
-77.1282
 12
47.0064
 22
0.000892308
 32
-85.8236
 13
47.0064
 23
0.000892308
 33
-85.8236
  0
3DFACE
  8
0
  6
CONTINUOUS
 62
     4
 10
34.6799
 20
30.7414
 30
-86.118
 11
38.0288
 21
62.2263
 31
-69.4328
 12
18.9591
 22
58.4736
 32
-77.9827
 13
18.9591
 23
58.4736
 33
-77.9827
  0
3DFACE
  8
0
  6
CONTINUOUS
 62
     4
 10
34.6799
 20
30.7414
 30
-86.118
 11
38.0288
 21
62.2263
 31
-69.4328
 12
44.7054
 22
32.7144
 32
-81.6232
 13
44.7054
 23
32.7144
 33
-81.6232
  0
3DFACE
  8
0
  6
CONTINUOUS
 62
     4
 10
18.9591
 20
58.4736
 30
-77.9827
 11
25.8636
 21
25.0607
 31
-90.0709
 12
2.18949
 22
47.6682
 32
-85.5013
 13
2.18949
 23
47.6682
 33
-85.5013
  0
3DFACE
  8
0
  6
CONTINUOUS
 62
     4
 10
18.9591
 20
58.4736
 30
-77.9827
 11
25.8636
 21
25.0607
 31
-90.0709
 12
34.6799
 22
30.7414
 32
-86.118
 13
34.6799
 23
30.7414
 33
-86.118
  0
3DFACE
  8
0
  6
CONTINUOUS
 62
     4
 10
2.18949
 20
47.6682
 30
-85.5013
 11
19.3199
 21
16.3572
 31
-93.0048
 12
-10.2573
 22
31.1133
 32
-91.0818
 13
-10.2573
 23
31.1133
 33
-91.0818
  0
3DFACE
  8
0
  6
CONTINUOUS
 62
     4
 10
2.18949
 20
47.6682
 30
-85.5013
 11
19.3199
 21
16.3572
 31
-93.0048
 12
25.8636
 22
25.0607
 32
-90.0709
 13
25.8636
 23
25.0607
 33
-90.0709
  0
3DFACE
  8
0
  6
CONTINUOUS
 62
     4
 10
-10.2573
 20
31.1133
 30
-91.0818
 11
15.8381
 21
5.68075
 31
-94.5658
 12
-16.88
 22
10.8055
 32
-94.0511
 13
-16.88
 23
10.8055
 33
-94.0511
  0
3DFACE
  8
0
  6
CONTINUOUS
 62
     4
 10
-10.2573
 20
31.1133
 30
-91.0818
 11
15.8381
 21
5.68075
 31
-94.5658
 12
19.3199
 22
16.3572
 32
-93.0048
 13
19.3199
 23
16.3572
 33
-93.0048
  0
3DFACE
  8
0
  6
CONTINUOUS
 62
     4
 10
-16.88
 20
-10.8055
 30
-94.0511
 11
15.8381
 21
5.68075
 31
-94.5658
 12
15.8381
 22
-5.68075
 32
-94.5658
 13
15.8381
 23
-5.68075
 33
-94.5658
  0
3DFACE
  8
0
  6
CONTINUOUS
 62
     4
 10
-16.88
 20
10.8055
 30
-94.0511
 11
15.8381
 21
-5.68075
 31
-94.5658
 12
15.8381
 22
5.68075
 32
-94.5658
 13
15.8381
 23
5.68075
 33
-94.5658
  0
3DFACE
  8
0
  6
CONTINUOUS
 62
     4
 10
-10.2573
 20
-31.1133
 30
-91.0818
 11
15.8381
 21
-5.68075
 31
-94.5658
 12
19.3199
 22
-16.3572
 32
-93.0048
 13
19.3199
 23
-16.3572
 33
-93.0048
  0
3DFACE
  8
0
  6
CONTINUOUS
 62
     4
 10
-10.2573
 20
-31.1133
 30
-91.0818
 11
15.8381
 21
-5.68075
 31
-94.5658
 12
-16.88
 22
-10.8055
 32
-94.0511
 13
-16.88
 23
-10.8055
 33
-94.0511
  0
3DFACE
  8
0
  6
CONTINUOUS
 62
     4
 10
2.18949
 20
-47.6682
 30
-85.5013
 11
19.3199
 21
-16.3572
 31
-93.0048
 12
25.8636
 22
-25.0607
 32
-90.0709
 13
25.8636
 23
-25.0607
 33
-90.0709
  0
3DFACE
  8
0
  6
CONTINUOUS
 62
     4
 10
2.18949
 20
-47.6682
 30
-85.5013
 11
19.3199
 21
-16.3572
 31
-93.0048
 12
-10.2573
 22
-31.1133
 32
-91.0818
 13
-10.2573
 23
-31.1133
 33
-91.0818
  0
3DFACE
  8
0
  6
CONTINUOUS
 62
     4
 10
18.9591
 20
-58.4736
 30
-77.9827
 11
25.8636
 21
-25.0607
 31
-90.0709
 12
34.6799
 22
-30.7414
 32
-86.118
 13
34.6799
 23
-30.7414
 33
-86.118
  0
3DFACE
  8
0
  6
CONTINUOUS
 62
     4
 10
18.9591
 20
-58.4736
 30
-77.9827
 11
25.8636
 21
-25.0607
 31
-90.0709
 12
2.18949
 22
-47.6682
 32
-85.5013
 13
2.18949
 23
-47.6682
 33
-85.5013
  0
3DFACE
  8
0
  6
CONTINUOUS
 62
     4
 10
34.6799
 20
-30.7414
 30
-86.118
 11
38.0288
 21
-62.2263
 31
-69.4328
 12
44.7054
 22
-32.7144
 32
-81.6232
 13
44.7054
 23
-32.7144
 33
-81.6232
  0
3DFACE
  8
0
  6
CONTINUOUS
 62
     4
 10
34.6799
 20
-30.7414
 30
-86.118
 11
38.0288
 21
-62.2263
 31
-69.4328
 12
18.9591
 22
-58.4736
 32
-77.9827
 13
18.9591
 23
-58.4736
 33
-77.9827
  0
3DFACE
  8
0
  6
CONTINUOUS
 62
     4
 10
44.7054
 20
-32.7144
 30
-81.6232
 11
57.0984
 21
-58.4736
 31
-60.8829
 12
54.7309
 22
-30.7414
 32
-77.1282
 13
54.7309
 23
-30.7414
 33
-77.1282
  0
3DFACE
  8
0
  6
CONTINUOUS
 62
     4
 10
44.7054
 20
-32.7144
 30
-81.6232
 11
57.0984
 21
-58.4736
 31
-60.8829
 12
38.0288
 22
-62.2263
 32
-69.4328
 13
38.0288
 23
-62.2263
 33
-69.4328
  0
3DFACE
  8
0
  6
CONTINUOUS
 62
     4
 10
54.7309
 20
-30.7414
 30
-77.1282
 11
73.868
 21
-47.6682
 31
-53.3643
 12
63.5472
 22
-25.0607
 32
-73.1755
 13
63.5472
 23
-25.0607
 33
-73.1755
  0
3DFACE
  8
0
  6
CONTINUOUS
 62
     4
 10
54.7309
 20
-30.7414
 30
-77.1282
 11
73.868
 21
-47.6682
 31
-53.3643
 12
57.0984
 22
-58.4736
 32
-60.8829
 13
57.0984
 23
-58.4736
 33
-60.8829
  0
3DFACE
  8
0
  6
CONTINUOUS
 62
     4
 10
63.5472
 20
-25.0607
 30
-73.1755
 11
86.3148
 21
-31.1133
 31
-47.7838
 12
70.091
 22
-16.3572
 32
-70.2416
 13
70.091
 23
-16.3572
 33
-70.2416
  0
3DFACE
  8
0
  6
CONTINUOUS
 62
     4
 10
63.5472
 20
-25.0607
 30
-73.1755
 11
86.3148
 21
-31.1133
 31
-47.7838
 12
73.868
 22
-47.6682
 32
-53.3643
 13
73.868
 23
-47.6682
 33
-53.3643
  0
3DFACE
  8
0
  6
CONTINUOUS
 62
     4
 10
70.091
 20
-16.3572
 30
-70.2416
 11
92.9377
 21
-10.8055
 31
-44.8145
 12
73.5727
 22
-5.68075
 32
-68.6805
 13
73.5727
 23
-5.68075
 33
-68.6805
  0
3DFACE
  8
0
  6
CONTINUOUS
 62
     4
 10
70.091
 20
-16.3572
 30
-70.2416
 11
92.9377
 21
-10.8055
 31
-44.8145
 12
86.3148
 22
-31.1133
 32
-47.7838
 13
86.3148
 23
-31.1133
 33
-47.7838
  0
3DFACE
  8
0
  6
CONTINUOUS
 62
     4
 10
73.5727
 20
-5.68075
 30
-68.6805
 11
92.9377
 21
10.8055
 31
-44.8145
 12
73.5727
 22
5.68075
 32
-68.6805
 13
73.5727
 23
5.68075
 33
-68.6805
  0
3DFACE
  8
0
  6
CONTINUOUS
 62
     4
 10
73.5727
 20
5.68075
 30
-68.6805
 11
92.9377
 21
-10.8055
 31
-44.8145
 12
73.5727
 22
-5.68075
 32
-68.6805
 13
73.5727
 23
-5.68075
 33
-68.6805
  0
3DFACE
  8
0
  6
CONTINUOUS
 62
     4
 10
70.091
 20
16.3572
 30
-70.2416
 11
92.9377
 21
10.8055
 31
-44.8145
 12
86.3148
 22
31.1133
 32
-47.7838
 13
86.3148
 23
31.1133
 33
-47.7838
  0
3DFACE
  8
0
  6
CONTINUOUS
 62
     4
 10
70.091
 20
16.3572
 30
-70.2416
 11
92.9377
 21
10.8055
 31
-44.8145
 12
73.5727
 22
5.68075
 32
-68.6805
 13
73.5727
 23
5.68075
 33
-68.6805
  0
3DFACE
  8
0
  6
CONTINUOUS
 62
     4
 10
63.5472
 20
25.0607
 30
-73.1755
 11
86.3148
 21
31.1133
 31
-47.7838
 12
73.868
 22
47.6682
 32
-53.3643
 13
73.868
 23
47.6682
 33
-53.3643
  0
3DFACE
  8
0
  6
CONTINUOUS
 62
     4
 10
63.5472
 20
25.0607
 30
-73.1755
 11
86.3148
 21
31.1133
 31
-47.7838
 12
70.091
 22
16.3572
 32
-70.2416
 13
70.091
 23
16.3572
 33
-70.2416
  0
3DFACE
  8
0
  6
CONTINUOUS
 62
     4
 10
54.7309
 20
30.7414
 30
-77.1282
 11
73.868
 21
47.6682
 31
-53.3643
 12
57.0984
 22
58.4736
 32
-60.8829
 13
57.0984
 23
58.4736
 33
-60.8829
  0
3DFACE
  8
0
  6
CONTINUOUS
 62
     4
 10
54.7309
 20
30.7414
 30
-77.1282
 11
73.868
 21
47.6682
 31
-53.3643
 12
63.5472
 22
25.0607
 32
-73.1755
 13
63.5472
 23
25.0607
 33
-73.1755
  0
3DFACE
  8
0
  6
CONTINUOUS
 62
     4
 10
44.7054
 20
32.7144
 30
-81.6232
 11
57.0984
 21
58.4736
 31
-60.8829
 12
38.0288
 22
62.2263
 32
-69.4328
 13
38.0288
 23
62.2263
 33
-69.4328
  0
3DFACE
  8
0
  6
CONTINUOUS
 62
     4
 10
44.7054
 20
32.7144
 30
-81.6232
 11
57.0984
 21
58.4736
 31
-60.8829
 12
54.7309
 22
30.7414
 32
-77.1282
 13
54.7309
 23
30.7414
 33
-77.1282
  0
3DFACE
  8
0
  6
CONTINUOUS
 62
     4
 10
18.9591
 20
58.4736
 30
-77.9827
 11
27.6295
 21
85.6473
 31
-50.4459
 12
1.3824
 22
80.482
 32
-62.2138
 13
1.3824
 23
80.482
 33
-62.2138
  0
3DFACE
  8
0
  6
CONTINUOUS
 62
     4
 10
18.9591
 20
58.4736
 30
-77.9827
 11
27.6295
 21
85.6473
 31
-50.4459
 12
38.0288
 22
62.2263
 32
-69.4328
 13
38.0288
 23
62.2263
 33
-69.4328
  0
3DFACE
  8
0
  6
CONTINUOUS
 62
     4
 10
1.3824
 20
80.482
 30
-62.2138
 11
2.18949
 21
47.6682
 31
-85.5013
 12
-21.699
 22
65.6096
 32
-72.5622
 13
-21.699
 23
65.6096
 33
-72.5622
  0
3DFACE
  8
0
  6
CONTINUOUS
 62
     4
 10
1.3824
 20
80.482
 30
-62.2138
 11
2.18949
 21
47.6682
 31
-85.5013
 12
18.9591
 22
58.4736
 32
-77.9827
 13
18.9591
 23
58.4736
 33
-77.9827
  0
3DFACE
  8
0
  6
CONTINUOUS
 62
     4
 10
-21.699
 20
65.6096
 30
-72.5622
 11
-10.2573
 21
31.1133
 31
-91.0818
 12
-38.8307
 22
42.8235
 32
-80.2432
 13
-38.8307
 23
42.8235
 33
-80.2432
  0
3DFACE
  8
0
  6
CONTINUOUS
 62
     4
 10
-21.699
 20
65.6096
 30
-72.5622
 11
-10.2573
 21
31.1133
 31
-91.0818
 12
2.18949
 22
47.6682
 32
-85.5013
 13
2.18949
 23
47.6682
 33
-85.5013
  0
3DFACE
  8
0
  6
CONTINUOUS
 62
     4
 10
-38.8307
 20
42.8235
 30
-80.2432
 11
-16.88
 21
10.8055
 31
-94.0511
 12
-47.9461
 22
14.8724
 32
-84.3302
 13
-47.9461
 23
14.8724
 33
-84.3302
  0
3DFACE
  8
0
  6
CONTINUOUS
 62
     4
 10
-38.8307
 20
42.8235
 30
-80.2432
 11
-16.88
 21
10.8055
 31
-94.0511
 12
-10.2573
 22
31.1133
 32
-91.0818
 13
-10.2573
 23
31.1133
 33
-91.0818
  0
3DFACE
  8
0
  6
CONTINUOUS
 62
     4
 10
-47.9461
 20
-14.8724
 30
-84.3302
 11
-16.88
 21
10.8055
 31
-94.0511
 12
-16.88
 22
-10.8055
 32
-94.0511
 13
-16.88
 23
-10.8055
 33
-94.0511
  0
3DFACE
  8
0
  6
CONTINUOUS
 62
     4
 10
-47.9461
 20
14.8724
 30
-84.3302
 11
-16.88
 21
-10.8055
 31
-94.0511
 12
-16.88
 22
10.8055
 32
-94.0511
 13
-16.88
 23
10.8055
 33
-94.0511
  0
3DFACE
  8
0
  6
CONTINUOUS
 62
     4
 10
-38.8307
 20
-42.8236
 30
-80.2432
 11
-16.88
 21
-10.8055
 31
-94.0511
 12
-10.2573
 22
-31.1133
 32
-91.0818
 13
-10.2573
 23
-31.1133
 33
-91.0818
  0
3DFACE
  8
0
  6
CONTINUOUS
 62
     4
 10
-38.8307
 20
-42.8236
 30
-80.2432
 11
-16.88
 21
-10.8055
 31
-94.0511
 12
-47.9461
 22
-14.8724
 32
-84.3302
 13
-47.9461
 23
-14.8724
 33
-84.3302
  0
3DFACE
  8
0
  6
CONTINUOUS
 62
     4
 10
-21.699
 20
-65.6096
 30
-72.5622
 11
-10.2573
 21
-31.1133
 31
-91.0818
 12
2.18949
 22
-47.6682
 32
-85.5013
 13
2.18949
 23
-47.6682
 33
-85.5013
  0
3DFACE
  8
0
  6
CONTINUOUS
 62
     4
 10
-21.699
 20
-65.6096
 30
-72.5622
 11
-10.2573
 21
-31.1133
 31
-91.0818
 12
-38.8307
 22
-42.8236
 32
-80.2432
 13
-38.8307
 23
-42.8236
 33
-80.2432
  0
3DFACE
  8
0
  6
CONTINUOUS
 62
     4
 10
1.3824
 20
-80.482
 30
-62.2138
 11
2.18949
 21
-47.6682
 31
-85.5013
 12
18.9591
 22
-58.4736
 32
-77.9827
 13
18.9591
 23
-58.4736
 33
-77.9827
  0
3DFACE
  8
0
  6
CONTINUOUS
 62
     4
 10
1.3824
 20
-80.482
 30
-62.2138
 11
2.18949
 21
-47.6682
 31
-85.5013
 12
-21.699
 22
-65.6096
 32
-72.5622
 13
-21.699
 23
-65.6096
 33
-72.5622
  0
3DFACE
  8
0
  6
CONTINUOUS
 62
     4
 10
18.9591
 20
-58.4736
 30
-77.9827
 11
27.6295
 21
-85.6473
 31
-50.4459
 12
38.0288
 22
-62.2263
 32
-69.4328
 13
38.0288
 23
-62.2263
 33
-69.4328
  0
3DFACE
  8
0
  6
CONTINUOUS
 62
     4
 10
18.9591
 20
-58.4736
 30
-77.9827
 11
27.6295
 21
-85.6473
 31
-50.4459
 12
1.3824
 22
-80.482
 32
-62.2138
 13
1.3824
 23
-80.482
 33
-62.2138
  0
3DFACE
  8
0
  6
CONTINUOUS
 62
     4
 10
38.0288
 20
-62.2263
 30
-69.4328
 11
53.8766
 21
-80.482
 31
-38.678
 12
57.0984
 22
-58.4736
 32
-60.8829
 13
57.0984
 23
-58.4736
 33
-60.8829
  0
3DFACE
  8
0
  6
CONTINUOUS
 62
     4
 10
38.0288
 20
-62.2263
 30
-69.4328
 11
53.8766
 21
-80.482
 31
-38.678
 12
27.6295
 22
-85.6473
 32
-50.4459
 13
27.6295
 23
-85.6473
 33
-50.4459
  0
3DFACE
  8
0
  6
CONTINUOUS
 62
     4
 10
57.0984
 20
-58.4736
 30
-60.8829
 11
76.958
 21
-65.6096
 31
-28.3296
 12
73.868
 22
-47.6682
 32
-53.3643
 13
73.868
 23
-47.6682
 33
-53.3643
  0
3DFACE
  8
0
  6
CONTINUOUS
 62
     4
 10
57.0984
 20
-58.4736
 30
-60.8829
 11
76.958
 21
-65.6096
 31
-28.3296
 12
53.8766
 22
-80.482
 32
-38.678
 13
53.8766
 23
-80.482
 33
-38.678
  0
3DFACE
  8
0
  6
CONTINUOUS
 62
     4
 10
73.868
 20
-47.6682
 30
-53.3643
 11
94.0896
 21
-42.8235
 31
-20.6486
 12
86.3148
 22
-31.1133
 32
-47.7838
 13
86.3148
 23
-31.1133
 33
-47.7838
  0
3DFACE
  8
0
  6
CONTINUOUS
 62
     4
 10
73.868
 20
-47.6682
 30
-53.3643
 11
94.0896
 21
-42.8235
 31
-20.6486
 12
76.958
 22
-65.6096
 32
-28.3296
 13
76.958
 23
-65.6096
 33
-28.3296
  0
3DFACE
  8
0
  6
CONTINUOUS
 62
     4
 10
86.3148
 20
-31.1133
 30
-47.7838
 11
103.205
 21
-14.8724
 31
-16.5616
 12
92.9377
 22
-10.8055
 32
-44.8145
 13
92.9377
 23
-10.8055
 33
-44.8145
  0
3DFACE
  8
0
  6
CONTINUOUS
 62
     4
 10
86.3148
 20
-31.1133
 30
-47.7838
 11
103.205
 21
-14.8724
 31
-16.5616
 12
94.0896
 22
-42.8235
 32
-20.6486
 13
94.0896
 23
-42.8235
 33
-20.6486
  0
3DFACE
  8
0
  6
CONTINUOUS
 62
     4
 10
92.9377
 20
-10.8055
 30
-44.8145
 11
103.205
 21
14.8724
 31
-16.5616
 12
92.9377
 22
10.8055
 32
-44.8145
 13
92.9377
 23
10.8055
 33
-44.8145
  0
3DFACE
  8
0
  6
CONTINUOUS
 62
     4
 10
92.9377
 20
10.8055
 30
-44.8145
 11
103.205
 21
-14.8724
 31
-16.5616
 12
92.9377
 22
-10.8055
 32
-44.8145
 13
92.9377
 23
-10.8055
 33
-44.8145
  0
3DFACE
  8
0
  6
CONTINUOUS
 62
     4
 10
86.3148
 20
31.1133
 30
-47.7838
 11
103.205
 21
14.8724
 31
-16.5616
 12
94.0896
 22
42.8235
 32
-20.6486
 13
94.0896
 23
42.8235
 33
-20.6486
  0
3DFACE
  8
0
  6
CONTINUOUS
 62
     4
 10
86.3148
 20
31.1133
 30
-47.7838
 11
103.205
 21
14.8724
 31
-16.5616
 12
92.9377
 22
10.8055
 32
-44.8145
 13
92.9377
 23
10.8055
 33
-44.8145
  0
3DFACE
  8
0
  6
CONTINUOUS
 62
     4
 10
73.868
 20
47.6682
 30
-53.3643
 11
94.0896
 21
42.8235
 31
-20.6486
 12
76.958
 22
65.6096
 32
-28.3296
 13
76.958
 23
65.6096
 33
-28.3296
  0
3DFACE
  8
0
  6
CONTINUOUS
 62
     4
 10
73.868
 20
47.6682
 30
-53.3643
 11
94.0896
 21
42.8235
 31
-20.6486
 12
86.3148
 22
31.1133
 32
-47.7838
 13
86.3148
 23
31.1133
 33
-47.7838
  0
3DFACE
  8
0
  6
CONTINUOUS
 62
     4
 10
57.0984
 20
58.4736
 30
-60.8829
 11
76.958
 21
65.6096
 31
-28.3296
 12
53.8766
 22
80.482
 32
-38.678
 13
53.8766
 23
80.482
 33
-38.678
  0
3DFACE
  8
0
  6
CONTINUOUS
 62
     4
 10
57.0984
 20
58.4736
 30
-60.8829
 11
76.958
 21
65.6096
 31
-28.3296
 12
73.868
 22
47.6682
 32
-53.3643
 13
73.868
 23
47.6682
 33
-53.3643
  0
3DFACE
  8
0
  6
CONTINUOUS
 62
     4
 10
38.0288
 20
62.2263
 30
-69.4328
 11
53.8766
 21
80.482
 31
-38.678
 12
27.6295
 22
85.6473
 32
-50.4459
 13
27.6295
 23
85.6473
 33
-50.4459
  0
3DFACE
  8
0
  6
CONTINUOUS
 62
     4
 10
38.0288
 20
62.2263
 30
-69.4328
 11
53.8766
 21
80.482
 31
-38.678
 12
57.0984
 22
58.4736
 32
-60.8829
 13
57.0984
 23
58.4736
 33
-60.8829
  0
3DFACE
  8
0
  6
CONTINUOUS
 62
     4
 10
1.3824
 20
80.482
 30
-62.2138
 11
14.5257
 21
100.684
 31
-26.521
 12
-16.3296
 22
94.6124
 32
-40.3549
 13
-16.3296
 23
94.6124
 33
-40.3549
  0
3DFACE
  8
0
  6
CONTINUOUS
 62
     4
 10
1.3824
 20
80.482
 30
-62.2138
 11
14.5257
 21
100.684
 31
-26.521
 12
27.6295
 22
85.6473
 32
-50.4459
 13
27.6295
 23
85.6473
 33
-50.4459
  0
3DFACE
  8
0
  6
CONTINUOUS
 62
     4
 10
-21.699
 20
65.6096
 30
-72.5622
 11
-16.3296
 21
94.6124
 31
-40.3549
 12
-43.4635
 22
77.1288
 32
-52.5203
 13
-43.4635
 23
77.1288
 33
-52.5203
  0
3DFACE
  8
0
  6
CONTINUOUS
 62
     4
 10
-21.699
 20
65.6096
 30
-72.5622
 11
-16.3296
 21
94.6124
 31
-40.3549
 12
1.3824
 22
80.482
 32
-62.2138
 13
1.3824
 23
80.482
 33
-62.2138
  0
3DFACE
  8
0
  6
CONTINUOUS
 62
     4
 10
-43.4635
 20
77.1288
 30
-52.5203
 11
-38.8307
 21
42.8235
 31
-80.2432
 12
-63.6028
 22
50.3421
 32
-61.5498
 13
-63.6028
 23
50.3421
 33
-61.5498
  0
3DFACE
  8
0
  6
CONTINUOUS
 62
     4
 10
-43.4635
 20
77.1288
 30
-52.5203
 11
-38.8307
 21
42.8235
 31
-80.2432
 12
-21.699
 22
65.6096
 32
-72.5622
 13
-21.699
 23
65.6096
 33
-72.5622
  0
3DFACE
  8
0
  6
CONTINUOUS
 62
     4
 10
-63.6028
 20
50.3421
 30
-61.5498
 11
-47.9461
 21
14.8724
 31
-84.3302
 12
-74.3188
 22
17.4836
 32
-66.3543
 13
-74.3188
 23
17.4836
 33
-66.3543
  0
3DFACE
  8
0
  6
CONTINUOUS
 62
     4
 10
-63.6028
 20
50.3421
 30
-61.5498
 11
-47.9461
 21
14.8724
 31
-84.3302
 12
-38.8307
 22
42.8235
 32
-80.2432
 13
-38.8307
 23
42.8235
 33
-80.2432
  0
3DFACE
  8
0
  6
CONTINUOUS
 62
     4
 10
-74.3188
 20
-17.4836
 30
-66.3543
 11
-47.9461
 21
14.8724
 31
-84.3302
 12
-47.9461
 22
-14.8724
 32
-84.3302
 13
-47.9461
 23
-14.8724
 33
-84.3302
  0
3DFACE
  8
0
  6
CONTINUOUS
 62
     4
 10
-74.3188
 20
17.4836
 30
-66.3543
 11
-47.9461
 21
-14.8724
 31
-84.3302
 12
-47.9461
 22
14.8724
 32
-84.3302
 13
-47.9461
 23
14.8724
 33
-84.3302
  0
3DFACE
  8
0
  6
CONTINUOUS
 62
     4
 10
-63.6028
 20
-50.3421
 30
-61.5498
 11
-47.9461
 21
-14.8724
 31
-84.3302
 12
-38.8307
 22
-42.8236
 32
-80.2432
 13
-38.8307
 23
-42.8236
 33
-80.2432
  0
3DFACE
  8
0
  6
CONTINUOUS
 62
     4
 10
-63.6028
 20
-50.3421
 30
-61.5498
 11
-47.9461
 21
-14.8724
 31
-84.3302
 12
-74.3188
 22
-17.4836
 32
-66.3543
 13
-74.3188
 23
-17.4836
 33
-66.3543
  0
3DFACE
  8
0
  6
CONTINUOUS
 62
     4
 10
-43.4635
 20
-77.1288
 30
-52.5203
 11
-38.8307
 21
-42.8236
 31
-80.2432
 12
-21.699
 22
-65.6096
 32
-72.5622
 13
-21.699
 23
-65.6096
 33
-72.5622
  0
3DFACE
  8
0
  6
CONTINUOUS
 62
     4
 10
-43.4635
 20
-77.1288
 30
-52.5203
 11
-38.8307
 21
-42.8236
 31
-80.2432
 12
-63.6028
 22
-50.3421
 32
-61.5498
 13
-63.6028
 23
-50.3421
 33
-61.5498
  0
3DFACE
  8
0
  6
CONTINUOUS
 62
     4
 10
-21.699
 20
-65.6096
 30
-72.5622
 11
-16.3296
 21
-94.6124
 31
-40.3549
 12
1.3824
 22
-80.482
 32
-62.2138
 13
1.3824
 23
-80.482
 33
-62.2138
  0
3DFACE
  8
0
  6
CONTINUOUS
 62
     4
 10
-21.699
 20
-65.6096
 30
-72.5622
 11
-16.3296
 21
-94.6124
 31
-40.3549
 12
-43.4635
 22
-77.1288
 32
-52.5203
 13
-43.4635
 23
-77.1288
 33
-52.5203
  0
3DFACE
  8
0
  6
CONTINUOUS
 62
     4
 10
1.3824
 20
-80.482
 30
-62.2138
 11
14.5257
 21
-100.684
 31
-26.521
 12
27.6295
 22
-85.6473
 32
-50.4459
 13
27.6295
 23
-85.6473
 33
-50.4459
  0
3DFACE
  8
0
  6
CONTINUOUS
 62
     4
 10
1.3824
 20
-80.482
 30
-62.2138
 11
14.5257
 21
-100.684
 31
-26.521
 12
-16.3296
 22
-94.6124
 32
-40.3549
 13
-16.3296
 23
-94.6124
 33
-40.3549
  0
3DFACE
  8
0
  6
CONTINUOUS
 62
     4
 10
27.6295
 20
-85.6473
 30
-50.4459
 11
45.381
 21
-94.6124
 31
-12.687
 12
53.8766
 22
-80.482
 32
-38.678
 13
53.8766
 23
-80.482
 33
-38.678
  0
3DFACE
  8
0
  6
CONTINUOUS
 62
     4
 10
27.6295
 20
-85.6473
 30
-50.4459
 11
45.381
 21
-94.6124
 31
-12.687
 12
14.5257
 22
-100.684
 32
-26.521
 13
14.5257
 23
-100.684
 33
-26.521
  0
3DFACE
  8
0
  6
CONTINUOUS
 62
     4
 10
53.8766
 20
-80.482
 30
-38.678
 11
72.5148
 21
-77.1288
 31
-0.521662
 12
76.958
 22
-65.6096
 32
-28.3296
 13
76.958
 23
-65.6096
 33
-28.3296
  0
3DFACE
  8
0
  6
CONTINUOUS
 62
     4
 10
53.8766
 20
-80.482
 30
-38.678
 11
72.5148
 21
-77.1288
 31
-0.521662
 12
45.381
 22
-94.6124
 32
-12.687
 13
45.381
 23
-94.6124
 33
-12.687
  0
3DFACE
  8
0
  6
CONTINUOUS
 62
     4
 10
76.958
 20
-65.6096
 30
-28.3296
 11
92.6543
 21
-50.3421
 31
8.50788
 12
94.0896
 22
-42.8235
 32
-20.6486
 13
94.0896
 23
-42.8235
 33
-20.6486
  0
3DFACE
  8
0
  6
CONTINUOUS
 62
     4
 10
76.958
 20
-65.6096
 30
-28.3296
 11
92.6543
 21
-50.3421
 31
8.50788
 12
72.5148
 22
-77.1288
 32
-0.521662
 13
72.5148
 23
-77.1288
 33
-0.521662
  0
3DFACE
  8
0
  6
CONTINUOUS
 62
     4
 10
94.0896
 20
-42.8235
 30
-20.6486
 11
103.37
 21
-17.4836
 31
13.3124
 12
103.205
 22
-14.8724
 32
-16.5616
 13
103.205
 23
-14.8724
 33
-16.5616
  0
3DFACE
  8
0
  6
CONTINUOUS
 62
     4
 10
94.0896
 20
-42.8235
 30
-20.6486
 11
103.37
 21
-17.4836
 31
13.3124
 12
92.6543
 22
-50.3421
 32
8.50788
 13
92.6543
 23
-50.3421
 33
8.50788
  0
3DFACE
  8
0
  6
CONTINUOUS
 62
     4
 10
103.205
 20
-14.8724
 30
-16.5616
 11
103.37
 21
17.4836
 31
13.3124
 12
103.205
 22
14.8724
 32
-16.5616
 13
103.205
 23
14.8724
 33
-16.5616
  0
3DFACE
  8
0
  6
CONTINUOUS
 62
     4
 10
103.205
 20
14.8724
 30
-16.5616
 11
103.37
 21
-17.4836
 31
13.3124
 12
103.205
 22
-14.8724
 32
-16.5616
 13
103.205
 23
-14.8724
 33
-16.5616
  0
3DFACE
  8
0
  6
CONTINUOUS
 62
     4
 10
94.0896
 20
42.8235
 30
-20.6486
 11
103.37
 21
17.4836
 31
13.3124
 12
92.6543
 22
50.3421
 32
8.50788
 13
92.6543
 23
50.3421
 33
8.50788
  0
3DFACE
  8
0
  6
CONTINUOUS
 62
     4
 10
94.0896
 20
42.8235
 30
-20.6486
 11
103.37
 21
17.4836
 31
13.3124
 12
103.205
 22
14.8724
 32
-16.5616
 13
103.205
 23
14.8724
 33
-16.5616
  0
3DFACE
  8
0
  6
CONTINUOUS
 62
     4
 10
76.958
 20
65.6096
 30
-28.3296
 11
92.6543
 21
50.3421
 31
8.50788
 12
72.5148
 22
77.1288
 32
-0.521662
 13
72.5148
 23
77.1288
 33
-0.521662
  0
3DFACE
  8
0
  6
CONTINUOUS
 62
     4
 10
76.958
 20
65.6096
 30
-28.3296
 11
92.6543
 21
50.3421
 31
8.50788
 12
94.0896
 22
42.8235
 32
-20.6486
 13
94.0896
 23
42.8235
 33
-20.6486
  0
3DFACE
  8
0
  6
CONTINUOUS
 62
     4
 10
53.8766
 20
80.482
 30
-38.678
 11
72.5148
 21
77.1288
 31
-0.521662
 12
45.381
 22
94.6124
 32
-12.687
 13
45.381
 23
94.6124
 33
-12.687
  0
3DFACE
  8
0
  6
CONTINUOUS
 62
     4
 10
53.8766
 20
80.482
 30
-38.678
 11
72.5148
 21
77.1288
 31
-0.521662
 12
76.958
 22
65.6096
 32
-28.3296
 13
76.958
 23
65.6096
 33
-28.3296
  0
3DFACE
  8
0
  6
CONTINUOUS
 62
     4
 10
27.6295
 20
85.6473
 30
-50.4459
 11
45.381
 21
94.6124
 31
-12.687
 12
14.5257
 22
100.684
 32
-26.521
 13
14.5257
 23
100.684
 33
-26.521
  0
3DFACE
  8
0
  6
CONTINUOUS
 62
     4
 10
27.6295
 20
85.6473
 30
-50.4459
 11
45.381
 21
94.6124
 31
-12.687
 12
53.8766
 22
80.482
 32
-38.678
 13
53.8766
 23
80.482
 33
-38.678
  0
3DFACE
  8
0
  6
CONTINUOUS
 62
     4
 10
-16.3296
 20
94.6124
 30
-40.3549
 11
0
 21
105.866
 31
0
 12
-32.4432
 22
99.4814
 32
-14.5459
 13
-32.4432
 23
99.4814
 33
-14.5459
  0
3DFACE
  8
0
  6
CONTINUOUS
 62
     4
 10
-16.3296
 20
94.6124
 30
-40.3549
 11
0
 21
105.866
 31
0
 12
14.5257
 22
100.684
 32
-26.521
 13
14.5257
 23
100.684
 33
-26.521
  0
3DFACE
  8
0
  6
CONTINUOUS
 62
     4
 10
-43.4635
 20
77.1288
 30
-52.5203
 11
-32.4432
 21
99.4814
 31
-14.5459
 12
-60.9734
 22
81.0979
 32
-27.3374
 13
-60.9734
 23
81.0979
 33
-27.3374
  0
3DFACE
  8
0
  6
CONTINUOUS
 62
     4
 10
-43.4635
 20
77.1288
 30
-52.5203
 11
-32.4432
 21
99.4814
 31
-14.5459
 12
-16.3296
 22
94.6124
 32
-40.3549
 13
-16.3296
 23
94.6124
 33
-40.3549
  0
3DFACE
  8
0
  6
CONTINUOUS
 62
     4
 10
-63.6028
 20
50.3421
 30
-61.5498
 11
-60.9734
 21
81.0979
 31
-27.3374
 12
-82.1494
 22
52.9329
 32
-36.8315
 13
-82.1494
 23
52.9329
 33
-36.8315
  0
3DFACE
  8
0
  6
CONTINUOUS
 62
     4
 10
-63.6028
 20
50.3421
 30
-61.5498
 11
-60.9734
 21
81.0979
 31
-27.3374
 12
-43.4635
 22
77.1288
 32
-52.5203
 13
-43.4635
 23
77.1288
 33
-52.5203
  0
3DFACE
  8
0
  6
CONTINUOUS
 62
     4
 10
-82.1494
 20
52.9329
 30
-36.8315
 11
-74.3188
 21
17.4836
 31
-66.3543
 12
-93.4166
 22
18.3833
 32
-41.8832
 13
-93.4166
 23
18.3833
 33
-41.8832
  0
3DFACE
  8
0
  6
CONTINUOUS
 62
     4
 10
-82.1494
 20
52.9329
 30
-36.8315
 11
-74.3188
 21
17.4836
 31
-66.3543
 12
-63.6028
 22
50.3421
 32
-61.5498
 13
-63.6028
 23
50.3421
 33
-61.5498
  0
3DFACE
  8
0
  6
CONTINUOUS
 62
     4
 10
-93.4166
 20
-18.3833
 30
-41.8832
 11
-74.3188
 21
17.4836
 31
-66.3543
 12
-74.3188
 22
-17.4836
 32
-66.3543
 13
-74.3188
 23
-17.4836
 33
-66.3543
  0
3DFACE
  8
0
  6
CONTINUOUS
 62
     4
 10
-93.4166
 20
18.3833
 30
-41.8832
 11
-74.3188
 21
-17.4836
 31
-66.3543
 12
-74.3188
 22
17.4836
 32
-66.3543
 13
-74.3188
 23
17.4836
 33
-66.3543
  0
3DFACE
  8
0
  6
CONTINUOUS
 62
     4
 10
-82.1493
 20
-52.9329
 30
-36.8315
 11
-74.3188
 21
-17.4836
 31
-66.3543
 12
-63.6028
 22
-50.3421
 32
-61.5498
 13
-63.6028
 23
-50.3421
 33
-61.5498
  0
3DFACE
  8
0
  6
CONTINUOUS
 62
     4
 10
-82.1493
 20
-52.9329
 30
-36.8315
 11
-74.3188
 21
-17.4836
 31
-66.3543
 12
-93.4166
 22
-18.3833
 32
-41.8832
 13
-93.4166
 23
-18.3833
 33
-41.8832
  0
3DFACE
  8
0
  6
CONTINUOUS
 62
     4
 10
-63.6028
 20
-50.3421
 30
-61.5498
 11
-60.9734
 21
-81.0979
 31
-27.3374
 12
-43.4635
 22
-77.1288
 32
-52.5203
 13
-43.4635
 23
-77.1288
 33
-52.5203
  0
3DFACE
  8
0
  6
CONTINUOUS
 62
     4
 10
-63.6028
 20
-50.3421
 30
-61.5498
 11
-60.9734
 21
-81.0979
 31
-27.3374
 12
-82.1493
 22
-52.9329
 32
-36.8315
 13
-82.1493
 23
-52.9329
 33
-36.8315
  0
3DFACE
  8
0
  6
CONTINUOUS
 62
     4
 10
-43.4635
 20
-77.1288
 30
-52.5203
 11
-32.4432
 21
-99.4814
 31
-14.5459
 12
-16.3296
 22
-94.6124
 32
-40.3549
 13
-16.3296
 23
-94.6124
 33
-40.3549
  0
3DFACE
  8
0
  6
CONTINUOUS
 62
     4
 10
-43.4635
 20
-77.1288
 30
-52.5203
 11
-32.4432
 21
-99.4814
 31
-14.5459
 12
-60.9734
 22
-81.0979
 32
-27.3374
 13
-60.9734
 23
-81.0979
 33
-27.3374
  0
3DFACE
  8
0
  6
CONTINUOUS
 62
     4
 10
-16.3296
 20
-94.6124
 30
-40.3549
 11
0
 21
-105.866
 31
0
 12
14.5257
 22
-100.684
 32
-26.521
 13
14.5257
 23
-100.684
 33
-26.521
  0
3DFACE
  8
0
  6
CONTINUOUS
 62
     4
 10
-16.3296
 20
-94.6124
 30
-40.3549
 11
0
 21
-105.866
 31
0
 12
-32.4432
 22
-99.4814
 32
-14.5459
 13
-32.4432
 23
-99.4814
 33
-14.5459
  0
3DFACE
  8
0
  6
CONTINUOUS
 62
     4
 10
14.5257
 20
-100.684
 30
-26.521
 11
32.4432
 21
-99.4814
 31
14.5459
 12
45.381
 22
-94.6124
 32
-12.687
 13
45.381
 23
-94.6124
 33
-12.687
  0
3DFACE
  8
0
  6
CONTINUOUS
 62
     4
 10
14.5257
 20
-100.684
 30
-26.521
 11
32.4432
 21
-99.4814
 31
14.5459
 12
0
 22
-105.866
 32
0
 13
0
 23
-105.866
 33
0
  0
3DFACE
  8
0
  6
CONTINUOUS
 62
     4
 10
45.381
 20
-94.6124
 30
-12.687
 11
60.9734
 21
-81.0979
 31
27.3374
 12
72.5148
 22
-77.1288
 32
-0.521662
 13
72.5148
 23
-77.1288
 33
-0.521662
  0
3DFACE
  8
0
  6
CONTINUOUS
 62
     4
 10
45.381
 20
-94.6124
 30
-12.687
 11
60.9734
 21
-81.0979
 31
27.3374
 12
32.4432
 22
-99.4814
 32
14.5459
 13
32.4432
 23
-99.4814
 33
14.5459
  0
3DFACE
  8
0
  6
CONTINUOUS
 62
     4
 10
72.5148
 20
-77.1288
 30
-0.521662
 11
82.1494
 21
-52.9329
 31
36.8315
 12
92.6543
 22
-50.3421
 32
8.50788
 13
92.6543
 23
-50.3421
 33
8.50788
  0
3DFACE
  8
0
  6
CONTINUOUS
 62
     4
 10
72.5148
 20
-77.1288
 30
-0.521662
 11
82.1494
 21
-52.9329
 31
36.8315
 12
60.9734
 22
-81.0979
 32
27.3374
 13
60.9734
 23
-81.0979
 33
27.3374
  0
3DFACE
  8
0
  6
CONTINUOUS
 62
     4
 10
92.6543
 20
-50.3421
 30
8.50788
 11
93.4166
 21
-18.3833
 31
41.8832
 12
103.37
 22
-17.4836
 32
13.3124
 13
103.37
 23
-17.4836
 33
13.3124
  0
3DFACE
  8
0
  6
CONTINUOUS
 62
     4
 10
92.6543
 20
-50.3421
 30
8.50788
 11
93.4166
 21
-18.3833
 31
41.8832
 12
82.1494
 22
-52.9329
 32
36.8315
 13
82.1494
 23
-52.9329
 33
36.8315
  0
3DFACE
  8
0
  6
CONTINUOUS
 62
     4
 10
93.4166
 20
18.3833
 30
41.8832
 11
103.37
 21
-17.4836
 31
13.3124
 12
103.37
 22
17.4836
 32
13.3124
 13
103.37
 23
17.4836
 33
13.3124
  0
3DFACE
  8
0
  6
CONTINUOUS
 62
     4
 10
93.4166
 20
-18.3833
 30
41.8832
 11
103.37
 21
17.4836
 31
13.3124
 12
103.37
 22
-17.4836
 32
13.3124
 13
103.37
 23
-17.4836
 33
13.3124
  0
3DFACE
  8
0
  6
CONTINUOUS
 62
     4
 10
92.6543
 20
50.3421
 30
8.50788
 11
93.4166
 21
18.3833
 31
41.8832
 12
82.1494
 22
52.9329
 32
36.8315
 13
82.1494
 23
52.9329
 33
36.8315
  0
3DFACE
  8
0
  6
CONTINUOUS
 62
     4
 10
92.6543
 20
50.3421
 30
8.50788
 11
93.4166
 21
18.3833
 31
41.8832
 12
103.37
 22
17.4836
 32
13.3124
 13
103.37
 23
17.4836
 33
13.3124
  0
3DFACE
  8
0
  6
CONTINUOUS
 62
     4
 10
72.5148
 20
77.1288
 30
-0.521662
 11
82.1494
 21
52.9329
 31
36.8315
 12
60.9734
 22
81.0979
 32
27.3374
 13
60.9734
 23
81.0979
 33
27.3374
  0
3DFACE
  8
0
  6
CONTINUOUS
 62
     4
 10
72.5148
 20
77.1288
 30
-0.521662
 11
82.1494
 21
52.9329
 31
36.8315
 12
92.6543
 22
50.3421
 32
8.50788
 13
92.6543
 23
50.3421
 33
8.50788
  0
3DFACE
  8
0
  6
CONTINUOUS
 62
     4
 10
45.381
 20
94.6124
 30
-12.687
 11
60.9734
 21
81.0979
 31
27.3374
 12
32.4432
 22
99.4814
 32
14.5459
 13
32.4432
 23
99.4814
 33
14.5459
  0
3DFACE
  8
0
  6
CONTINUOUS
 62
     4
 10
45.381
 20
94.6124
 30
-12.687
 11
60.9734
 21
81.0979
 31
27.3374
 12
72.5148
 22
77.1288
 32
-0.521662
 13
72.5148
 23
77.1288
 33
-0.521662
  0
3DFACE
  8
0
  6
CONTINUOUS
 62
     4
 10
14.5257
 20
100.684
 30
-26.521
 11
32.4432
 21
99.4814
 31
14.5459
 12
0
 22
105.866
 32
0
 13
0
 23
105.866
 33
0
  0
3DFACE
  8
0
  6
CONTINUOUS
 62
     4
 10
14.5257
 20
100.684
 30
-26.521
 11
32.4432
 21
99.4814
 31
14.5459
 12
45.381
 22
94.6124
 32
-12.687
 13
45.381
 23
94.6124
 33
-12.687
  0
3DFACE
  8
0
  6
CONTINUOUS
 62
     4
 10
-32.4432
 20
99.4814
 30
-14.5459
 11
-14.5257
 21
100.684
 31
26.521
 12
-45.381
 22
94.6124
 32
12.687
 13
-45.381
 23
94.6124
 33
12.687
  0
3DFACE
  8
0
  6
CONTINUOUS
 62
     4
 10
-32.4432
 20
99.4814
 30
-14.5459
 11
-14.5257
 21
100.684
 31
26.521
 12
0
 22
105.866
 32
0
 13
0
 23
105.866
 33
0
  0
3DFACE
  8
0
  6
CONTINUOUS
 62
     4
 10
-60.9734
 20
81.0979
 30
-27.3374
 11
-45.381
 21
94.6124
 31
12.687
 12
-72.5148
 22
77.1288
 32
0.521662
 13
-72.5148
 23
77.1288
 33
0.521662
  0
3DFACE
  8
0
  6
CONTINUOUS
 62
     4
 10
-60.9734
 20
81.0979
 30
-27.3374
 11
-45.381
 21
94.6124
 31
12.687
 12
-32.4432
 22
99.4814
 32
-14.5459
 13
-32.4432
 23
99.4814
 33
-14.5459
  0
3DFACE
  8
0
  6
CONTINUOUS
 62
     4
 10
-82.1494
 20
52.9329
 30
-36.8315
 11
-72.5148
 21
77.1288
 31
0.521662
 12
-92.6543
 22
50.3421
 32
-8.50788
 13
-92.6543
 23
50.3421
 33
-8.50788
  0
3DFACE
  8
0
  6
CONTINUOUS
 62
     4
 10
-82.1494
 20
52.9329
 30
-36.8315
 11
-72.5148
 21
77.1288
 31
0.521662
 12
-60.9734
 22
81.0979
 32
-27.3374
 13
-60.9734
 23
81.0979
 33
-27.3374
  0
3DFACE
  8
0
  6
CONTINUOUS
 62
     4
 10
-93.4166
 20
18.3833
 30
-41.8832
 11
-92.6543
 21
50.3421
 31
-8.50788
 12
-103.37
 22
17.4836
 32
-13.3124
 13
-103.37
 23
17.4836
 33
-13.3124
  0
3DFACE
  8
0
  6
CONTINUOUS
 62
     4
 10
-93.4166
 20
18.3833
 30
-41.8832
 11
-92.6543
 21
50.3421
 31
-8.50788
 12
-82.1494
 22
52.9329
 32
-36.8315
 13
-82.1494
 23
52.9329
 33
-36.8315
  0
3DFACE
  8
0
  6
CONTINUOUS
 62
     4
 10
-103.37
 20
-17.4836
 30
-13.3124
 11
-93.4166
 21
18.3833
 31
-41.8832
 12
-93.4166
 22
-18.3833
 32
-41.8832
 13
-93.4166
 23
-18.3833
 33
-41.8832
  0
3DFACE
  8
0
  6
CONTINUOUS
 62
     4
 10
-103.37
 20
17.4836
 30
-13.3124
 11
-93.4166
 21
-18.3833
 31
-41.8832
 12
-93.4166
 22
18.3833
 32
-41.8832
 13
-93.4166
 23
18.3833
 33
-41.8832
  0
3DFACE
  8
0
  6
CONTINUOUS
 62
     4
 10
-93.4166
 20
-18.3833
 30
-41.8832
 11
-92.6543
 21
-50.3421
 31
-8.50788
 12
-82.1493
 22
-52.9329
 32
-36.8315
 13
-82.1493
 23
-52.9329
 33
-36.8315
  0
3DFACE
  8
0
  6
CONTINUOUS
 62
     4
 10
-93.4166
 20
-18.3833
 30
-41.8832
 11
-92.6543
 21
-50.3421
 31
-8.50788
 12
-103.37
 22
-17.4836
 32
-13.3124
 13
-103.37
 23
-17.4836
 33
-13.3124
  0
3DFACE
  8
0
  6
CONTINUOUS
 62
     4
 10
-82.1493
 20
-52.9329
 30
-36.8315
 11
-72.5148
 21
-77.1288
 31
0.521662
 12
-60.9734
 22
-81.0979
 32
-27.3374
 13
-60.9734
 23
-81.0979
 33
-27.3374
  0
3DFACE
  8
0
  6
CONTINUOUS
 62
     4
 10
-82.1493
 20
-52.9329
 30
-36.8315
 11
-72.5148
 21
-77.1288
 31
0.521662
 12
-92.6543
 22
-50.3421
 32
-8.50788
 13
-92.6543
 23
-50.3421
 33
-8.50788
  0
3DFACE
  8
0
  6
CONTINUOUS
 62
     4
 10
-60.9734
 20
-81.0979
 30
-27.3374
 11
-45.381
 21
-94.6124
 31
12.687
 12
-32.4432
 22
-99.4814
 32
-14.5459
 13
-32.4432
 23
-99.4814
 33
-14.5459
  0
3DFACE
  8
0
  6
CONTINUOUS
 62
     4
 10
-60.9734
 20
-81.0979
 30
-27.3374
 11
-45.381
 21
-94.6124
 31
12.687
 12
-72.5148
 22
-77.1288
 32
0.521662
 13
-72.5148
 23
-77.1288
 33
0.521662
  0
3DFACE
  8
0
  6
CONTINUOUS
 62
     4
 10
-32.4432
 20
-99.4814
 30
-14.5459
 11
-14.5257
 21
-100.684
 31
26.521
 12
0
 22
-105.866
 32
0
 13
0
 23
-105.866
 33
0
  0
3DFACE
  8
0
  6
CONTINUOUS
 62
     4
 10
-32.4432
 20
-99.4814
 30
-14.5459
 11
-14.5257
 21
-100.684
 31
26.521
 12
-45.381
 22
-94.6124
 32
12.687
 13
-45.381
 23
-94.6124
 33
12.687
  0
3DFACE
  8
0
  6
CONTINUOUS
 62
     4
 10
0
 20
-105.866
 30
0
 11
16.3296
 21
-94.6124
 31
40.3549
 12
32.4432
 22
-99.4814
 32
14.5459
 13
32.4432
 23
-99.4814
 33
14.5459
  0
3DFACE
  8
0
  6
CONTINUOUS
 62
     4
 10
0
 20
-105.866
 30
0
 11
16.3296
 21
-94.6124
 31
40.3549
 12
-14.5257
 22
-100.684
 32
26.521
 13
-14.5257
 23
-100.684
 33
26.521
  0
3DFACE
  8
0
  6
CONTINUOUS
 62
     4
 10
32.4432
 20
-99.4814
 30
14.5459
 11
43.4635
 21
-77.1288
 31
52.5203
 12
60.9734
 22
-81.0979
 32
27.3374
 13
60.9734
 23
-81.0979
 33
27.3374
  0
3DFACE
  8
0
  6
CONTINUOUS
 62
     4
 10
32.4432
 20
-99.4814
 30
14.5459
 11
43.4635
 21
-77.1288
 31
52.5203
 12
16.3296
 22
-94.6124
 32
40.3549
 13
16.3296
 23
-94.6124
 33
40.3549
  0
3DFACE
  8
0
  6
CONTINUOUS
 62
     4
 10
60.9734
 20
-81.0979
 30
27.3374
 11
63.6028
 21
-50.3421
 31
61.5498
 12
82.1494
 22
-52.9329
 32
36.8315
 13
82.1494
 23
-52.9329
 33
36.8315
  0
3DFACE
  8
0
  6
CONTINUOUS
 62
     4
 10
60.9734
 20
-81.0979
 30
27.3374
 11
63.6028
 21
-50.3421
 31
61.5498
 12
43.4635
 22
-77.1288
 32
52.5203
 13
43.4635
 23
-77.1288
 33
52.5203
  0
3DFACE
  8
0
  6
CONTINUOUS
 62
     4
 10
74.3188
 20
-17.4836
 30
66.3543
 11
82.1494
 21
-52.9329
 31
36.8315
 12
93.4166
 22
-18.3833
 32
41.8832
 13
93.4166
 23
-18.3833
 33
41.8832
  0
3DFACE
  8
0
  6
CONTINUOUS
 62
     4
 10
74.3188
 20
-17.4836
 30
66.3543
 11
82.1494
 21
-52.9329
 31
36.8315
 12
63.6028
 22
-50.3421
 32
61.5498
 13
63.6028
 23
-50.3421
 33
61.5498
  0
3DFACE
  8
0
  6
CONTINUOUS
 62
     4
 10
74.3188
 20
17.4836
 30
66.3543
 11
93.4166
 21
-18.3833
 31
41.8832
 12
93.4166
 22
18.3833
 32
41.8832
 13
93.4166
 23
18.3833
 33
41.8832
  0
3DFACE
  8
0
  6
CONTINUOUS
 62
     4
 10
74.3188
 20
-17.4836
 30
66.3543
 11
93.4166
 21
18.3833
 31
41.8832
 12
93.4166
 22
-18.3833
 32
41.8832
 13
93.4166
 23
-18.3833
 33
41.8832
  0
3DFACE
  8
0
  6
CONTINUOUS
 62
     4
 10
74.3188
 20
17.4836
 30
66.3543
 11
82.1494
 21
52.9329
 31
36.8315
 12
63.6028
 22
50.3421
 32
61.5498
 13
63.6028
 23
50.3421
 33
61.5498
  0
3DFACE
  8
0
  6
CONTINUOUS
 62
     4
 10
74.3188
 20
17.4836
 30
66.3543
 11
82.1494
 21
52.9329
 31
36.8315
 12
93.4166
 22
18.3833
 32
41.8832
 13
93.4166
 23
18.3833
 33
41.8832
  0
3DFACE
  8
0
  6
CONTINUOUS
 62
     4
 10
60.9734
 20
81.0979
 30
27.3374
 11
63.6028
 21
50.3421
 31
61.5498
 12
43.4635
 22
77.1288
 32
52.5203
 13
43.4635
 23
77.1288
 33
52.5203
  0
3DFACE
  8
0
  6
CONTINUOUS
 62
     4
 10
60.9734
 20
81.0979
 30
27.3374
 11
63.6028
 21
50.3421
 31
61.5498
 12
82.1494
 22
52.9329
 32
36.8315
 13
82.1494
 23
52.9329
 33
36.8315
  0
3DFACE
  8
0
  6
CONTINUOUS
 62
     4
 10
32.4432
 20
99.4814
 30
14.5459
 11
43.4635
 21
77.1288
 31
52.5203
 12
16.3296
 22
94.6124
 32
40.3549
 13
16.3296
 23
94.6124
 33
40.3549
  0
3DFACE
  8
0
  6
CONTINUOUS
 62
     4
 10
32.4432
 20
99.4814
 30
14.5459
 11
43.4635
 21
77.1288
 31
52.5203
 12
60.9734
 22
81.0979
 32
27.3374
 13
60.9734
 23
81.0979
 33
27.3374
  0
3DFACE
  8
0
  6
CONTINUOUS
 62
     4
 10
0
 20
105.866
 30
0
 11
16.3296
 21
94.6124
 31
40.3549
 12
-14.5257
 22
100.684
 32
26.521
 13
-14.5257
 23
100.684
 33
26.521
  0
3DFACE
  8
0
  6
CONTINUOUS
 62
     4
 10
0
 20
105.866
 30
0
 11
16.3296
 21
94.6124
 31
40.3549
 12
32.4432
 22
99.4814
 32
14.5459
 13
32.4432
 23
99.4814
 33
14.5459
  0
3DFACE
  8
0
  6
CONTINUOUS
 62
     4
 10
-45.381
 20
94.6124
 30
12.687
 11
-27.6295
 21
85.6473
 31
50.4459
 12
-53.8766
 22
80.482
 32
38.678
 13
-53.8766
 23
80.482
 33
38.678
  0
3DFACE
  8
0
  6
CONTINUOUS
 62
     4
 10
-45.381
 20
94.6124
 30
12.687
 11
-27.6295
 21
85.6473
 31
50.4459
 12
-14.5257
 22
100.684
 32
26.521
 13
-14.5257
 23
100.684
 33
26.521
  0
3DFACE
  8
0
  6
CONTINUOUS
 62
     4
 10
-72.5148
 20
77.1288
 30
0.521662
 11
-53.8766
 21
80.482
 31
38.678
 12
-76.958
 22
65.6096
 32
28.3296
 13
-76.958
 23
65.6096
 33
28.3296
  0
3DFACE
  8
0
  6
CONTINUOUS
 62
     4
 10
-72.5148
 20
77.1288
 30
0.521662
 11
-53.8766
 21
80.482
 31
38.678
 12
-45.381
 22
94.6124
 32
12.687
 13
-45.381
 23
94.6124
 33
12.687
  0
3DFACE
  8
0
  6
CONTINUOUS
 62
     4
 10
-92.6543
 20
50.3421
 30
-8.50788
 11
-76.958
 21
65.6096
 31
28.3296
 12
-94.0896
 22
42.8235
 32
20.6486
 13
-94.0896
 23
42.8235
 33
20.6486
  0
3DFACE
  8
0
  6
CONTINUOUS
 62
     4
 10
-92.6543
 20
50.3421
 30
-8.50788
 11
-76.958
 21
65.6096
 31
28.3296
 12
-72.5148
 22
77.1288
 32
0.521662
 13
-72.5148
 23
77.1288
 33
0.521662
  0
3DFACE
  8
0
  6
CONTINUOUS
 62
     4
 10
-103.37
 20
17.4836
 30
-13.3124
 11
-94.0896
 21
42.8235
 31
20.6486
 12
-103.205
 22
14.8724
 32
16.5616
 13
-103.205
 23
14.8724
 33
16.5616
  0
3DFACE
  8
0
  6
CONTINUOUS
 62
     4
 10
-103.37
 20
17.4836
 30
-13.3124
 11
-94.0896
 21
42.8235
 31
20.6486
 12
-92.6543
 22
50.3421
 32
-8.50788
 13
-92.6543
 23
50.3421
 33
-8.50788
  0
3DFACE
  8
0
  6
CONTINUOUS
 62
     4
 10
-103.37
 20
17.4836
 30
-13.3124
 11
-103.205
 21
-14.8724
 31
16.5616
 12
-103.37
 22
-17.4836
 32
-13.3124
 13
-103.37
 23
-17.4836
 33
-13.3124
  0
3DFACE
  8
0
  6
CONTINUOUS
 62
     4
 10
-103.37
 20
-17.4836
 30
-13.3124
 11
-103.205
 21
14.8724
 31
16.5616
 12
-103.37
 22
17.4836
 32
-13.3124
 13
-103.37
 23
17.4836
 33
-13.3124
  0
3DFACE
  8
0
  6
CONTINUOUS
 62
     4
 10
-103.37
 20
-17.4836
 30
-13.3124
 11
-94.0896
 21
-42.8236
 31
20.6486
 12
-92.6543
 22
-50.3421
 32
-8.50788
 13
-92.6543
 23
-50.3421
 33
-8.50788
  0
3DFACE
  8
0
  6
CONTINUOUS
 62
     4
 10
-103.37
 20
-17.4836
 30
-13.3124
 11
-94.0896
 21
-42.8236
 31
20.6486
 12
-103.205
 22
-14.8724
 32
16.5616
 13
-103.205
 23
-14.8724
 33
16.5616
  0
3DFACE
  8
0
  6
CONTINUOUS
 62
     4
 10
-92.6543
 20
-50.3421
 30
-8.50788
 11
-76.958
 21
-65.6096
 31
28.3296
 12
-72.5148
 22
-77.1288
 32
0.521662
 13
-72.5148
 23
-77.1288
 33
0.521662
  0
3DFACE
  8
0
  6
CONTINUOUS
 62
     4
 10
-92.6543
 20
-50.3421
 30
-8.50788
 11
-76.958
 21
-65.6096
 31
28.3296
 12
-94.0896
 22
-42.8236
 32
20.6486
 13
-94.0896
 23
-42.8236
 33
20.6486
  0
3DFACE
  8
0
  6
CONTINUOUS
 62
     4
 10
-72.5148
 20
-77.1288
 30
0.521662
 11
-53.8766
 21
-80.482
 31
38.678
 12
-45.381
 22
-94.6124
 32
12.687
 13
-45.381
 23
-94.6124
 33
12.687
  0
3DFACE
  8
0
  6
CONTINUOUS
 62
     4
 10
-72.5148
 20
-77.1288
 30
0.521662
 11
-53.8766
 21
-80.482
 31
38.678
 12
-76.958
 22
-65.6096
 32
28.3296
 13
-76.958
 23
-65.6096
 33
28.3296
  0
3DFACE
  8
0
  6
CONTINUOUS
 62
     4
 10
-45.381
 20
-94.6124
 30
12.687
 11
-27.6295
 21
-85.6473
 31
50.4459
 12
-14.5257
 22
-100.684
 32
26.521
 13
-14.5257
 23
-100.684
 33
26.521
  0
3DFACE
  8
0
  6
CONTINUOUS
 62
     4
 10
-45.381
 20
-94.6124
 30
12.687
 11
-27.6295
 21
-85.6473
 31
50.4459
 12
-53.8766
 22
-80.482
 32
38.678
 13
-53.8766
 23
-80.482
 33
38.678
  0
3DFACE
  8
0
  6
CONTINUOUS
 62
     4
 10
-14.5257
 20
-100.684
 30
26.521
 11
-1.3824
 21
-80.482
 31
62.2138
 12
16.3296
 22
-94.6124
 32
40.3549
 13
16.3296
 23
-94.6124
 33
40.3549
  0
3DFACE
  8
0
  6
CONTINUOUS
 62
     4
 10
-14.5257
 20
-100.684
 30
26.521
 11
-1.3824
 21
-80.482
 31
62.2138
 12
-27.6295
 22
-85.6473
 32
50.4459
 13
-27.6295
 23
-85.6473
 33
50.4459
  0
3DFACE
  8
0
  6
CONTINUOUS
 62
     4
 10
16.3296
 20
-94.6124
 30
40.3549
 11
21.699
 21
-65.6096
 31
72.5622
 12
43.4635
 22
-77.1288
 32
52.5203
 13
43.4635
 23
-77.1288
 33
52.5203
  0
3DFACE
  8
0
  6
CONTINUOUS
 62
     4
 10
16.3296
 20
-94.6124
 30
40.3549
 11
21.699
 21
-65.6096
 31
72.5622
 12
-1.3824
 22
-80.482
 32
62.2138
 13
-1.3824
 23
-80.482
 33
62.2138
  0
3DFACE
  8
0
  6
CONTINUOUS
 62
     4
 10
38.8307
 20
-42.8235
 30
80.2432
 11
43.4635
 21
-77.1288
 31
52.5203
 12
63.6028
 22
-50.3421
 32
61.5498
 13
63.6028
 23
-50.3421
 33
61.5498
  0
3DFACE
  8
0
  6
CONTINUOUS
 62
     4
 10
38.8307
 20
-42.8235
 30
80.2432
 11
43.4635
 21
-77.1288
 31
52.5203
 12
21.699
 22
-65.6096
 32
72.5622
 13
21.699
 23
-65.6096
 33
72.5622
  0
3DFACE
  8
0
  6
CONTINUOUS
 62
     4
 10
47.9461
 20
-14.8724
 30
84.3302
 11
63.6028
 21
-50.3421
 31
61.5498
 12
74.3188
 22
-17.4836
 32
66.3543
 13
74.3188
 23
-17.4836
 33
66.3543
  0
3DFACE
  8
0
  6
CONTINUOUS
 62
     4
 10
47.9461
 20
-14.8724
 30
84.3302
 11
63.6028
 21
-50.3421
 31
61.5498
 12
38.8307
 22
-42.8235
 32
80.2432
 13
38.8307
 23
-42.8235
 33
80.2432
  0
3DFACE
  8
0
  6
CONTINUOUS
 62
     4
 10
47.9461
 20
14.8724
 30
84.3302
 11
74.3188
 21
-17.4836
 31
66.3543
 12
74.3188
 22
17.4836
 32
66.3543
 13
74.3188
 23
17.4836
 33
66.3543
  0
3DFACE
  8
0
  6
CONTINUOUS
 62
     4
 10
47.9461
 20
-14.8724
 30
84.3302
 11
74.3188
 21
17.4836
 31
66.3543
 12
74.3188
 22
-17.4836
 32
66.3543
 13
74.3188
 23
-17.4836
 33
66.3543
  0
3DFACE
  8
0
  6
CONTINUOUS
 62
     4
 10
47.9461
 20
14.8724
 30
84.3302
 11
63.6028
 21
50.3421
 31
61.5498
 12
38.8307
 22
42.8235
 32
80.2432
 13
38.8307
 23
42.8235
 33
80.2432
  0
3DFACE
  8
0
  6
CONTINUOUS
 62
     4
 10
47.9461
 20
14.8724
 30
84.3302
 11
63.6028
 21
50.3421
 31
61.5498
 12
74.3188
 22
17.4836
 32
66.3543
 13
74.3188
 23
17.4836
 33
66.3543
  0
3DFACE
  8
0
  6
CONTINUOUS
 62
     4
 10
38.8307
 20
42.8235
 30
80.2432
 11
43.4635
 21
77.1288
 31
52.5203
 12
21.699
 22
65.6096
 32
72.5622
 13
21.699
 23
65.6096
 33
72.5622
  0
3DFACE
  8
0
  6
CONTINUOUS
 62
     4
 10
38.8307
 20
42.8235
 30
80.2432
 11
43.4635
 21
77.1288
 31
52.5203
 12
63.6028
 22
50.3421
 32
61.5498
 13
63.6028
 23
50.3421
 33
61.5498
  0
3DFACE
  8
0
  6
CONTINUOUS
 62
     4
 10
16.3296
 20
94.6124
 30
40.3549
 11
21.699
 21
65.6096
 31
72.5622
 12
-1.3824
 22
80.482
 32
62.2138
 13
-1.3824
 23
80.482
 33
62.2138
  0
3DFACE
  8
0
  6
CONTINUOUS
 62
     4
 10
16.3296
 20
94.6124
 30
40.3549
 11
21.699
 21
65.6096
 31
72.5622
 12
43.4635
 22
77.1288
 32
52.5203
 13
43.4635
 23
77.1288
 33
52.5203
  0
3DFACE
  8
0
  6
CONTINUOUS
 62
     4
 10
-14.5257
 20
100.684
 30
26.521
 11
-1.3824
 21
80.482
 31
62.2138
 12
-27.6295
 22
85.6473
 32
50.4459
 13
-27.6295
 23
85.6473
 33
50.4459
  0
3DFACE
  8
0
  6
CONTINUOUS
 62
     4
 10
-14.5257
 20
100.684
 30
26.521
 11
-1.3824
 21
80.482
 31
62.2138
 12
16.3296
 22
94.6124
 32
40.3549
 13
16.3296
 23
94.6124
 33
40.3549
  0
3DFACE
  8
0
  6
CONTINUOUS
 62
     4
 10
-53.8766
 20
80.482
 30
38.678
 11
-38.0288
 21
62.2263
 31
69.4328
 12
-57.0984
 22
58.4737
 32
60.8829
 13
-57.0984
 23
58.4737
 33
60.8829
  0
3DFACE
  8
0
  6
CONTINUOUS
 62
     4
 10
-53.8766
 20
80.482
 30
38.678
 11
-38.0288
 21
62.2263
 31
69.4328
 12
-27.6295
 22
85.6473
 32
50.4459
 13
-27.6295
 23
85.6473
 33
50.4459
  0
3DFACE
  8
0
  6
CONTINUOUS
 62
     4
 10
-76.958
 20
65.6096
 30
28.3296
 11
-57.0984
 21
58.4737
 31
60.8829
 12
-73.868
 22
47.6682
 32
53.3643
 13
-73.868
 23
47.6682
 33
53.3643
  0
3DFACE
  8
0
  6
CONTINUOUS
 62
     4
 10
-76.958
 20
65.6096
 30
28.3296
 11
-57.0984
 21
58.4737
 31
60.8829
 12
-53.8766
 22
80.482
 32
38.678
 13
-53.8766
 23
80.482
 33
38.678
  0
3DFACE
  8
0
  6
CONTINUOUS
 62
     4
 10
-94.0896
 20
42.8235
 30
20.6486
 11
-73.868
 21
47.6682
 31
53.3643
 12
-86.3148
 22
31.1133
 32
47.7838
 13
-86.3148
 23
31.1133
 33
47.7838
  0
3DFACE
  8
0
  6
CONTINUOUS
 62
     4
 10
-94.0896
 20
42.8235
 30
20.6486
 11
-73.868
 21
47.6682
 31
53.3643
 12
-76.958
 22
65.6096
 32
28.3296
 13
-76.958
 23
65.6096
 33
28.3296
  0
3DFACE
  8
0
  6
CONTINUOUS
 62
     4
 10
-103.205
 20
14.8724
 30
16.5616
 11
-86.3148
 21
31.1133
 31
47.7838
 12
-92.9378
 22
10.8055
 32
44.8144
 13
-92.9378
 23
10.8055
 33
44.8144
  0
3DFACE
  8
0
  6
CONTINUOUS
 62
     4
 10
-103.205
 20
14.8724
 30
16.5616
 11
-86.3148
 21
31.1133
 31
47.7838
 12
-94.0896
 22
42.8235
 32
20.6486
 13
-94.0896
 23
42.8235
 33
20.6486
  0
3DFACE
  8
0
  6
CONTINUOUS
 62
     4
 10
-103.205
 20
14.8724
 30
16.5616
 11
-92.9378
 21
-10.8055
 31
44.8144
 12
-103.205
 22
-14.8724
 32
16.5616
 13
-103.205
 23
-14.8724
 33
16.5616
  0
3DFACE
  8
0
  6
CONTINUOUS
 62
     4
 10
-103.205
 20
-14.8724
 30
16.5616
 11
-92.9378
 21
10.8055
 31
44.8144
 12
-103.205
 22
14.8724
 32
16.5616
 13
-103.205
 23
14.8724
 33
16.5616
  0
3DFACE
  8
0
  6
CONTINUOUS
 62
     4
 10
-103.205
 20
-14.8724
 30
16.5616
 11
-86.3148
 21
-31.1133
 31
47.7838
 12
-94.0896
 22
-42.8236
 32
20.6486
 13
-94.0896
 23
-42.8236
 33
20.6486
  0
3DFACE
  8
0
  6
CONTINUOUS
 62
     4
 10
-103.205
 20
-14.8724
 30
16.5616
 11
-86.3148
 21
-31.1133
 31
47.7838
 12
-92.9378
 22
-10.8055
 32
44.8144
 13
-92.9378
 23
-10.8055
 33
44.8144
  0
3DFACE
  8
0
  6
CONTINUOUS
 62
     4
 10
-94.0896
 20
-42.8236
 30
20.6486
 11
-73.868
 21
-47.6682
 31
53.3643
 12
-76.958
 22
-65.6096
 32
28.3296
 13
-76.958
 23
-65.6096
 33
28.3296
  0
3DFACE
  8
0
  6
CONTINUOUS
 62
     4
 10
-94.0896
 20
-42.8236
 30
20.6486
 11
-73.868
 21
-47.6682
 31
53.3643
 12
-86.3148
 22
-31.1133
 32
47.7838
 13
-86.3148
 23
-31.1133
 33
47.7838
  0
3DFACE
  8
0
  6
CONTINUOUS
 62
     4
 10
-76.958
 20
-65.6096
 30
28.3296
 11
-57.0984
 21
-58.4737
 31
60.8829
 12
-53.8766
 22
-80.482
 32
38.678
 13
-53.8766
 23
-80.482
 33
38.678
  0
3DFACE
  8
0
  6
CONTINUOUS
 62
     4
 10
-76.958
 20
-65.6096
 30
28.3296
 11
-57.0984
 21
-58.4737
 31
60.8829
 12
-73.868
 22
-47.6682
 32
53.3643
 13
-73.868
 23
-47.6682
 33
53.3643
  0
3DFACE
  8
0
  6
CONTINUOUS
 62
     4
 10
-53.8766
 20
-80.482
 30
38.678
 11
-38.0288
 21
-62.2263
 31
69.4328
 12
-27.6295
 22
-85.6473
 32
50.4459
 13
-27.6295
 23
-85.6473
 33
50.4459
  0
3DFACE
  8
0
  6
CONTINUOUS
 62
     4
 10
-53.8766
 20
-80.482
 30
38.678
 11
-38.0288
 21
-62.2263
 31
69.4328
 12
-57.0984
 22
-58.4737
 32
60.8829
 13
-57.0984
 23
-58.4737
 33
60.8829
  0
3DFACE
  8
0
  6
CONTINUOUS
 62
     4
 10
-27.6295
 20
-85.6473
 30
50.4459
 11
-18.9591
 21
-58.4737
 31
77.9827
 12
-1.3824
 22
-80.482
 32
62.2138
 13
-1.3824
 23
-80.482
 33
62.2138
  0
3DFACE
  8
0
  6
CONTINUOUS
 62
     4
 10
-27.6295
 20
-85.6473
 30
50.4459
 11
-18.9591
 21
-58.4737
 31
77.9827
 12
-38.0288
 22
-62.2263
 32
69.4328
 13
-38.0288
 23
-62.2263
 33
69.4328
  0
3DFACE
  8
0
  6
CONTINUOUS
 62
     4
 10
-2.18949
 20
-47.6682
 30
85.5013
 11
-1.3824
 21
-80.482
 31
62.2138
 12
21.699
 22
-65.6096
 32
72.5622
 13
21.699
 23
-65.6096
 33
72.5622
  0
3DFACE
  8
0
  6
CONTINUOUS
 62
     4
 10
-2.18949
 20
-47.6682
 30
85.5013
 11
-1.3824
 21
-80.482
 31
62.2138
 12
-18.9591
 22
-58.4737
 32
77.9827
 13
-18.9591
 23
-58.4737
 33
77.9827
  0
3DFACE
  8
0
  6
CONTINUOUS
 62
     4
 10
10.2573
 20
-31.1133
 30
91.0818
 11
21.699
 21
-65.6096
 31
72.5622
 12
38.8307
 22
-42.8235
 32
80.2432
 13
38.8307
 23
-42.8235
 33
80.2432
  0
3DFACE
  8
0
  6
CONTINUOUS
 62
     4
 10
10.2573
 20
-31.1133
 30
91.0818
 11
21.699
 21
-65.6096
 31
72.5622
 12
-2.18949
 22
-47.6682
 32
85.5013
 13
-2.18949
 23
-47.6682
 33
85.5013
  0
3DFACE
  8
0
  6
CONTINUOUS
 62
     4
 10
16.8802
 20
-10.8055
 30
94.0512
 11
38.8307
 21
-42.8235
 31
80.2432
 12
47.9461
 22
-14.8724
 32
84.3302
 13
47.9461
 23
-14.8724
 33
84.3302
  0
3DFACE
  8
0
  6
CONTINUOUS
 62
     4
 10
16.8802
 20
-10.8055
 30
94.0512
 11
38.8307
 21
-42.8235
 31
80.2432
 12
10.2573
 22
-31.1133
 32
91.0818
 13
10.2573
 23
-31.1133
 33
91.0818
  0
3DFACE
  8
0
  6
CONTINUOUS
 62
     4
 10
16.8802
 20
10.8055
 30
94.0512
 11
47.9461
 21
-14.8724
 31
84.3302
 12
47.9461
 22
14.8724
 32
84.3302
 13
47.9461
 23
14.8724
 33
84.3302
  0
3DFACE
  8
0
  6
CONTINUOUS
 62
     4
 10
16.8802
 20
-10.8055
 30
94.0512
 11
47.9461
 21
14.8724
 31
84.3302
 12
47.9461
 22
-14.8724
 32
84.3302
 13
47.9461
 23
-14.8724
 33
84.3302
  0
3DFACE
  8
0
  6
CONTINUOUS
 62
     4
 10
16.8802
 20
10.8055
 30
94.0512
 11
38.8307
 21
42.8235
 31
80.2432
 12
10.2573
 22
31.1133
 32
91.0818
 13
10.2573
 23
31.1133
 33
91.0818
  0
3DFACE
  8
0
  6
CONTINUOUS
 62
     4
 10
16.8802
 20
10.8055
 30
94.0512
 11
38.8307
 21
42.8235
 31
80.2432
 12
47.9461
 22
14.8724
 32
84.3302
 13
47.9461
 23
14.8724
 33
84.3302
  0
3DFACE
  8
0
  6
CONTINUOUS
 62
     4
 10
10.2573
 20
31.1133
 30
91.0818
 11
21.699
 21
65.6096
 31
72.5622
 12
-2.18949
 22
47.6682
 32
85.5013
 13
-2.18949
 23
47.6682
 33
85.5013
  0
3DFACE
  8
0
  6
CONTINUOUS
 62
     4
 10
10.2573
 20
31.1133
 30
91.0818
 11
21.699
 21
65.6096
 31
72.5622
 12
38.8307
 22
42.8235
 32
80.2432
 13
38.8307
 23
42.8235
 33
80.2432
  0
3DFACE
  8
0
  6
CONTINUOUS
 62
     4
 10
-2.18949
 20
47.6682
 30
85.5013
 11
-1.3824
 21
80.482
 31
62.2138
 12
-18.9591
 22
58.4737
 32
77.9827
 13
-18.9591
 23
58.4737
 33
77.9827
  0
3DFACE
  8
0
  6
CONTINUOUS
 62
     4
 10
-2.18949
 20
47.6682
 30
85.5013
 11
-1.3824
 21
80.482
 31
62.2138
 12
21.699
 22
65.6096
 32
72.5622
 13
21.699
 23
65.6096
 33
72.5622
  0
3DFACE
  8
0
  6
CONTINUOUS
 62
     4
 10
-27.6295
 20
85.6473
 30
50.4459
 11
-18.9591
 21
58.4737
 31
77.9827
 12
-38.0288
 22
62.2263
 32
69.4328
 13
-38.0288
 23
62.2263
 33
69.4328
  0
3DFACE
  8
0
  6
CONTINUOUS
 62
     4
 10
-27.6295
 20
85.6473
 30
50.4459
 11
-18.9591
 21
58.4737
 31
77.9827
 12
-1.3824
 22
80.482
 32
62.2138
 13
-1.3824
 23
80.482
 33
62.2138
  0
3DFACE
  8
0
  6
CONTINUOUS
 62
     4
 10
-57.0984
 20
58.4737
 30
60.8829
 11
-44.7054
 21
32.7144
 31
81.6232
 12
-54.7309
 22
30.7414
 32
77.1282
 13
-54.7309
 23
30.7414
 33
77.1282
  0
3DFACE
  8
0
  6
CONTINUOUS
 62
     4
 10
-57.0984
 20
58.4737
 30
60.8829
 11
-44.7054
 21
32.7144
 31
81.6232
 12
-38.0288
 22
62.2263
 32
69.4328
 13
-38.0288
 23
62.2263
 33
69.4328
  0
3DFACE
  8
0
  6
CONTINUOUS
 62
     4
 10
-73.868
 20
47.6682
 30
53.3643
 11
-54.7309
 21
30.7414
 31
77.1282
 12
-63.5473
 22
25.0607
 32
73.1755
 13
-63.5473
 23
25.0607
 33
73.1755
  0
3DFACE
  8
0
  6
CONTINUOUS
 62
     4
 10
-73.868
 20
47.6682
 30
53.3643
 11
-54.7309
 21
30.7414
 31
77.1282
 12
-57.0984
 22
58.4737
 32
60.8829
 13
-57.0984
 23
58.4737
 33
60.8829
  0
3DFACE
  8
0
  6
CONTINUOUS
 62
     4
 10
-86.3148
 20
31.1133
 30
47.7838
 11
-63.5473
 21
25.0607
 31
73.1755
 12
-70.091
 22
16.3572
 32
70.2416
 13
-70.091
 23
16.3572
 33
70.2416
  0
3DFACE
  8
0
  6
CONTINUOUS
 62
     4
 10
-86.3148
 20
31.1133
 30
47.7838
 11
-63.5473
 21
25.0607
 31
73.1755
 12
-73.868
 22
47.6682
 32
53.3643
 13
-73.868
 23
47.6682
 33
53.3643
  0
3DFACE
  8
0
  6
CONTINUOUS
 62
     4
 10
-92.9378
 20
10.8055
 30
44.8144
 11
-70.091
 21
16.3572
 31
70.2416
 12
-73.5728
 22
5.68075
 32
68.6805
 13
-73.5728
 23
5.68075
 33
68.6805
  0
3DFACE
  8
0
  6
CONTINUOUS
 62
     4
 10
-92.9378
 20
10.8055
 30
44.8144
 11
-70.091
 21
16.3572
 31
70.2416
 12
-86.3148
 22
31.1133
 32
47.7838
 13
-86.3148
 23
31.1133
 33
47.7838
  0
3DFACE
  8
0
  6
CONTINUOUS
 62
     4
 10
-92.9378
 20
10.8055
 30
44.8144
 11
-73.5728
 21
-5.68075
 31
68.6805
 12
-92.9378
 22
-10.8055
 32
44.8144
 13
-92.9378
 23
-10.8055
 33
44.8144
  0
3DFACE
  8
0
  6
CONTINUOUS
 62
     4
 10
-92.9378
 20
-10.8055
 30
44.8144
 11
-73.5728
 21
5.68075
 31
68.6805
 12
-92.9378
 22
10.8055
 32
44.8144
 13
-92.9378
 23
10.8055
 33
44.8144
  0
3DFACE
  8
0
  6
CONTINUOUS
 62
     4
 10
-92.9378
 20
-10.8055
 30
44.8144
 11
-70.091
 21
-16.3572
 31
70.2416
 12
-86.3148
 22
-31.1133
 32
47.7838
 13
-86.3148
 23
-31.1133
 33
47.7838
  0
3DFACE
  8
0
  6
CONTINUOUS
 62
     4
 10
-92.9378
 20
-10.8055
 30
44.8144
 11
-70.091
 21
-16.3572
 31
70.2416
 12
-73.5728
 22
-5.68075
 32
68.6805
 13
-73.5728
 23
-5.68075
 33
68.6805
  0
3DFACE
  8
0
  6
CONTINUOUS
 62
     4
 10
-86.3148
 20
-31.1133
 30
47.7838
 11
-63.5473
 21
-25.0607
 31
73.1755
 12
-73.868
 22
-47.6682
 32
53.3643
 13
-73.868
 23
-47.6682
 33
53.3643
  0
3DFACE
  8
0
  6
CONTINUOUS
 62
     4
 10
-86.3148
 20
-31.1133
 30
47.7838
 11
-63.5473
 21
-25.0607
 31
73.1755
 12
-70.091
 22
-16.3572
 32
70.2416
 13
-70.091
 23
-16.3572
 33
70.2416
  0
3DFACE
  8
0
  6
CONTINUOUS
 62
     4
 10
-73.868
 20
-47.6682
 30
53.3643
 11
-54.7309
 21
-30.7414
 31
77.1282
 12
-57.0984
 22
-58.4737
 32
60.8829
 13
-57.0984
 23
-58.4737
 33
60.8829
  0
3DFACE
  8
0
  6
CONTINUOUS
 62
     4
 10
-73.868
 20
-47.6682
 30
53.3643
 11
-54.7309
 21
-30.7414
 31
77.1282
 12
-63.5473
 22
-25.0607
 32
73.1755
 13
-63.5473
 23
-25.0607
 33
73.1755
  0
3DFACE
  8
0
  6
CONTINUOUS
 62
     4
 10
-57.0984
 20
-58.4737
 30
60.8829
 11
-44.7054
 21
-32.7144
 31
81.6232
 12
-38.0288
 22
-62.2263
 32
69.4328
 13
-38.0288
 23
-62.2263
 33
69.4328
  0
3DFACE
  8
0
  6
CONTINUOUS
 62
     4
 10
-57.0984
 20
-58.4737
 30
60.8829
 11
-44.7054
 21
-32.7144
 31
81.6232
 12
-54.7309
 22
-30.7414
 32
77.1282
 13
-54.7309
 23
-30.7414
 33
77.1282
  0
3DFACE
  8
0
  6
CONTINUOUS
 62
     4
 10
-38.0288
 20
-62.2263
 30
69.4328
 11
-34.6799
 21
-30.7414
 31
86.118
 12
-18.9591
 22
-58.4737
 32
77.9827
 13
-18.9591
 23
-58.4737
 33
77.9827
  0
3DFACE
  8
0
  6
CONTINUOUS
 62
     4
 10
-38.0288
 20
-62.2263
 30
69.4328
 11
-34.6799
 21
-30.7414
 31
86.118
 12
-44.7054
 22
-32.7144
 32
81.6232
 13
-44.7054
 23
-32.7144
 33
81.6232
  0
3DFACE
  8
0
  6
CONTINUOUS
 62
     4
 10
-25.8636
 20
-25.0607
 30
90.0709
 11
-18.9591
 21
-58.4737
 31
77.9827
 12
-2.18949
 22
-47.6682
 32
85.5013
 13
-2.18949
 23
-47.6682
 33
85.5013
  0
3DFACE
  8
0
  6
CONTINUOUS
 62
     4
 10
-25.8636
 20
-25.0607
 30
90.0709
 11
-18.9591
 21
-58.4737
 31
77.9827
 12
-34.6799
 22
-30.7414
 32
86.118
 13
-34.6799
 23
-30.7414
 33
86.118
  0
3DFACE
  8
0
  6
CONTINUOUS
 62
     4
 10
-19.3199
 20
-16.3572
 30
93.0048
 11
-2.18949
 21
-47.6682
 31
85.5013
 12
10.2573
 22
-31.1133
 32
91.0818
 13
10.2573
 23
-31.1133
 33
91.0818
  0
3DFACE
  8
0
  6
CONTINUOUS
 62
     4
 10
-19.3199
 20
-16.3572
 30
93.0048
 11
-2.18949
 21
-47.6682
 31
85.5013
 12
-25.8636
 22
-25.0607
 32
90.0709
 13
-25.8636
 23
-25.0607
 33
90.0709
  0
3DFACE
  8
0
  6
CONTINUOUS
 62
     4
 10
-15.838
 20
-5.68075
 30
94.5658
 11
10.2573
 21
-31.1133
 31
91.0818
 12
16.8802
 22
-10.8055
 32
94.0512
 13
16.8802
 23
-10.8055
 33
94.0512
  0
3DFACE
  8
0
  6
CONTINUOUS
 62
     4
 10
-15.838
 20
-5.68075
 30
94.5658
 11
10.2573
 21
-31.1133
 31
91.0818
 12
-19.3199
 22
-16.3572
 32
93.0048
 13
-19.3199
 23
-16.3572
 33
93.0048
  0
3DFACE
  8
0
  6
CONTINUOUS
 62
     4
 10
-15.838
 20
5.68075
 30
94.5658
 11
16.8802
 21
-10.8055
 31
94.0512
 12
16.8802
 22
10.8055
 32
94.0512
 13
16.8802
 23
10.8055
 33
94.0512
  0
3DFACE
  8
0
  6
CONTINUOUS
 62
     4
 10
-15.838
 20
-5.68075
 30
94.5658
 11
16.8802
 21
10.8055
 31
94.0512
 12
16.8802
 22
-10.8055
 32
94.0512
 13
16.8802
 23
-10.8055
 33
94.0512
  0
3DFACE
  8
0
  6
CONTINUOUS
 62
     4
 10
-15.838
 20
5.68075
 30
94.5658
 11
10.2573
 21
31.1133
 31
91.0818
 12
-19.3199
 22
16.3572
 32
93.0048
 13
-19.3199
 23
16.3572
 33
93.0048
  0
3DFACE
  8
0
  6
CONTINUOUS
 62
     4
 10
-15.838
 20
5.68075
 30
94.5658
 11
10.2573
 21
31.1133
 31
91.0818
 12
16.8802
 22
10.8055
 32
94.0512
 13
16.8802
 23
10.8055
 33
94.0512
  0
3DFACE
  8
0
  6
CONTINUOUS
 62
     4
 10
-19.3199
 20
16.3572
 30
93.0048
 11
-2.18949
 21
47.6682
 31
85.5013
 12
-25.8635
 22
25.0607
 32
90.0709
 13
-25.8635
 23
25.0607
 33
90.0709
  0
3DFACE
  8
0
  6
CONTINUOUS
 62
     4
 10
-19.3199
 20
16.3572
 30
93.0048
 11
-2.18949
 21
47.6682
 31
85.5013
 12
10.2573
 22
31.1133
 32
91.0818
 13
10.2573
 23
31.1133
 33
91.0818
  0
3DFACE
  8
0
  6
CONTINUOUS
 62
     4
 10
-25.8635
 20
25.0607
 30
90.0709
 11
-18.9591
 21
58.4737
 31
77.9827
 12
-34.6799
 22
30.7414
 32
86.118
 13
-34.6799
 23
30.7414
 33
86.118
  0
3DFACE
  8
0
  6
CONTINUOUS
 62
     4
 10
-25.8635
 20
25.0607
 30
90.0709
 11
-18.9591
 21
58.4737
 31
77.9827
 12
-2.18949
 22
47.6682
 32
85.5013
 13
-2.18949
 23
47.6682
 33
85.5013
  0
3DFACE
  8
0
  6
CONTINUOUS
 62
     4
 10
-38.0288
 20
62.2263
 30
69.4328
 11
-34.6799
 21
30.7414
 31
86.118
 12
-44.7054
 22
32.7144
 32
81.6232
 13
-44.7054
 23
32.7144
 33
81.6232
  0
3DFACE
  8
0
  6
CONTINUOUS
 62
     4
 10
-38.0288
 20
62.2263
 30
69.4328
 11
-34.6799
 21
30.7414
 31
86.118
 12
-18.9591
 22
58.4737
 32
77.9827
 13
-18.9591
 23
58.4737
 33
77.9827
  0
3DFACE
  8
0
  6
CONTINUOUS
 62
     4
 10
-54.7309
 20
30.7414
 30
77.1282
 11
-47.0061
 21
0.001
 31
85.8237
 12
-47.0064
 22
0.000892308
 32
85.8236
 13
-47.0064
 23
0.000892308
 33
85.8236
  0
3DFACE
  8
0
  6
CONTINUOUS
 62
     4
 10
-54.7309
 20
30.7414
 30
77.1282
 11
-47.0061
 21
0.001
 31
85.8237
 12
-44.7054
 22
32.7144
 32
81.6232
 13
-44.7054
 23
32.7144
 33
81.6232
  0
3DFACE
  8
0
  6
CONTINUOUS
 62
     4
 10
-63.5473
 20
25.0607
 30
73.1755
 11
-47.0064
 21
0.000892308
 31
85.8236
 12
-47.0066
 22
0.0008
 32
85.8234
 13
-47.0066
 23
0.0008
 33
85.8234
  0
3DFACE
  8
0
  6
CONTINUOUS
 62
     4
 10
-63.5473
 20
25.0607
 30
73.1755
 11
-47.0064
 21
0.000892308
 31
85.8236
 12
-54.7309
 22
30.7414
 32
77.1282
 13
-54.7309
 23
30.7414
 33
77.1282
  0
3DFACE
  8
0
  6
CONTINUOUS
 62
     4
 10
-70.091
 20
16.3572
 30
70.2416
 11
-47.0066
 21
0.0008
 31
85.8234
 12
-47.007
 22
0.000492308
 32
85.8233
 13
-47.007
 23
0.000492308
 33
85.8233
  0
3DFACE
  8
0
  6
CONTINUOUS
 62
     4
 10
-70.091
 20
16.3572
 30
70.2416
 11
-47.0066
 21
0.0008
 31
85.8234
 12
-63.5473
 22
25.0607
 32
73.1755
 13
-63.5473
 23
25.0607
 33
73.1755
  0
3DFACE
  8
0
  6
CONTINUOUS
 62
     4
 10
-73.5728
 20
5.68075
 30
68.6805
 11
-47.007
 21
0.000492308
 31
85.8233
 12
-47.007
 22
0.0002
 32
85.8232
 13
-47.007
 23
0.0002
 33
85.8232
  0
3DFACE
  8
0
  6
CONTINUOUS
 62
     4
 10
-73.5728
 20
5.68075
 30
68.6805
 11
-47.007
 21
0.000492308
 31
85.8233
 12
-70.091
 22
16.3572
 32
70.2416
 13
-70.091
 23
16.3572
 33
70.2416
  0
3DFACE
  8
0
  6
CONTINUOUS
 62
     4
 10
-73.5728
 20
5.68075
 30
68.6805
 11
-47.007
 21
-0.0002
 31
85.8232
 12
-73.5728
 22
-5.68075
 32
68.6805
 13
-73.5728
 23
-5.68075
 33
68.6805
  0
3DFACE
  8
0
  6
CONTINUOUS
 62
     4
 10
-73.5728
 20
-5.68075
 30
68.6805
 11
-47.007
 21
0.0002
 31
85.8232
 12
-73.5728
 22
5.68075
 32
68.6805
 13
-73.5728
 23
5.68075
 33
68.6805
  0
3DFACE
  8
0
  6
CONTINUOUS
 62
     4
 10
-73.5728
 20
-5.68075
 30
68.6805
 11
-47.007
 21
-0.000492308
 31
85.8233
 12
-70.091
 22
-16.3572
 32
70.2416
 13
-70.091
 23
-16.3572
 33
70.2416
  0
3DFACE
  8
0
  6
CONTINUOUS
 62
     4
 10
-73.5728
 20
-5.68075
 30
68.6805
 11
-47.007
 21
-0.000492308
 31
85.8233
 12
-47.007
 22
-0.0002
 32
85.8232
 13
-47.007
 23
-0.0002
 33
85.8232
  0
3DFACE
  8
0
  6
CONTINUOUS
 62
     4
 10
-70.091
 20
-16.3572
 30
70.2416
 11
-47.0066
 21
-0.0008
 31
85.8234
 12
-63.5473
 22
-25.0607
 32
73.1755
 13
-63.5473
 23
-25.0607
 33
73.1755
  0
3DFACE
  8
0
  6
CONTINUOUS
 62
     4
 10
-70.091
 20
-16.3572
 30
70.2416
 11
-47.0066
 21
-0.0008
 31
85.8234
 12
-47.007
 22
-0.000492308
 32
85.8233
 13
-47.007
 23
-0.000492308
 33
85.8233
  0
3DFACE
  8
0
  6
CONTINUOUS
 62
     4
 10
-63.5473
 20
-25.0607
 30
73.1755
 11
-47.0064
 21
-0.000892308
 31
85.8236
 12
-54.7309
 22
-30.7414
 32
77.1282
 13
-54.7309
 23
-30.7414
 33
77.1282
  0
3DFACE
  8
0
  6
CONTINUOUS
 62
     4
 10
-63.5473
 20
-25.0607
 30
73.1755
 11
-47.0064
 21
-0.000892308
 31
85.8236
 12
-47.0066
 22
-0.0008
 32
85.8234
 13
-47.0066
 23
-0.0008
 33
85.8234
  0
3DFACE
  8
0
  6
CONTINUOUS
 62
     4
 10
-54.7309
 20
-30.7414
 30
77.1282
 11
-47.0061
 21
-0.001
 31
85.8237
 12
-44.7054
 22
-32.7144
 32
81.6232
 13
-44.7054
 23
-32.7144
 33
81.6232
  0
3DFACE
  8
0
  6
CONTINUOUS
 62
     4
 10
-54.7309
 20
-30.7414
 30
77.1282
 11
-47.0061
 21
-0.001
 31
85.8237
 12
-47.0064
 22
-0.000892308
 32
85.8236
 13
-47.0064
 23
-0.000892308
 33
85.8236
  0
3DFACE
  8
0
  6
CONTINUOUS
 62
     4
 10
-47.0058
 20
-0.000892308
 30
85.8238
 11
-44.7054
 21
-32.7144
 31
81.6232
 12
-34.6799
 22
-30.7414
 32
86.118
 13
-34.6799
 23
-30.7414
 33
86.118
  0
3DFACE
  8
0
  6
CONTINUOUS
 62
     4
 10
-47.0058
 20
-0.000892308
 30
85.8238
 11
-44.7054
 21
-32.7144
 31
81.6232
 12
-47.0061
 22
-0.001
 32
85.8237
 13
-47.0061
 23
-0.001
 33
85.8237
  0
3DFACE
  8
0
  6
CONTINUOUS
 62
     4
 10
-47.0058
 20
-0.000892308
 30
85.8238
 11
-25.8636
 21
-25.0607
 31
90.0709
 12
-47.0056
 22
-0.0008
 32
85.8239
 13
-47.0056
 23
-0.0008
 33
85.8239
  0
3DFACE
  8
0
  6
CONTINUOUS
 62
     4
 10
-47.0058
 20
-0.000892308
 30
85.8238
 11
-25.8636
 21
-25.0607
 31
90.0709
 12
-34.6799
 22
-30.7414
 32
86.118
 13
-34.6799
 23
-30.7414
 33
86.118
  0
3DFACE
  8
0
  6
CONTINUOUS
 62
     4
 10
-47.0056
 20
-0.0008
 30
85.8239
 11
-19.3199
 21
-16.3572
 31
93.0048
 12
-47.0052
 22
-0.000492308
 32
85.8241
 13
-47.0052
 23
-0.000492308
 33
85.8241
  0
3DFACE
  8
0
  6
CONTINUOUS
 62
     4
 10
-47.0056
 20
-0.0008
 30
85.8239
 11
-19.3199
 21
-16.3572
 31
93.0048
 12
-25.8636
 22
-25.0607
 32
90.0709
 13
-25.8636
 23
-25.0607
 33
90.0709
  0
3DFACE
  8
0
  6
CONTINUOUS
 62
     4
 10
-47.0052
 20
-0.000492308
 30
85.8241
 11
-15.838
 21
-5.68075
 31
94.5658
 12
-47.0051
 22
-0.0002
 32
85.8241
 13
-47.0051
 23
-0.0002
 33
85.8241
  0
3DFACE
  8
0
  6
CONTINUOUS
 62
     4
 10
-47.0052
 20
-0.000492308
 30
85.8241
 11
-15.838
 21
-5.68075
 31
94.5658
 12
-19.3199
 22
-16.3572
 32
93.0048
 13
-19.3199
 23
-16.3572
 33
93.0048
  0
3DFACE
  8
0
  6
CONTINUOUS
 62
     4
 10
-47.0051
 20
0.0002
 30
85.8241
 11
-15.838
 21
-5.68075
 31
94.5658
 12
-15.838
 22
5.68075
 32
94.5658
 13
-15.838
 23
5.68075
 33
94.5658
  0
3DFACE
  8
0
  6
CONTINUOUS
 62
     4
 10
-47.0051
 20
-0.0002
 30
85.8241
 11
-15.838
 21
5.68075
 31
94.5658
 12
-15.838
 22
-5.68075
 32
94.5658
 13
-15.838
 23
-5.68075
 33
94.5658
  0
3DFACE
  8
0
  6
CONTINUOUS
 62
     4
 10
-47.0052
 20
0.000492308
 30
85.8241
 11
-15.838
 21
5.68075
 31
94.5658
 12
-19.3199
 22
16.3572
 32
93.0048
 13
-19.3199
 23
16.3572
 33
93.0048
  0
3DFACE
  8
0
  6
CONTINUOUS
 62
     4
 10
-47.0052
 20
0.000492308
 30
85.8241
 11
-15.838
 21
5.68075
 31
94.5658
 12
-47.0051
 22
0.0002
 32
85.8241
 13
-47.0051
 23
0.0002
 33
85.8241
  0
3DFACE
  8
0
  6
CONTINUOUS
 62
     4
 10
-47.0056
 20
0.0008
 30
85.8239
 11
-19.3199
 21
16.3572
 31
93.0048
 12
-25.8635
 22
25.0607
 32
90.0709
 13
-25.8635
 23
25.0607
 33
90.0709
  0
3DFACE
  8
0
  6
CONTINUOUS
 62
     4
 10
-47.0056
 20
0.0008
 30
85.8239
 11
-19.3199
 21
16.3572
 31
93.0048
 12
-47.0052
 22
0.000492308
 32
85.8241
 13
-47.0052
 23
0.000492308
 33
85.8241
  0
3DFACE
  8
0
  6
CONTINUOUS
 62
     4
 10
-47.0058
 20
0.000892308
 30
85.8238
 11
-25.8635
 21
25.0607
 31
90.0709
 12
-34.6799
 22
30.7414
 32
86.118
 13
-34.6799
 23
30.7414
 33
86.118
  0
3DFACE
  8
0
  6
CONTINUOUS
 62
     4
 10
-47.0058
 20
0.000892308
 30
85.8238
 11
-25.8635
 21
25.0607
 31
90.0709
 12
-47.0056
 22
0.0008
 32
85.8239
 13
-47.0056
 23
0.0008
 33
85.8239
  0
3DFACE
  8
0
  6
CONTINUOUS
 62
     4
 10
-47.0058
 20
0.000892308
 30
85.8238
 11
-44.7054
 21
32.7144
 31
81.6232
 12
-47.0061
 22
0.001
 32
85.8237
 13
-47.0061
 23
0.001
 33
85.8237
  0
3DFACE
  8
0
  6
CONTINUOUS
 62
     4
 10
-47.0058
 20
0.000892308
 30
85.8238
 11
-44.7054
 21
32.7144
 31
81.6232
 12
-34.6799
 22
30.7414
 32
86.118
 13
-34.6799
 23
30.7414
 33
86.118
  0
ENDSEC
  0
EOF
